<?xml version="1.0" encoding="utf-8"?>
<!-- Generator: Adobe Illustrator 23.0.1, SVG Export Plug-In . SVG Version: 6.00 Build 0)  -->
<svg version="1.1" xmlns="http://www.w3.org/2000/svg" xmlns:xlink="http://www.w3.org/1999/xlink" x="0px" y="0px"
	 viewBox="0 0 1700 250" style="enable-background:new 0 0 1700 250;" xml:space="preserve">
<style type="text/css">
	.st0{fill:#69A1A5;}
	.st1{fill:#566D79;}
	.st2{fill:#DBB647;}
	.st3{fill:#C66A6A;}
</style>
<g id="teal">
	<path class="st0" d="M-0.64,88.78v-3.94C-1.04,87.03-1.03,88.45-0.64,88.78z"/>
	<g>
		<path class="st0" d="M1625.95,0.96c43.81,10.71,73.37,46.71,73.41,80.02V24.24c-0.01-7.71-1.61-15.56-4.59-23.22L1625.95,0.96z"/>
		<path class="st0" d="M1165.93,36.64c44.98,1.37,61.49-16.45,75.56-36.02l-131.7-0.11C1122.76,18.1,1132.8,35.63,1165.93,36.64z"/>
		<path class="st0" d="M277.16,33.06c-79.38,23.2-108.35-7.86-134.9-33.39L12.63-0.44C1.53,15.06-2.07,30.79-0.64,32.04v52.8
			C2.5,67.85,31.14,3.95,108.88,32.41c44.91,16.44,57.48,89.78,168.29,57.4C338.57,71.86,376,26.17,412.98-0.09l-68.59-0.06
			C325.41,13.14,303.74,25.29,277.16,33.06z"/>
		<path class="st0" d="M889.07,27.95c-23.61,0.9-39.32-11.52-52.13-27.67l-41.35-0.04c28.16,25.28,42.11,86.42,93.49,84.45
			c40.89-1.57,61.99-49.42,90.11-84.29l-42.04-0.04C923.69,15.83,908.65,27.2,889.07,27.95z"/>
		<path class="st0" d="M1433.2,37.49c-25.32,0-37.64-15.75-45.8-36.73l-16.67-0.01c13.33,41.02,16.25,93.49,62.48,93.49
			c72.1,0,86.19-77.38,140.89-93.32l-67.66-0.06C1487.99,20.53,1466.95,37.49,1433.2,37.49z"/>
		<path class="st0" d="M646.47,34.26c-56.53,0.58-59.41-13.1-69.7-34.21L515.35,0c79.45,55.61,34.32,82.26,131.59,101.06
			c81.9,15.82,63.1-69.94,95.58-100.86l-29.97-0.03C702.85,18.68,686.47,33.85,646.47,34.26z"/>
		<path class="st0" d="M646.94,58.17c54.9,10.61,64.55-24.43,74.72-58L560.52,0.03C580.53,28.06,578.94,45.04,646.94,58.17z"/>
		<path class="st0" d="M277.16,46.93c33.85-9.89,60.41-28.22,83.63-47.07l-234.18-0.2C159.42,24.86,182.27,74.66,277.16,46.93z"/>
		<path class="st0" d="M1433.2,51.35c41.53,0,63.81-25.67,85.69-50.48l-136.18-0.12C1390.94,28.27,1402.54,51.35,1433.2,51.35z"/>
		<path class="st0" d="M889.07,41.82c25.08-0.96,42.71-19.33,59.08-41.44L826.98,0.27C841.76,22.51,859.01,42.97,889.07,41.82z"/>
		<path class="st0" d="M-0.64,45.91v-3.94C-1.04,44.15-1.03,45.57-0.64,45.91z"/>
		<path class="st0" d="M-0.64,41.96c1.54-8.33,9.2-27.92,25.78-42.4L-0.64-0.45V41.96z"/>
		<path class="st0" d="M1699.36,38.11V1.03l-11.68-0.01C1695.18,12.78,1699.35,25.63,1699.36,38.11z"/>
	</g>
	<path class="st1" d="M0.94,84.01"/>
</g>
<g id="navy">
	<path class="st1" d="M0.94,149.74v-4.56C0.53,147.7,0.55,149.34,0.94,149.74z"/>
	<path class="st1" d="M1663.3,1l-116.71-0.1c-33.72,32.45-54.33,89.43-111.82,89.43c-40.32,0-47.68-46.24-57.76-89.58l-30.6-0.03
		c44.28,33.53,22.92,155.33,88.36,155.33c77.03,0,87.84-102.3,152.7-110.82c64.86-8.52,113.41,46.03,113.46,95.48V74.98
		C1700.91,48.21,1686.66,19.94,1663.3,1z"/>
	<path class="st1" d="M1167.5,23.63c-22.62-0.8-34.48-10.53-43.85-23.1L968.61,0.39c-22.67,36.91-43.14,77.34-77.97,78.89
		c-42.29,1.88-59.22-45.78-79.6-79.02l-80.3-0.07c-14.94,34.74-14.25,85.59-82.7,86.4c-87.69,1.04-46.28-37.67-103.72-86.57
		L397.47-0.11c-31.71,28.65-65.34,67.23-118.74,85.3c-110.81,37.51-123.38-47.44-168.29-66.48C22.72-18.48-2.49,80.58,0.94,84.01
		v61.16c3.14-19.68,31.78-93.69,109.51-60.73c44.91,19.04,57.48,103.99,168.29,66.48c110.81-37.51,143.52-179.66,236.5-105.38
		c81.79,65.34,35.31,96.49,133.27,118.41c93.86,21,55.45-112.54,113.56-127.88C820.18,20.72,822.03,148.04,890.64,145
		c66.46-2.95,80.62-147.51,157.64-138.99c77.03,8.52,55.71,81.09,119.22,83.34c79.9,2.83,69.98-64.49,116.03-88.68l-53.97-0.05
		C1217.02,14.67,1199.44,24.76,1167.5,23.63z"/>
</g>
<g id="yellow">
	<path class="st2" d="M0.94,185.66v-3.98C0.53,183.89,0.55,185.32,0.94,185.66z"/>
	<path class="st2" d="M1587.48,37.38c-64.86,7.43-75.68,96.54-152.7,96.54c-63.94,0-45.01-101.32-85.44-133.19l-69.97-0.06
		c-41.34,22.61-34.48,77.54-111.86,75.15c-63.5-1.96-42.19-65.17-119.22-72.59c-77.03-7.43-91.18,118.5-157.64,121.07
		c-68.61,2.65-70.47-108.26-128.58-94.89c-58.11,13.37-17.93,100.26-114.02,101.26c-99.48,1.03-32.8-42.51-132.8-93.01
		s-125.69,59.12-236.5,91.8c-110.81,32.67-123.38-41.32-168.29-57.91C22.72,39.13-2.49,125.42,0.94,128.41v53.27
		c3.14-17.15,31.78-81.61,109.51-52.9c44.91,16.59,57.48,90.58,168.29,57.91c110.81-32.67,143.52-156.5,236.5-91.8
		c81.79,56.91,35.31,84.05,133.27,103.14c93.86,18.3,55.45-98.03,113.56-111.4c58.11-13.37,59.96,97.54,128.58,94.89
		c66.46-2.57,80.62-128.5,157.64-121.07c77.03,7.43,55.71,70.63,119.22,72.59c94.71,2.92,63.22-80.02,148.35-84.47
		c85.14-4.46,41.89,142.58,118.92,142.58s87.84-89.11,152.7-96.54c64.86-7.43,113.41,40.1,113.46,83.17v-57.25
		C1700.88,77.47,1652.34,29.95,1587.48,37.38z"/>
</g>
<g id="red">
	<path class="st3" d="M1699.36,164.87c-0.05-39.19-48.59-82.43-113.46-75.68s-75.68,87.84-152.7,87.84
		c-77.03,0-33.78-133.78-118.92-129.73c-85.14,4.05-53.64,79.52-148.35,76.86c-63.5-1.78-42.19-59.3-119.22-66.05
		s-91.18,107.83-157.64,110.16c-68.61,2.41-70.47-98.5-128.58-86.34c-58.11,12.16-17.93,91.23-114.02,92.14
		c-99.48,0.94-32.8-38.68-132.8-84.63s-125.69,53.8-236.5,83.53s-123.38-37.6-168.29-52.69C21.15,90.79-4.06,169.3-0.64,172.03
		v52.09c-3.42-2.72,21.79-81.24,109.51-51.75c44.91,15.09,57.48,82.42,168.29,52.69s143.52-142.4,236.5-83.53
		c81.79,51.79,35.31,76.48,133.27,93.85c93.86,16.65,55.45-89.2,113.56-101.36c58.11-12.16,59.96,88.75,128.58,86.34
		c66.46-2.34,80.62-116.92,157.64-110.16c77.03,6.76,55.71,64.27,119.22,66.05c94.71,2.66,63.22-72.81,148.35-76.86
		c85.14-4.05,41.89,129.73,118.92,129.73c77.03,0,87.84-81.08,152.7-87.84s113.41,36.49,113.46,75.68V164.87z"/>
</g>
</svg>
