<?xml version="1.0" encoding="utf-8"?>
<!-- Generator: Adobe Illustrator 23.0.1, SVG Export Plug-In . SVG Version: 6.00 Build 0)  -->
<svg version="1.1" xmlns="http://www.w3.org/2000/svg" xmlns:xlink="http://www.w3.org/1999/xlink" x="0px" y="0px"
	 viewBox="0 0 1700 900" style="enable-background:new 0 0 1700 900;" xml:space="preserve">
<style type="text/css">
	.st0{display:none;}
	.st1{display:inline;}
	.st2{display:inline;fill:#80A5C7;}
	.st3{fill:#69A1A5;}
	.st4{fill:#566D79;}
	.st5{fill:#DBB647;}
	.st6{fill:#C46A6A;}
</style>
<g id="Layer_1" class="st0">
	<g class="st1">
		<g>
			<path d="M309.58-343.24c-0.01-3.23,0.2-6.41,0.62-9.61c-0.36,2.66-0.71,5.32-1.07,7.98c0.82-5.31,2.24-10.4,4.3-15.37
				c-1.01,2.39-2.02,4.78-3.02,7.17c1.49-3.4,3.22-6.67,5.26-9.77c0.47-0.72,1.04-1.4,1.48-2.14c1.66-2.75-4.55,5.29-2.31,2.99
				c1.35-1.39,2.54-2.95,3.92-4.33c1.22-1.23,2.54-2.34,3.81-3.52c3.02-2.82-2.98,2.45-3.02,2.26c-0.04-0.18,1.9-1.37,2.12-1.51
				c3.25-2.22,6.71-4.08,10.3-5.67c-2.39,1.01-4.78,2.02-7.17,3.02c5.39-2.26,10.95-3.77,16.74-4.55c-2.66,0.36-5.32,0.71-7.98,1.07
				c6.39-0.72,12.79-0.55,19.17,0.27c-2.66-0.36-5.32-0.71-7.98-1.07c5.99,0.87,11.78,2.35,17.41,4.6
				c-2.39-1.01-4.78-2.02-7.17-3.02c3.02,1.28,5.94,2.72,8.73,4.45c1.36,0.85,2.63,1.82,3.96,2.7c-8.33-5.5-3.57-2.79-1.53-0.87
				c1.15,1.09,2.19,2.26,3.27,3.4c3.27,3.45-4.97-7.13-1.09-1.4c1.8,2.66,3.28,5.49,4.55,8.43c-1.01-2.39-2.02-4.78-3.02-7.17
				c1.75,4.35,2.9,8.8,3.55,13.44c-0.36-2.66-0.71-5.32-1.07-7.98c1.12,9.69,0.99,19.42,3.37,28.98c2.24,8.98,6.1,18.05,11.16,25.81
				c11.68,17.92,27.97,30.37,47.88,37.87c17.62,6.64,39.36,6.73,57.18,0.8c20.3-6.75,36.53-19.36,48.83-36.74
				c5.71-8.08,9.92-17.76,12.37-27.32c2.76-10.75,2.22-21.44,3.46-32.29c-0.36,2.66-0.71,5.32-1.07,7.98
				c0.64-4.61,1.77-9.02,3.51-13.34c-1.01,2.39-2.02,4.78-3.02,7.17c1.27-2.94,2.74-5.75,4.53-8.4c3.87-5.73-4.36,4.86-1.09,1.4
				c1.08-1.15,2.12-2.32,3.27-3.41c2-1.9,6.81-4.76-1.54,0.85c1.33-0.9,2.6-1.87,3.97-2.73c2.79-1.75,5.72-3.21,8.74-4.51
				c-2.39,1.01-4.78,2.02-7.17,3.02c6.06-2.47,12.32-4.05,18.8-4.94c-2.66,0.36-5.32,0.71-7.98,1.07
				c7.29-0.87,14.58-0.86,21.87,0.07c-2.66-0.36-5.32-0.71-7.98-1.07c5.99,0.87,11.78,2.35,17.41,4.6
				c-2.39-1.01-4.78-2.02-7.17-3.02c3.02,1.28,5.94,2.72,8.73,4.45c1.36,0.85,2.63,1.82,3.96,2.7c-8.33-5.5-3.57-2.79-1.53-0.87
				c1.15,1.09,2.19,2.26,3.27,3.4c3.27,3.45-4.97-7.13-1.09-1.4c1.8,2.66,3.28,5.49,4.55,8.43c-1.01-2.39-2.02-4.78-3.02-7.17
				c1.75,4.35,2.9,8.8,3.55,13.44c-0.36-2.66-0.71-5.32-1.07-7.98c1.1,9.48,0.98,18.95,3.21,28.33c2.1,8.82,5.83,17.67,10.62,25.37
				c10.16,16.33,24.87,29.02,42.55,36.48c35.12,14.82,79.11,6.53,104.17-23.26c14.76-17.54,23.28-38.55,23.25-61.68
				c-0.03-15.69-13.78-30.73-30-30c-17.39,0.78-28.57,13.21-30,30c-0.31,3.65-0.62,7.29-0.93,10.94c20,0,40,0,60,0
				c0.03-2.77,0.21-5.51,0.55-8.26c-0.36,2.66-0.71,5.32-1.07,7.98c0.77-5.33,2.15-10.45,4.17-15.45c-1.01,2.39-2.02,4.78-3.02,7.17
				c1.47-3.42,3.16-6.71,5.19-9.83c0.13-0.19,1.65-2.75,1.84-2.68c0.14,0.05-5.04,6.06-2.3,2.99c1.3-1.46,2.55-2.93,3.93-4.31
				c1.23-1.23,2.52-2.36,3.82-3.51c1.94-1.72,4.58-2.23-2.5,1.88c0.74-0.43,1.42-1.01,2.14-1.48c3.28-2.18,6.76-3.99,10.37-5.54
				c-2.39,1.01-4.78,2.02-7.17,3.02c5-2.02,10.11-3.4,15.45-4.17c-2.66,0.36-5.32,0.71-7.98,1.07c5.52-0.68,10.99-0.68,16.51,0
				c-2.66-0.36-5.32-0.71-7.98-1.07c5.33,0.77,10.45,2.15,15.45,4.17c-2.39-1.01-4.78-2.02-7.17-3.02c3.42,1.47,6.71,3.16,9.83,5.19
				c0.19,0.13,2.75,1.65,2.68,1.84c-0.05,0.14-6.06-5.04-2.99-2.3c1.46,1.3,2.93,2.55,4.31,3.93c1.23,1.23,2.36,2.52,3.51,3.82
				c1.72,1.94,2.23,4.58-1.88-2.5c0.43,0.74,1.01,1.42,1.48,2.14c2.18,3.28,3.99,6.76,5.54,10.37c-1.01-2.39-2.02-4.78-3.02-7.17
				c2.02,5,3.4,10.11,4.17,15.45c-0.36-2.66-0.71-5.32-1.07-7.98c1.21,9.86,0.78,19.61,3.12,29.41c1.97,8.27,5.53,16.74,10.39,23.73
				c11.63,16.73,27.62,28.17,47.03,34.35c34.14,10.87,79.29,3.36,103.19-24.99c7.74-9.18,13.55-19.03,16.94-30.65
				c3.05-10.47,2.46-21.19,3.76-31.85c-0.36,2.66-0.71,5.32-1.07,7.98c0.77-5.33,2.15-10.45,4.17-15.45
				c-1.01,2.39-2.02,4.78-3.02,7.17c1.47-3.42,3.16-6.71,5.19-9.83c0.13-0.19,1.65-2.75,1.84-2.68c0.14,0.05-5.04,6.06-2.3,2.99
				c1.3-1.46,2.55-2.93,3.93-4.31c1.23-1.23,2.52-2.36,3.82-3.51c1.94-1.72,4.58-2.23-2.5,1.88c0.74-0.43,1.42-1.01,2.14-1.48
				c3.28-2.18,6.76-3.99,10.37-5.54c-2.39,1.01-4.78,2.02-7.17,3.02c5-2.02,10.11-3.4,15.45-4.17c-2.66,0.36-5.32,0.71-7.98,1.07
				c5.52-0.68,10.99-0.68,16.51,0c-2.66-0.36-5.32-0.71-7.98-1.07c5.33,0.77,10.45,2.15,15.45,4.17c-2.39-1.01-4.78-2.02-7.17-3.02
				c3.42,1.47,6.71,3.16,9.83,5.19c0.19,0.13,2.75,1.65,2.68,1.84c-0.05,0.14-6.06-5.04-2.99-2.3c1.46,1.3,2.93,2.55,4.31,3.93
				c1.23,1.23,2.36,2.52,3.51,3.82c1.72,1.94,2.23,4.58-1.88-2.5c0.43,0.74,1.01,1.42,1.48,2.14c2.18,3.28,3.99,6.76,5.54,10.37
				c-1.01-2.39-2.02-4.78-3.02-7.17c2.02,5,3.4,10.11,4.17,15.45c-0.36-2.66-0.71-5.32-1.07-7.98c1.16,9.45,0.83,18.73,2.84,28.17
				c1.78,8.34,5.31,16.88,10.01,24c11.02,16.72,26.6,27.78,45.29,34.51c34.64,12.48,77.6,3.49,102-24.76
				c15-17.37,23.5-38.42,23.76-61.5c0.17-15.7-13.92-30.72-30-30c-16.4,0.73-29.81,13.18-30,30c-0.03,2.77-0.21,5.51-0.55,8.26
				c0.36-2.66,0.71-5.32,1.07-7.98c-0.77,5.33-2.15,10.45-4.17,15.45c1.01-2.39,2.02-4.78,3.02-7.17c-1.47,3.42-3.16,6.71-5.19,9.83
				c-0.13,0.19-1.65,2.75-1.84,2.68c-0.14-0.05,5.04-6.06,2.3-2.99c-1.3,1.46-2.55,2.93-3.93,4.31c-1.23,1.23-2.52,2.36-3.82,3.51
				c-1.94,1.72-4.58,2.23,2.5-1.88c-0.74,0.43-1.42,1.01-2.14,1.48c-3.28,2.18-6.76,3.99-10.37,5.54c2.39-1.01,4.78-2.02,7.17-3.02
				c-5,2.02-10.11,3.4-15.45,4.17c2.66-0.36,5.32-0.71,7.98-1.07c-6.4,0.78-12.8,0.63-19.19-0.16c2.66,0.36,5.32,0.71,7.98,1.07
				c-6.44-0.9-12.66-2.51-18.67-5.01c2.39,1.01,4.78,2.02,7.17,3.02c-3-1.32-5.91-2.8-8.67-4.56c-2.41-1.54-6.05-5.5,1.21,1.2
				c-1.02-0.94-2.12-1.78-3.12-2.73c-1-0.95-1.96-1.93-2.88-2.96c-4.6-5.15,3.61,5.46,1.04,1.45c-1.74-2.71-3.32-5.4-4.64-8.34
				c1.01,2.39,2.02,4.78,3.02,7.17c-1.79-4.29-2.98-8.7-3.68-13.3c0.36,2.66,0.71,5.32,1.07,7.98c-1.26-9.93-0.9-19.76-3.12-29.66
				c-1.98-8.86-5.7-17.7-10.39-25.46c-11.04-18.25-27.46-30.97-47.03-38.87c-17.82-7.19-39.43-7.63-57.75-2.02
				c-20.37,6.24-36.96,18.89-49.37,36.02c-5.95,8.22-10.36,17.95-13.01,27.72c-2.89,10.66-2.4,21.47-3.76,32.26
				c0.36-2.66,0.71-5.32,1.07-7.98c-0.69,4.6-1.89,9-3.68,13.3c1.01-2.39,2.02-4.78,3.02-7.17c-1.32,2.94-2.9,5.64-4.64,8.34
				c-2.57,4.01,5.64-6.6,1.04-1.45c-0.92,1.03-1.88,2.01-2.88,2.96c-1.01,0.95-2.11,1.8-3.12,2.73c7.26-6.7,3.62-2.74,1.21-1.2
				c-2.76,1.76-5.67,3.24-8.67,4.56c2.39-1.01,4.78-2.02,7.17-3.02c-6.01,2.5-12.23,4.11-18.67,5.01c2.66-0.36,5.32-0.71,7.98-1.07
				c-7.29,0.9-14.59,0.9-21.88,0c2.66,0.36,5.32,0.71,7.98,1.07c-6.44-0.9-12.66-2.51-18.67-5.01c2.39,1.01,4.78,2.02,7.17,3.02
				c-3-1.32-5.91-2.8-8.67-4.56c-2.41-1.54-6.05-5.5,1.21,1.2c-1.02-0.94-2.12-1.78-3.12-2.73c-1-0.95-1.96-1.93-2.88-2.96
				c-4.6-5.15,3.61,5.46,1.04,1.45c-1.74-2.71-3.32-5.4-4.64-8.34c1.01,2.39,2.02,4.78,3.02,7.17c-1.79-4.29-2.98-8.7-3.68-13.3
				c0.36,2.66,0.71,5.32,1.07,7.98c-1.2-9.5-0.91-18.84-2.84-28.35c-1.81-8.91-5.48-17.81-10.01-25.65
				c-8.89-15.42-23.06-29.05-39.32-36.45c-19.66-8.94-40.41-11.51-61.61-6.76c-17.34,3.88-34.73,14.14-46.36,27.6
				c-15,17.37-23.5,38.42-23.76,61.5c-0.17,15.7,13.92,30.72,30,30c17.39-0.78,28.57-13.21,30-30c0.31-3.65,0.62-7.29,0.93-10.94
				c-20,0-40,0-60,0c0.01,3.23-0.2,6.41-0.62,9.61c0.36-2.66,0.71-5.32,1.07-7.98c-0.82,5.31-2.24,10.4-4.3,15.37
				c1.01-2.39,2.02-4.78,3.02-7.17c-1.49,3.4-3.22,6.67-5.26,9.77c-0.47,0.72-1.04,1.4-1.48,2.14c-1.66,2.75,4.55-5.29,2.31-2.99
				c-1.35,1.39-2.54,2.95-3.92,4.33c-1.22,1.23-2.54,2.34-3.81,3.52c-3.02,2.82,2.98-2.45,3.02-2.26c0.04,0.18-1.9,1.37-2.12,1.51
				c-3.25,2.22-6.71,4.08-10.3,5.67c2.39-1.01,4.78-2.02,7.17-3.02c-5.39,2.26-10.95,3.77-16.74,4.55c2.66-0.36,5.32-0.71,7.98-1.07
				c-5.52,0.62-11,0.58-16.51-0.15c2.66,0.36,5.32,0.71,7.98,1.07c-5.31-0.82-10.4-2.24-15.37-4.3c2.39,1.01,4.78,2.02,7.17,3.02
				c-3.4-1.49-6.67-3.22-9.77-5.26c-0.72-0.47-1.4-1.04-2.14-1.48c-2.75-1.66,5.29,4.55,2.99,2.31c-1.39-1.35-2.95-2.54-4.33-3.92
				c-1.23-1.22-2.34-2.54-3.52-3.81c-2.82-3.02,2.45,2.98,2.26,3.02c-0.18,0.04-1.37-1.9-1.51-2.12c-2.22-3.25-4.08-6.71-5.67-10.3
				c1.01,2.39,2.02,4.78,3.02,7.17c-2.26-5.39-3.77-10.95-4.55-16.74c0.36,2.66,0.71,5.32,1.07,7.98
				c-1.11-9.78-0.86-19.65-3.53-29.25c-2.28-8.19-5.92-16.49-10.97-23.37c-12.03-16.38-28.18-27.8-47.82-33.39
				c-36.33-10.33-80.72-0.94-104.46,29.79c-6.58,8.52-11.67,17.94-14.32,28.49c-2.67,10.64-1.9,21.3-3.32,32.01
				c0.36-2.66,0.71-5.32,1.07-7.98c-0.82,5.31-2.24,10.4-4.3,15.37c1.01-2.39,2.02-4.78,3.02-7.17c-1.49,3.4-3.22,6.67-5.26,9.77
				c-0.47,0.72-1.04,1.4-1.48,2.14c-1.66,2.75,4.55-5.29,2.31-2.99c-1.35,1.39-2.54,2.95-3.92,4.33c-1.22,1.23-2.54,2.34-3.81,3.52
				c-3.02,2.82,2.98-2.45,3.02-2.26c0.04,0.18-1.9,1.37-2.12,1.51c-3.25,2.22-6.71,4.08-10.3,5.67c2.39-1.01,4.78-2.02,7.17-3.02
				c-5.39,2.26-10.95,3.77-16.74,4.55c2.66-0.36,5.32-0.71,7.98-1.07c-5.52,0.62-11,0.58-16.51-0.15c2.66,0.36,5.32,0.71,7.98,1.07
				c-5.31-0.82-10.4-2.24-15.37-4.3c2.39,1.01,4.78,2.02,7.17,3.02c-3.4-1.49-6.67-3.22-9.77-5.26c-0.72-0.47-1.4-1.04-2.14-1.48
				c-2.75-1.66,5.29,4.55,2.99,2.31c-1.39-1.35-2.95-2.54-4.33-3.92c-1.23-1.22-2.34-2.54-3.52-3.81c-2.82-3.02,2.45,2.98,2.26,3.02
				c-0.18,0.04-1.37-1.9-1.51-2.12c-2.22-3.25-4.08-6.71-5.67-10.3c1.01,2.39,2.02,4.78,3.02,7.17c-2.26-5.39-3.77-10.95-4.55-16.74
				c0.36,2.66,0.71,5.32,1.07,7.98c-1.06-9.38-0.87-18.77-3.21-28.03c-2.07-8.21-5.65-16.71-10.6-23.64
				c-11.54-16.15-26.66-27.08-45.48-33.39c-34.65-11.63-77.2-2.6-101.17,25.89c-14.76,17.54-23.28,38.55-23.25,61.68
				c0.03,15.69,13.78,30.73,30,30C295.81-313.97,309.6-326.42,309.58-343.24L309.58-343.24z"/>
		</g>
	</g>
	<polygon class="st2" points="-773.65,-486.94 174.26,-486.94 174.26,-293.64 68.55,-249.04 -4.13,-384.49 -174.27,-283.73 
		-280.81,-404.31 -404.99,-279.18 -545.93,-420.83 -652.52,-251.98 	"/>
</g>
<g id="blue">
	<g>
		<g>
			<path class="st3" d="M1858.79-10.35c0.01,4.09-0.1,8.16-0.49,12.24c0.47-4.91,0.01-0.07-0.18,0.85c-0.4,1.9-0.76,3.8-1.24,5.68
				c-0.92,3.67-2.06,7.27-3.37,10.81c1.78-4.81,0.26-0.58-0.24,0.39c-1.24,2.38-2.45,4.73-3.85,7.01c-0.91,1.48-1.89,2.91-2.87,4.35
				c0.73-1.06,3.74-3.95-0.04-0.08c-2.32,2.36-4.55,4.71-7.04,6.9c4.7-4.13-2.06,0.88-3.76,2c-4.3,2.81-0.52,0.29,0.79-0.15
				c-2.23,0.74-4.43,1.3-6.68,1.96c-2.47,0.72-4.04-0.59,1.04-0.09c-1.49-0.14-3.26,0.12-4.73,0.1c-1.56-0.03-3.11-0.19-4.67-0.26
				c1.1,0.05,6.42,1.42,1.16,0.07c-2.94-0.75-5.78-1.57-8.67-2.48c1.12,0.35,5.47,3.02,1.03,0.33c-1.59-0.96-3.24-1.84-4.83-2.79
				c-0.9-0.54-4.6-3.52-1.5-0.94c3.14,2.62-0.56-0.64-1.24-1.35c-1.01-1.07-2.01-2.43-3.17-3.32c-3.07-2.34,2.16,4.07,0.36,0.55
				c-1.31-2.55-3.24-6.05-4.92-8.36c-2.44-3.33,1.2,4.28,0.03,0.17c-0.61-2.11-1.44-4.16-2.02-6.29c-0.35-1.28-2.13-11.61-1.5-5.86
				c-0.44-4.05-0.43-8.11-0.65-12.17c-0.55-10.55-1.98-21.33-4.86-31.51c-5.06-17.88-14.22-34.78-27-48.32
				c-25.06-26.55-63.69-34.28-96.48-18c-33.94,16.85-50.96,54.78-54.4,90.77c-0.77,8.07-0.18,16.17-0.99,24.23
				c0.59-5.89-1.06,4.23-1.43,5.62c-0.46,1.68-1.06,3.32-1.55,4.99c-1.5,5.18,1.41-1.45-0.39,0.93c-1.71,2.26-3.54,5.73-4.9,8.24
				c-1.88,3.46,3.48-2.88,0.37-0.62c-1.16,0.84-2.16,2.23-3.17,3.28c-0.69,0.72-4.43,3.88-1.24,1.31c3.16-2.54-0.62,0.38-1.51,0.91
				c-1.28,0.75-2.58,1.49-3.86,2.24c-0.98,0.54-1.98,1.03-3,1.49c3.4-1.39,4.05-1.71,1.96-0.96c-2.6,0.35-6.26,1.5-8.78,2.29
				c-3.87,1.22,5.14,0.26,1.07-0.21c-1.51-0.17-3.18,0.17-4.72,0.16c-1.54,0-3.18-0.33-4.69-0.17c-4.07,0.42,4.96,1.46,1.12,0.19
				c-3.09-1.03-6.62-1.87-9.79-2.69c6.6,1.7-0.48-0.39-2.86-1.85c-1.28-0.79-2.47-1.66-3.72-2.49c5.26,3.54,1.91,1.57,0.85,0.39
				c-1.42-1.59-6.64-7.81-2.95-2.58c-2.35-3.33-4.33-6.8-6.15-10.44c2.82,5.63-0.95-3.24-1.44-5c-0.51-1.86-2.11-11.1-1.5-5.86
				c-1.19-10.28-1.13-20.46-2.75-30.75c-2.69-17.09-9.29-34.2-19.37-48.32c-24.79-34.71-67.22-50.34-106.87-30.94
				c-37.61,18.41-54.99,63.36-54.89,103.01c0.04,15.69,13.77,30.73,30,30c17.03-0.76,29.03-13.19,30-30
				c0.28-4.78,0.55-9.57,0.83-14.35c-20,0-40,0-60,0c-0.03,4.08-0.12,8.17-0.61,12.23c0.57-4.77-1.07,4.6-1.56,6.49
				c-0.95,3.64-2.08,7.26-3.47,10.75c1.94-4.86,0.18-0.57-0.31,0.33c-1.29,2.34-2.49,4.68-3.92,6.95c-0.92,1.46-1.89,2.91-2.91,4.3
				c0.83-1.14,3.67-3.78-0.1-0.16c-2.38,2.28-4.54,4.69-7.11,6.78c4.92-4.01-2.12,0.8-3.82,1.83c-4.55,2.75-0.42,0.08,0.77-0.25
				c-2.23,0.63-4.47,1.22-6.7,1.84c1.15-0.32,6.52-0.18,1.03-0.21c-1.56-0.01-3.19-0.04-4.73,0c-2.47,0.07-4.02-1.59,1.01,0.21
				c-1.27-0.46-3.26-0.89-4.51-1.12c-1.48-0.27-5.11-2.24,0.63,0.56c-1.42-0.69-2.81-1.36-4.19-2.14c-1.39-0.78-2.68-1.69-4.04-2.52
				c3.43,2.07,1.68,1.56-0.59-0.59c-1.2-1.14-2.37-2.31-3.56-3.47c-0.61-0.59-4.15-4.57-1.8-1.77c2.37,2.82-1.02-1.44-1.5-2.18
				c-0.97-1.48-1.91-2.97-2.8-4.5c-0.9-1.56-1.75-3.14-2.56-4.76c-0.35-0.71-2.54-5.93-1.29-2.72c1.27,3.28-0.68-2.3-0.92-3.02
				c-0.73-2.29-1.4-4.59-1.96-6.93c-0.28-1.16-1.8-11.98-1.37-6.69c-0.33-4.11-0.35-8.2-0.53-12.31
				c-0.44-10.16-1.72-20.65-4.62-30.42c-4.83-16.26-13.79-32.44-26.63-43.76c-24.41-21.53-60.29-29.87-91.27-18.16
				c-36.27,13.71-56.19,45.83-60.16,83.48c-0.85,8.06-0.3,16.16-1.22,24.21c0.63-5.48-1.27,5.38-1.56,6.49
				c-0.47,1.84-1.01,3.67-1.59,5.48c-0.22,0.67-2.89,7.53-1.45,4.22c1.4-3.22-1,1.87-1.37,2.58c-0.82,1.57-1.69,3.12-2.61,4.63
				c-0.91,1.49-1.89,2.92-2.85,4.37c-2.5,3.74,3.03-3.24-0.02-0.05c-2.26,2.37-4.78,4.57-7.01,6.94c-2.55,2.72,3.81-1.31,0.32-0.37
				c-1.68,0.45-4.72,2.41-6.12,3.5c-2.91,2.26,4.35-0.65,0.71-0.41c-1.27,0.09-3.33,0.65-4.46,1.23c-3.4,1.74,4.94,0.29,1.07-0.04
				c-1.52-0.13-3.18,0.09-4.72,0.12c-1.22,0.02-5.91-0.97-1.85-0.01c4.18,0.99-0.71-0.34-1.71-0.62c-0.94-0.26-5.73-1.77-1.91-0.39
				c4.03,1.46-1.95-1.04-2.77-1.5c-1.34-0.76-2.66-1.81-4.04-2.52c4.41,2.25,1.81,1.66,0.33,0.24c-2.42-2.31-4.75-4.62-7.01-7.1
				c3.9,4.27-1.79-2.66-2.88-4.49c-0.92-1.53-1.8-3.11-2.62-4.7c-0.32-0.62-3.36-8.37-1.44-2.94c-1.27-3.61-2.43-7.23-3.34-10.95
				c-0.46-1.9-0.84-3.83-1.22-5.75c-0.18-0.91-0.57-5.75-0.15-0.94c-0.89-10.29-0.92-20.33-2.52-30.6
				c-2.8-17.94-10.57-34.48-22.15-48.39c-24.88-29.9-68.62-38.8-103.43-22.25c-37.82,17.98-55.35,62.75-55.64,102.33
				c-0.11,14.96,11.5,27.51,26.01,29.46c13.49,1.81,30.41-6.75,32.92-21.49c1.97-11.6,3.94-23.2,5.91-34.8
				c-19.64-2.66-39.29-5.32-58.93-7.98c0.09,4.1-0.01,8.16-0.26,12.25c-0.38,6.13-0.26,2.24-0.02,0.87
				c-0.33,1.91-0.69,3.82-1.13,5.71c-0.85,3.7-2.03,7.26-3.17,10.87c-1.73,5.51-0.69,1.66-0.1,0.45c-1.17,2.41-2.36,4.78-3.72,7.09
				c-1.07,1.83-6.69,8.83-2.72,4.41c-2.21,2.47-4.53,4.73-6.91,7.03c0.83-0.8,5-3.09,0.38-0.3c-1.3,0.78-2.8,1.61-4.01,2.48
				c-3.99,2.86-0.6,0.53,0.85-0.03c-2.2,0.85-4.42,1.33-6.64,2.08c-1.99,0.67-4.91-0.04,1.05,0.04c-1.57-0.02-3.16,0.18-4.73,0.18
				c-3.09,0-10.15-2.11-3.53,0.03c-2.82-0.91-5.85-1.49-8.71-2.31c-2.22-0.64-3.44-2.53,0.98,0.45c-1.51-1.02-3.3-1.81-4.88-2.7
				c-0.87-0.49-4.84-3.27-1.57-0.86c3.27,2.41-0.58-0.55-1.31-1.27c-0.93-0.93-6.56-7.45-4.6-4.73c1.97,2.72-2.84-5.01-3.46-6.15
				c-0.44-0.8-2.43-5.64-1.11-2.18c1.42,3.73-0.92-3.12-1.13-3.84c-1.04-3.56-1.9-7.22-2.42-10.89c0.73,5.14,0.13,0.02,0.1-0.89
				c-0.06-2.05-0.16-4.14-0.31-6.19c-0.75-10.54-2.22-21.3-5.3-31.43c-5.38-17.73-14.63-34.66-27.65-47.95
				c-25.48-26.01-64.06-33.69-96.72-16.87c-33.69,17.35-50.26,55.43-53.17,91.5c-0.65,8.07-0.03,16.16-0.54,24.25
				c-0.08,1.27-1.14,5.71-0.04,0.4c-0.37,1.77-0.7,3.52-1.14,5.27c-0.42,1.69-1.05,3.34-1.45,5.02c-1.27,5.28,1.35-1.61-0.24,0.99
				c-1.5,2.45-3.62,5.71-4.75,8.33c-1.54,3.6,3.38-3.07,0.47-0.54c-1.12,0.98-2.04,2.28-3.11,3.34c-1.06,1.05-2.31,1.96-3.32,3.05
				c-2.64,2.83,4.27-2.03,0.7-0.67c-1.3,0.5-2.62,1.56-3.82,2.31c-5.41,3.42,0.92,0.27-0.98,0.68c-2.58,0.57-6.3,1.46-8.74,2.45
				c-3.74,1.53,5.21,0.05,1.09-0.08c-1.55-0.05-3.15,0.22-4.71,0.25c-1.57,0.03-3.13-0.05-4.69-0.08c-1.23-0.03-5.86-1.08-1.74-0.07
				c4.22,1.03-0.59-0.23-1.6-0.52c-1.79-0.53-3.59-1.08-5.39-1.59c-5.1-1.45,0.04-0.1,0.98,0.45c-1.29-0.74-2.65-1.36-3.93-2.11
				c-1.27-0.75-2.47-1.71-3.76-2.42c4.89,2.72,2.18,1.93,0.77,0.48c-2.16-2.21-4.34-4.31-6.35-6.66c3.99,4.66,1.18,1.58,0.51,0.31
				c-1.12-2.14-2.45-4.29-3.62-6.41c-0.68-1.22-1.77-5.08,0,0.12c-0.57-1.68-1.16-3.33-1.66-5.04c-1.05-3.56-1.88-7.22-2.42-10.89
				c0.84,5.72-0.13-5.98-0.21-7.07c-0.43-6.2-1.28-12.42-2.3-18.55c-2.84-17.05-9.91-34.06-20.14-48
				c-25.16-34.3-67.84-49.66-107.24-29.7c-37.28,18.89-54.28,64.11-53.44,103.75c0.33,15.68,13.56,30.74,30,30
				c16.78-0.75,29.35-13.18,30-30c0.19-4.79,0.37-9.58,0.56-14.36c-20,0-40,0-60,0c0.05,4.1-0.06,8.16-0.38,12.24
				c-0.5,6.28-0.36,2.13-0.1,0.85c-0.38,1.9-0.73,3.8-1.18,5.69c-0.88,3.68-2.03,7.25-3.27,10.82c1.67-4.8,0.35-0.64-0.17,0.39
				c-1.2,2.38-2.41,4.73-3.79,7.02c-0.9,1.49-1.88,2.91-2.83,4.35c0.68-1.02,3.79-4.05,0.01-0.07c-2.28,2.39-4.52,4.7-6.98,6.91
				c4.63-4.17-1.97,0.86-3.7,2.01c-4.24,2.82-0.52,0.32,0.82-0.13c-2.22,0.75-4.42,1.3-6.66,1.97c-2.45,0.73-4.07-0.56,1.04-0.08
				c-1.36-0.13-3.45,0-4.73,0.09c-2,0.14-4.99-1.26,1,0.34c-1.5-0.4-3.03-0.62-4.53-1.04c-1.5-0.42-2.96-0.94-4.42-1.46
				c1.38,0.49,4.97,2.91,0.77,0.08c-1.25-0.85-2.79-1.72-4.08-2.44c-4.58-2.55,1.27,1.95-0.68-0.46c-2.02-2.49-4.86-4.74-7.05-7.13
				c-3.02-3.29,2.46,3.72-0.06-0.07c-0.98-1.48-1.97-2.93-2.88-4.45c-0.93-1.54-1.81-3.11-2.64-4.71c-0.36-0.68-2.8-5.84-1.41-2.67
				c1.4,3.21-0.79-2.25-1.04-2.97c-0.78-2.27-1.48-4.57-2.09-6.89c-0.27-1.05-2.32-12.02-1.64-6.64c-0.51-4.09-0.51-8.19-0.76-12.3
				c-0.63-10.17-1.95-20.61-5.04-30.35c-5.19-16.32-14.17-32.07-27.2-43.4c-24.67-21.47-60.6-28.93-91.45-16.99
				c-36.1,13.96-55.69,46.6-59.13,84.18c-0.74,8.06-0.18,16.16-0.77,24.23c-0.07,1.01-1.05,5.77-0.1,0.85
				c-0.36,1.9-0.73,3.8-1.18,5.69c-0.44,1.85-0.94,3.69-1.49,5.51c-0.2,0.66-2.61,7.66-1.3,4.27c1.26-3.26-0.89,1.9-1.25,2.63
				c-0.79,1.59-1.63,3.15-2.53,4.68c-0.88,1.5-1.88,2.93-2.77,4.42c-2.31,3.85,2.99-3.29,0.1,0.03c-2.09,2.4-4.96,4.58-6.88,7.07
				c-2.3,3,3.85-1.66,0.41-0.26c-1.64,0.67-4.81,2.38-6.05,3.61c-2.53,2.51,4.31-0.84,0.76-0.28c-1.47,0.23-3,0.9-4.44,1.31
				c-1.2,0.34-5.86,0.54-1.75,0.46c4.3-0.09-0.84-0.15-1.88-0.16c-1.05-0.02-6.16-0.31-1.86,0.1c4.23,0.41-0.65-0.19-1.73-0.51
				c-1.45-0.44-2.97-1.08-4.45-1.35c-2.97-0.56,4.07,2.65-0.32-0.31c-1.61-1.09-8.53-6.2-3.84-2.09c-2.52-2.21-4.78-4.6-7.14-6.97
				c-3.79-3.78-0.92-1.08-0.14,0.03c-1.01-1.44-2.01-2.89-2.94-4.38c-0.95-1.52-1.86-3.07-2.71-4.65c-0.24-0.45-3.85-8.35-1.62-2.86
				c-1.43-3.53-2.57-7.2-3.54-10.88c-0.5-1.9-0.87-3.82-1.32-5.72c-0.19-0.81-0.96-5.8-0.32-0.92c-1.33-10.2-1.21-20.36-2.95-30.56
				c-3.04-17.81-11.09-34.41-22.8-48.12c-25.21-29.49-69.21-38-103.75-20.99c-37.48,18.46-54.66,63.52-54.2,103.08
				c0.18,15.69,13.67,30.73,30,30c16.1-0.72,30.2-13.19,30-30c-0.05-4.1,0.06-8.16,0.38-12.24c0.5-6.28,0.36-2.13,0.1-0.85
				c0.38-1.9,0.73-3.8,1.18-5.69c0.88-3.68,2.03-7.25,3.27-10.82c-1.67,4.8-0.35,0.64,0.17-0.39c1.2-2.38,2.41-4.73,3.79-7.02
				c0.9-1.49,1.88-2.91,2.83-4.35c-0.68,1.02-3.79,4.05-0.01,0.07c2.28-2.39,4.52-4.7,6.98-6.91c-4.63,4.17,1.97-0.86,3.7-2.01
				c4.24-2.82,0.52-0.32-0.82,0.13c2.22-0.75,4.42-1.3,6.66-1.97c2.42-0.72,4.14,0.53-1.04,0.08c1.5,0.13,3.24-0.13,4.73-0.11
				c1.56,0.02,3.11,0.19,4.67,0.25c-1.09-0.04-6.44-1.41-1.15-0.08c2.94,0.74,5.79,1.57,8.69,2.46c-1.1-0.34-5.5-3.01-1.01-0.34
				c1.6,0.95,3.25,1.83,4.86,2.78c0.88,0.52,4.67,3.47,1.54,0.93c-3.17-2.56,0.59,0.63,1.27,1.35c1.02,1.06,2.03,2.47,3.2,3.31
				c3.14,2.25-2.24-4.02-0.31-0.56c1.4,2.5,3.23,6.13,5,8.34c2.56,3.2-1.27-4.22,0.04-0.18c0.68,2.1,1.47,4.16,2.07,6.28
				c0.34,1.23,2.39,11.63,1.62,5.85c0.54,4.04,0.51,8.11,0.76,12.17c0.65,10.56,2.1,21.32,5.07,31.5
				c5.23,17.86,14.43,34.78,27.32,48.28c25.2,26.39,63.79,34.28,96.61,17.87c33.89-16.94,50.55-54.88,53.82-90.84
				c0.73-8.07,0.15-16.16,0.77-24.23c-0.45,5.85,0.93-4.16,1.31-5.63c0.44-1.68,1.05-3.32,1.5-4.99c1.4-5.22-1.4,1.53,0.32-0.93
				c1.63-2.35,3.55-5.69,4.83-8.25c1.75-3.51-3.46,2.95-0.42,0.61c1.14-0.88,2.13-2.22,3.14-3.28c0.68-0.72,4.37-3.95,1.21-1.32
				c-3.12,2.59,0.58-0.38,1.48-0.91c1.27-0.76,2.57-1.49,3.84-2.25c0.98-0.54,1.97-1.04,2.99-1.49c-3.41,1.39-4.07,1.7-1.97,0.95
				c2.6-0.38,6.25-1.49,8.76-2.31c3.85-1.26-5.16-0.24-1.08,0.19c1.52,0.16,3.17-0.17,4.72-0.17c1.53,0,3.19,0.33,4.69,0.16
				c4.06-0.46-4.97-1.44-1.11-0.21c3.11,1,6.64,1.89,9.82,2.66c-6.52-1.59,0.46,0.34,2.9,1.83c1.29,0.78,2.48,1.67,3.74,2.48
				c-5.17-3.33-1.95-1.64-0.81-0.4c1.4,1.53,6.83,7.75,3.03,2.56c2.42,3.3,4.35,6.82,6.25,10.43c-2.89-5.5,1.03,3.18,1.55,4.99
				c0.51,1.81,2.35,11.1,1.62,5.85c1.41,10.23,1.27,20.49,2.95,30.74c2.81,17.1,9.59,34.19,19.74,48.27
				c24.93,34.56,67.41,50.33,107.07,30.8c37.48-18.46,54.66-63.52,54.2-103.08c-0.18-15.69-13.67-30.73-30-30
				c-16.78,0.75-29.35,13.18-30,30c-0.19,4.79-0.37,9.58-0.56,14.36c20,0,40,0,60,0c-0.09-4.1,0.01-8.16,0.26-12.25
				c0.38-6.13,0.26-2.24,0.02-0.87c0.33-1.91,0.69-3.82,1.13-5.71c0.85-3.7,2.03-7.26,3.17-10.87c1.73-5.51,0.69-1.66,0.1-0.45
				c1.17-2.41,2.36-4.78,3.72-7.09c1.07-1.83,6.69-8.83,2.72-4.41c2.21-2.47,4.53-4.73,6.91-7.03c-0.83,0.8-5,3.09-0.38,0.3
				c1.3-0.78,2.8-1.61,4.01-2.48c3.99-2.86,0.6-0.53-0.85,0.03c2.2-0.85,4.42-1.33,6.64-2.08c2.02-0.68,4.86,0.08-1.05-0.04
				c1.44,0.03,3.35-0.02,4.73-0.17c1.6-0.17,5.78,0.83-0.99-0.46c1.53,0.29,3.03,0.57,4.54,0.96c1.5,0.39,2.95,0.92,4.43,1.39
				c-1.26-0.39-5.19-2.97-0.75-0.19c1.28,0.8,2.79,1.7,4.11,2.37c4.69,2.41-1.43-1.95,0.73,0.35c2.25,2.4,4.81,4.65,7.11,7.01
				c3.11,3.19-2.49-3.72,0.11,0c1.01,1.45,2,2.9,2.93,4.4c1.91,3.08,3.62,6.28,5.13,9.58c1.96,4.3-1.32-3.96,0.13,0.64
				c0.72,2.29,1.52,4.54,2.15,6.86c1.03,3.79,1.95,7.68,2.45,11.58c-0.62-4.86-0.11,0.35-0.09,1.12c0.06,2.05,0.16,4.14,0.31,6.19
				c0.73,10.14,2.07,20.58,5.26,30.29c5.36,16.28,14.32,31.87,27.48,43.08c24.96,21.26,60.73,28.21,91.52,15.96
				c36.05-14.35,55.33-47.09,58.58-84.81c0.7-8.06,0.11-16.17,0.54-24.25c0.05-0.95,0.85-5.87,0.02-0.87
				c0.32-1.91,0.7-3.82,1.13-5.71c0.94-4.14,2.21-8.18,3.65-12.17c1.62-4.46-1.94,3.77,0.2-0.36c0.82-1.58,1.6-3.17,2.48-4.72
				c0.86-1.52,1.8-2.99,2.73-4.47c0.47-0.75,3.78-5.02,1.42-2.13c-1.89,2.31,4.62-4.24,5.23-5.16c2.11-3.19-3.8,1.95-0.45,0.17
				c1.59-0.85,4.9-2.38,6.02-3.71c2.23-2.67-4.25,0.99-0.79,0.18c1.48-0.35,2.97-0.93,4.43-1.39c1.02-0.32,5.97-1.14,1.73-0.55
				c-4.25,0.59,0.8,0.1,1.88,0.07c1.05-0.04,6.14-0.3,1.86-0.2c-4.04,0.1,0.45,0.06,1.74,0.42c1.43,0.39,3,1.12,4.46,1.28
				c2.96,0.33-4.12-2.61,0.35,0.19c1.62,1.01,8.8,5.92,3.9,1.93c2.59,2.11,4.78,4.57,7.21,6.85c3.76,3.53,1.08,1.07,0.19-0.11
				c1.05,1.4,2.04,2.86,2.98,4.33c2.43,3.8,4.66,7.81,6.41,11.97c-2.21-5.26,1.41,5.13,1.71,6.23c1.04,3.78,1.93,7.68,2.45,11.58
				c-0.71-5.35,0.15,6.32,0.22,7.31c0.42,6.1,1.24,12.23,2.29,18.25c3.07,17.74,11.41,34.31,23.13,47.87
				c25.34,29.29,69.68,37.2,103.89,19.87c37.28-18.89,54.28-64.11,53.44-103.75c-0.32-14.99-11.17-27.47-26.01-29.46
				c-13.49-1.81-30.41,6.75-32.92,21.49c-1.97,11.6-3.94,23.2-5.91,34.8c19.64,2.66,39.29,5.32,58.93,7.98
				c0.03-4.08,0.12-8.17,0.61-12.23c-0.57,4.77,1.07-4.6,1.56-6.49c0.95-3.64,2.08-7.26,3.47-10.75c-1.94,4.86-0.18,0.57,0.31-0.33
				c1.29-2.34,2.49-4.68,3.92-6.95c0.92-1.46,1.89-2.91,2.91-4.3c-0.83,1.14-3.67,3.78,0.1,0.16c2.38-2.28,4.54-4.69,7.11-6.78
				c-4.92,4.01,2.12-0.8,3.82-1.83c4.55-2.75,0.42-0.08-0.77,0.25c2.23-0.63,4.47-1.22,6.7-1.84c-1.14,0.32-6.53,0.2-1.03,0.21
				c1.59,0,3.14-0.07,4.73-0.02c1.56,0.05,3.11,0.2,4.66,0.33c-1.2-0.11-6.27-1.44-1.17,0.05c2.91,0.85,5.79,1.58,8.65,2.62
				c-6.7-2.43,1.71,1.85,3.75,2.64c3.57,1.39-3.31-3.48-0.68-0.63c1.02,1.1,2.28,2.01,3.35,3.08c1.08,1.07,2,2.39,3.14,3.37
				c2.93,2.53-2-4.09-0.41-0.48c1.15,2.62,3.28,6.02,4.84,8.44c2.27,3.51-1.11-4.31-0.09-0.12c0.52,2.13,1.4,4.19,1.95,6.32
				c0.35,1.34,1.85,11.6,1.36,5.9c0.35,4.06,0.35,8.11,0.53,12.18c0.45,10.55,1.85,21.36,4.63,31.57c4.9,18,14.03,34.9,26.66,48.64
				c24.77,26.93,63.4,34.87,96.35,19c34.09-16.42,51.34-54.23,55.02-90.1c0.83-8.05,0.22-16.18,1.22-24.21
				c-0.74,5.94,1.19-4.24,1.57-5.58c0.47-1.68,1.07-3.3,1.6-4.97c-1.23,3.86-0.91,1.69,0.47-0.87c0.6-1.11,5.37-8.87,3.35-6.04
				c-2,2.8,3.59-3.73,4.52-4.65c0.74-0.73,4.56-3.65,1.28-1.24c-3.3,2.42,0.67-0.34,1.54-0.83c1.24-0.69,2.79-1.29,3.88-2.17
				c1.99-0.98,1.29-0.73-2.09,0.73c1.04-0.42,2.1-0.79,3.17-1.12c1.45-0.4,2.9-0.81,4.34-1.23c1.01-0.29,5.84-1.5,1.62-0.52
				c-4.14,0.96,0.58-0.04,1.78-0.07c1.57-0.04,3.14-0.11,4.72-0.08c1.56,0.03,3.14,0.29,4.69,0.25c4.1-0.12-4.86-1.62-1.13-0.08
				c3,1.24,6.65,1.8,9.77,2.85c-6.88-2.3,0.79,0.99,2.81,2.02c4.42,2.25,0.42,0.11-0.6-0.75c1.16,0.97,2.31,1.96,3.4,3
				c1.64,1.57,6.32,7.94,2.87,2.71c2.25,3.41,4.32,6.84,6.05,10.55c-2.69-5.77,0.88,3.41,1.32,5.08c0.51,1.92,1.84,11.1,1.36,5.9
				c0.95,10.33,0.98,20.45,2.53,30.77c2.56,17.11,8.96,34.39,18.97,48.58c24.64,34.91,66.71,51.03,106.68,32.03
				c37.82-17.98,55.35-62.75,55.64-102.33c0.11-15.7-13.88-30.72-30-30c-17.03,0.76-29.03,13.19-30,30
				c-0.28,4.78-0.55,9.57-0.83,14.35c20,0,40,0,60,0c-0.01-4.09,0.1-8.16,0.49-12.24c-0.47,4.91-0.01,0.07,0.18-0.85
				c0.4-1.9,0.76-3.8,1.23-5.68c0.92-3.67,2.06-7.27,3.37-10.81c-1.78,4.81-0.26,0.58,0.24-0.39c1.24-2.38,2.45-4.73,3.85-7.01
				c0.91-1.48,1.89-2.91,2.87-4.35c-0.73,1.06-3.74,3.95,0.04,0.08c2.32-2.36,4.55-4.71,7.04-6.9c-4.7,4.13,2.06-0.88,3.76-2
				c4.3-2.81,0.52-0.29-0.79,0.15c2.23-0.74,4.43-1.3,6.68-1.96c2.5-0.73,3.98,0.61-1.04,0.09c1.35,0.14,3.47,0,4.73-0.08
				c2.06-0.14,4.87,1.31-1.01-0.33c1.49,0.42,3.03,0.63,4.52,1.05c1.49,0.42,2.95,0.94,4.41,1.47c-1.4-0.52-4.93-2.91-0.8-0.07
				c1.24,0.85,2.78,1.72,4.06,2.45c4.54,2.59-1.24-1.97,0.64,0.48c1.92,2.51,4.85,4.75,6.98,7.14c2.96,3.33-2.45-3.74,0,0.09
				c0.95,1.48,1.94,2.94,2.84,4.45c0.92,1.55,1.78,3.12,2.6,4.72c0.36,0.7,2.68,5.87,1.35,2.67c-1.35-3.25,0.74,2.26,0.98,2.98
				c0.76,2.27,1.44,4.57,2.03,6.9c0.28,1.1,2.07,12,1.51,6.65c0.43,4.1,0.43,8.19,0.65,12.3c0.54,10.15,1.83,20.62,4.84,30.36
				c5.03,16.3,14,32.11,26.92,43.45c24.56,21.56,60.54,28.99,91.35,17.12c36.17-13.92,55.93-46.5,59.62-84.11
				c0.79-8.07,0.26-16.16,0.99-24.23c-0.49,5.43,1.13-5.37,1.42-6.54c0.46-1.85,0.97-3.69,1.54-5.5c0.2-0.66,2.73-7.62,1.37-4.27
				c-1.32,3.24,0.95-1.91,1.31-2.62c0.81-1.59,1.66-3.14,2.57-4.68c0.89-1.5,1.89-2.94,2.81-4.42c2.39-3.83-2.99,3.27-0.04-0.03
				c2.15-2.4,4.94-4.59,6.94-7.06c2.38-2.94-3.83,1.57-0.37,0.27c1.65-0.62,4.82-2.39,6.09-3.6c2.61-2.48-4.31,0.8-0.74,0.3
				c1.47-0.21,3.01-0.9,4.45-1.3c1.23-0.35,5.84-0.47,1.75-0.44c-4.29,0.02,0.84,0.15,1.89,0.18c1.06,0.02,6.14,0.39,1.85-0.09
				c-4.24-0.48,0.66,0.2,1.72,0.53c1.45,0.44,2.96,1.06,4.44,1.36c2.97,0.6-4.08-2.67,0.29,0.33c1.65,1.13,8.39,6.27,3.78,2.11
				c2.48,2.24,4.75,4.59,7.08,6.98c3.79,3.91,0.8,1.04,0.08-0.02c0.98,1.46,1.98,2.89,2.9,4.39c0.93,1.52,1.83,3.08,2.66,4.65
				c0.28,0.53,3.63,8.37,1.53,2.87c1.36,3.56,2.51,7.2,3.44,10.89c0.48,1.9,0.85,3.81,1.27,5.73c0.19,0.86,0.77,5.78,0.24,0.92
				c1.12,10.24,1.07,20.34,2.74,30.57c2.92,17.84,10.83,34.4,22.48,48.15c25.09,29.61,69.04,38.04,103.59,21.13
				c37.61-18.41,54.99-63.36,54.89-103.01c-0.04-15.69-13.77-30.73-30-30C1872.57-39.62,1858.75-27.17,1858.79-10.35L1858.79-10.35z
				"/>
		</g>
	</g>
</g>
<g id="grayblue">
	<g>
		<g>
			<path class="st4" d="M1857.05,41.83c0.01,4.02-0.12,8.01-0.47,12.01c0.46-5.42-0.13,0.71-0.4,2.1c-0.37,1.86-0.78,3.71-1.25,5.55
				c-0.92,3.59-2.05,7.09-3.36,10.56c-1.67,4.39,1.98-3.85-0.2,0.21c-1.03,1.93-1.99,3.88-3.1,5.76c-1.07,1.81-2.51,3.51-3.48,5.36
				c-2,3.8,3-3.22,0.07-0.19c-2.21,2.28-4.73,4.46-6.86,6.8c-2.52,2.77,3.94-1.45,0.46-0.44c-1.51,0.44-3.61,2.11-4.95,2.95
				c-1.8,1.13-4.5,1.04,0.92-0.26c-1.82,0.44-3.63,1.12-5.43,1.62c-1.33,0.37-5.69,0.28-1.63,0.41c4.33,0.13-0.7-0.12-1.75-0.18
				c-1.89-0.11-3.83-0.19-5.72-0.24c1.04,0.03,6.56,1.42,1.31,0.11c-2.87-0.72-5.66-1.57-8.5-2.37c1.02,0.29,5.68,3.06,1.14,0.44
				c-1.57-0.91-3.17-1.8-4.75-2.67c-1.74-0.96-5.16-4.27-0.15,0.2c-1.11-0.99-2.23-1.93-3.3-2.97c-1.92-1.87-5.71-8.17-2.65-2.58
				c-1.5-2.75-3.28-5.43-4.85-8.16c-2.68-4.66-0.37-0.84,0.05,0.35c-0.86-2.46-1.69-4.89-2.36-7.41c-0.5-1.88-1.97-11.12-1.39-5.63
				c-0.42-3.98-0.42-7.96-0.62-11.95c-0.53-10.4-1.93-21.04-4.7-31.09c-4.91-17.78-13.86-34.33-26.23-48.01
				c-24.99-27.64-64.74-35.61-98.01-18.76c-33.71,17.08-50.48,55.08-53.83,90.98c-0.74,7.92-0.24,15.86-0.94,23.78
				c0.51-5.8-0.79,3.42-1.32,5.41c-0.44,1.67-1,3.27-1.48,4.93c-2.06,7.1,2.83-4.25-0.76,1.93c-1.57,2.7-3.28,5.35-4.82,8.06
				c3.23-5.68-0.75,0.68-2.63,2.49c-1.07,1.03-2.22,1.93-3.3,2.94c4.57-4.27,2.32-1.64,0.77-0.81c-1.28,0.68-2.48,1.53-3.76,2.22
				c-3.31,1.79-5.28,1.75-0.82,0.54c-2.86,0.78-5.66,1.65-8.54,2.35c-5.29,1.29,0.23-0.09,1.26-0.12c-1.53,0.04-3.06,0.21-4.6,0.24
				c-1.53,0.03-3.08-0.13-4.6-0.08c-7.01,0.22,4.11,1.39,0.14,0.15c-3.01-0.94-6.51-1.91-9.59-2.57c6.53,1.41-0.04-0.07-2.69-1.65
				c-0.33-0.2-6.15-4.29-2.37-1.39c3.28,2.52-0.47-0.47-1.19-1.2c-0.88-0.89-6.54-7.45-4.42-4.54c2.38,3.27-0.49-0.9-0.97-1.74
				c-0.98-1.73-1.93-3.49-2.92-5.22c-3.56-6.2,0.35,3.34-0.38-0.86c-0.29-1.65-1.11-3.31-1.57-4.94c-0.49-1.72-0.91-3.45-1.29-5.19
				c-0.17-0.81-1.11-6.46-0.62-2.88c0.5,3.68-0.14-2.41-0.19-3.22c-0.15-2.52-0.15-5.04-0.28-7.56c-0.32-6.16-1.12-12.28-2.06-18.38
				c-2.6-16.84-8.96-33.75-18.71-47.79c-24.39-35.13-67.24-51.71-107.15-32.2c-37.9,18.52-55.43,63.49-55.32,103.5
				c0.05,15.69,13.77,30.73,30,30c17.02-0.76,29.04-13.19,30-30c0.28-4.8,0.55-9.6,0.83-14.4c-20,0-40,0-60,0
				c-0.1,14.52-2.24,24.43-9.28,35.97c0.05-0.08-4.61,6.86-1.96,3.25c2.2-2.99-0.94,1.12-1.57,1.78c-0.86,0.92-7.43,7.23-4.82,5.05
				c2.98-2.5-0.83,0.58-1.69,1.09c-1.65,0.99-3.32,1.91-4.98,2.87c-2.18,1.26-3.91,0.44,0.89-0.36c-1.64,0.27-4.01,0.83-5.45,1.53
				c-3.46,1.67,5.1,0.27,1.22-0.09c-1.47-0.14-3.12,0.06-4.61,0.11c-2.41,0.08-6.51-1.51,0.01,0.22c-1.47-0.39-2.95-0.65-4.42-1.08
				c-1.45-0.43-2.89-0.93-4.3-1.48c1.4,0.54,4.96,2.93,0.95,0.08c-1.2-0.85-2.73-1.7-3.97-2.42c-4.41-2.56,1.07,2.07-0.49-0.38
				c-1.78-2.81-5.43-5.28-7.64-7.94c3.99,4.79-1.74-3-2.58-4.45c-0.95-1.63-4.81-10-2.79-4.9c-1.72-4.34-3.09-8.82-4.17-13.36
				c-0.44-1.87-0.79-3.76-1.17-5.65c0.25,1.27,0.41,5.48-0.1-0.78c-0.33-4.03-0.34-8.05-0.51-12.08
				c-0.42-10.03-1.68-20.38-4.47-30.05c-4.66-16.15-13.44-32.08-25.86-43.57c-24.46-22.6-61.29-30.74-92.72-18.81
				c-36.12,13.72-55.79,46.29-59.64,83.71c-0.81,7.91-0.35,15.86-1.17,23.76c0.56-5.39-0.98,4.41-1.44,6.24
				c-0.46,1.81-0.96,3.61-1.52,5.39c-0.18,0.57-3.39,8.79-0.84,3.03c-1.41,3.2-3.07,6.32-4.89,9.3c-0.89,1.46-1.86,2.85-2.8,4.28
				c3.01-4.59,1.07-1.2,0.09-0.17c-2.2,2.33-4.68,4.48-6.83,6.84c3.46-3.79,2.23-1.45,0.48-0.41c-1.98,1.18-3.96,2.34-5.96,3.5
				c-4.63,2.69-0.2-0.09,0.89-0.36c-1.39,0.35-2.96,0.82-4.34,1.28c-4.91,1.63-0.07,0.16,1.26,0.07c-1.54,0.09-3.06,0.22-4.6,0.22
				c-1.55,0-3.06-0.12-4.6-0.22c7.08,0.45,2.15,0.33,0.14-0.37c-1.41-0.49-2.89-1.03-4.33-1.38c-3.01-0.74,4.24,2.76-0.12-0.31
				c-1.73-1.22-8.17-6.24-3.55-2.01c-2.73-2.51-5.25-5.04-7.74-7.78c-2.95-3.26,2.49,3.85,0.08,0.06c-0.92-1.45-1.91-2.87-2.8-4.34
				c-0.79-1.31-5.62-11.34-3.46-6.01c-1.57-3.88-2.81-7.92-3.82-11.98c-0.47-1.86-0.82-3.74-1.24-5.61
				c-1.07-4.82,0.33,4.27-0.22-0.73c-1.16-10.6-1-21.06-2.62-31.66c-2.57-16.81-9.46-32.51-19.9-45.87
				c-24.69-31.59-68.91-42.69-105.29-25.46c-38.11,18.05-55.8,62.9-56.06,102.8c-0.1,14.96,11.49,27.51,26.01,29.46
				c13.79,1.85,30.01-6.8,32.92-21.49c2.29-11.59,4.59-23.18,6.88-34.77c-19.64-2.66-39.29-5.32-58.93-7.98
				c0.09,4.11-0.01,8.18-0.26,12.29c-0.38,6.13-0.25,2.28-0.02,0.91c-0.33,1.92-0.69,3.83-1.13,5.73
				c-0.85,3.71-1.97,7.31-3.17,10.91c-1.84,5.55-0.67,1.66-0.1,0.47c-1.16,2.42-2.36,4.79-3.72,7.11c-1.06,1.81-6.66,8.89-2.72,4.44
				c-2.2,2.49-4.52,4.75-6.91,7.05c-1.54,1.48-4.01,1.91,0.38-0.28c-1.24,0.62-2.95,1.72-4.01,2.49c-3.97,2.86-0.61,0.55,0.85-0.02
				c-2.19,0.86-4.42,1.33-6.64,2.09c-1.98,0.67-4.93-0.03,1.06,0.04c-1.57-0.02-3.16,0.18-4.73,0.18c-3.11,0-10.12-2.12-3.53,0.02
				c-2.81-0.92-5.86-1.49-8.72-2.32c-2.25-0.65-3.36-2.53,0.98,0.44c-1.5-1.02-3.3-1.82-4.88-2.71c-0.87-0.49-4.82-3.3-1.57-0.87
				c3.25,2.43-0.59-0.56-1.31-1.29c-0.94-0.94-6.54-7.47-4.6-4.76c1.94,2.71-2.84-5.05-3.46-6.19c-0.44-0.8-2.41-5.65-1.11-2.2
				c1.4,3.72-0.92-3.16-1.13-3.87c-1.04-3.57-1.91-7.25-2.42-10.93c0.71,5.11,0.13-0.03,0.1-0.92c-0.06-2.05-0.16-4.15-0.31-6.21
				c-0.75-10.57-2.23-21.35-5.3-31.52c-5.38-17.79-14.62-34.73-27.66-48.08c-25.44-26.06-64.06-33.79-96.72-16.92
				c-33.72,17.42-50.26,55.61-53.17,91.73c-0.65,8.1-0.03,16.22-0.53,24.33c-0.08,1.25-1.12,5.73-0.03,0.43
				c-0.36,1.77-0.7,3.53-1.14,5.29c-0.42,1.69-1.05,3.35-1.45,5.04c-1.25,5.29,1.33-1.59-0.24,1.02c-1.49,2.47-3.64,5.72-4.74,8.36
				c-1.51,3.61,3.36-3.08,0.47-0.52c-1.12,0.99-2.04,2.28-3.11,3.35c-1.06,1.06-2.32,1.97-3.32,3.06c-2.62,2.85,4.26-2.05,0.7-0.65
				c-1.3,0.51-2.62,1.56-3.82,2.32c-5.4,3.43,0.91,0.27-0.98,0.7c-2.59,0.58-6.3,1.46-8.74,2.46c-3.74,1.54,5.21,0.04,1.09-0.07
				c-1.55-0.04-3.15,0.22-4.71,0.25c-1.57,0.03-3.13-0.05-4.69-0.08c-1.24-0.03-5.84-1.1-1.74-0.07c4.21,1.06-0.59-0.23-1.6-0.53
				c-1.79-0.53-3.59-1.08-5.39-1.59c-5.11-1.47,0.05-0.11,0.98,0.44c-1.28-0.75-2.65-1.36-3.93-2.12c-1.28-0.75-2.47-1.7-3.76-2.43
				c4.93,2.8,2.14,1.88,0.77,0.47c-2.15-2.23-4.35-4.31-6.36-6.68c3.97,4.72,1.16,1.53,0.51,0.28c-1.12-2.15-2.45-4.3-3.62-6.44
				c-0.67-1.23-1.75-5.07,0,0.1c-0.57-1.69-1.16-3.35-1.66-5.06c-1.05-3.57-1.89-7.25-2.42-10.93c0.83,5.69-0.14-6.05-0.21-7.13
				c-0.43-6.22-1.28-12.45-2.3-18.59c-2.84-17.09-9.91-34.18-20.14-48.15c-25.13-34.33-67.82-49.8-107.24-29.78
				c-37.33,18.96-54.27,64.34-53.43,104.03c0.33,15.68,13.56,30.74,30,30c16.77-0.75,29.35-13.18,30-30
				c0.19-4.8,0.37-9.61,0.56-14.41c-20,0-40,0-60,0c0.05,4.02-0.12,7.99-0.36,12.01c-0.54,9.16,0.75-3.13-0.31,2.1
				c-0.38,1.86-0.75,3.71-1.2,5.55c-0.89,3.6-2.01,7.08-3.26,10.56c-1.59,4.41,1.97-3.87-0.13,0.22c-1,1.94-1.95,3.89-3.05,5.77
				c-1.03,1.77-2.58,3.51-3.44,5.36c-1.69,3.64,3.12-2.72,0.12-0.19c-2.18,1.84-4.92,4.65-6.8,6.81c-2.45,2.83,3.96-1.54,0.49-0.43
				c-1.53,0.49-3.57,2.1-4.93,2.96c-1.74,1.11-4.58,1.15,0.94-0.25c-1.81,0.46-3.61,1.12-5.42,1.63c-1.3,0.37-5.72,0.36-1.62,0.42
				c4.33,0.06-0.66-0.18-1.75-0.18c-2.16,0-6.88-1.1,0,0.37c-1.49-0.32-2.96-0.59-4.43-0.99c-1.47-0.4-2.88-0.92-4.33-1.4
				c1.28,0.42,5.2,2.99,0.9,0.2c-1.24-0.8-2.74-1.68-4.01-2.35c-4.61-2.42,1.39,2.1-0.58-0.26c-2.28-2.74-5.35-5.13-7.79-7.79
				c4.11,4.49-1.84-2.76-2.78-4.31c-1.84-3.04-3.5-6.2-4.96-9.45c2.17,4.82,0.27,0.49-0.03-0.5c-0.83-2.71-1.74-5.36-2.45-8.11
				c-0.48-1.88-2.13-11.29-1.54-6.39c-0.49-4.01-0.49-8.04-0.73-12.07c-0.61-10.04-1.91-20.34-4.89-29.98
				c-4.97-16.06-13.75-31.94-26.43-43.22c-25.98-23.12-63.22-29.95-95.5-16.53c-34.57,14.37-52.8,47.1-56.03,83.32
				c-0.71,7.91-0.2,15.86-0.72,23.78c-0.07,1.07-1.01,5.78-0.05,0.7c-0.36,1.87-0.7,3.74-1.13,5.59c-1.05,4.49-2.4,8.9-4.08,13.2
				c2.17-5.56-1.96,3.44-2.71,4.72c-0.92,1.57-6.61,8.98-2.51,4.25c-2.13,2.46-4.44,4.65-6.7,6.96c-3.7,3.78-0.5,0.38,0.56-0.31
				c-1.94,1.24-3.95,2.37-5.89,3.61c-4.33,2.78-0.31,0.14,0.94-0.25c-1.45,0.45-2.85,0.97-4.32,1.36c-1.48,0.39-2.95,0.64-4.44,0.95
				c6.67-1.43,2.87-0.28,1.12-0.44c-1.43-0.14-3.14-0.12-4.61-0.14c6.77,0.09,2.38,0.49,0.12-0.22c-1.4-0.44-2.93-1.08-4.36-1.3
				c-3.02-0.47,4.28,2.7-0.18-0.18c-1.71-1.1-8.58-5.9-3.68-1.83c-2.86-2.38-5.27-5.01-7.88-7.64c-3.1-3.12,2.55,3.82-0.03,0.15
				c-0.99-1.41-1.96-2.83-2.88-4.29c-2.12-3.37-4.03-6.91-5.65-10.55c2.29,5.18-1.71-5.79-2.11-7.24c-0.5-1.85-0.95-3.71-1.34-5.59
				c-0.16-0.74-1.21-6.68-0.69-3.23c0.52,3.49-0.21-2.68-0.26-3.43c-0.17-2.52-0.19-5.05-0.35-7.58
				c-0.37-6.04-1.15-12.13-2.15-18.08C70.94,3.44,63.13-12.94,51.7-26.64C26.76-56.52-17.46-65.84-52.28-48.71
				c-37.77,18.58-55.1,63.63-54.62,103.56c0.19,15.69,13.66,30.73,30,30c16.09-0.72,30.2-13.19,30-30
				c-0.05-4.02,0.12-7.99,0.36-12.01c0.54-9.16-0.75,3.13,0.31-2.1c0.38-1.86,0.75-3.71,1.2-5.55c0.89-3.6,2.01-7.08,3.26-10.56
				c1.59-4.41-1.97,3.87,0.13-0.22c1-1.94,1.95-3.89,3.05-5.77c1.03-1.77,2.58-3.51,3.44-5.36c1.69-3.64-3.12,2.72-0.12,0.19
				c2.18-1.84,4.92-4.65,6.8-6.81c2.45-2.83-3.96,1.54-0.49,0.43c1.53-0.49,3.57-2.1,4.93-2.96c1.74-1.11,4.58-1.15-0.94,0.25
				c1.81-0.46,3.61-1.12,5.42-1.63c1.3-0.37,5.72-0.36,1.62-0.42c-4.35-0.06,0.7,0.11,1.75,0.17c1.89,0.11,3.83,0.19,5.72,0.23
				c-1.03-0.02-6.58-1.41-1.3-0.12c2.88,0.7,5.67,1.57,8.52,2.36c-1-0.28-5.7-3.05-1.12-0.46c1.58,0.9,3.18,1.8,4.78,2.66
				c1.69,0.92,5.3,4.22,0.19-0.21c1.13,0.98,2.25,1.93,3.33,2.96c1.79,1.72,6.05,8.19,2.73,2.57c1.61,2.72,3.3,5.43,4.92,8.15
				c2.72,4.54,0.48,0.89,0.01-0.35c0.91,2.43,1.73,4.89,2.43,7.4c0.51,1.83,2.22,11.13,1.52,5.63c0.51,3.96,0.49,7.96,0.73,11.94
				c0.63,10.41,2.05,21.03,4.92,31.08c5.07,17.76,14.07,34.33,26.55,47.96c25.14,27.47,64.85,35.62,98.14,18.63
				c33.64-17.16,50.1-55.18,53.24-91.04c0.69-7.91,0.21-15.86,0.72-23.78c-0.37,5.77,0.68-3.37,1.2-5.41
				c0.43-1.67,0.98-3.27,1.43-4.93c1.95-7.14-2.8,4.31,0.68-1.93c1.51-2.71,3.31-5.34,4.75-8.06c-2.97,5.63,0.55-0.55,2.56-2.5
				c1.05-1.02,2.22-1.92,3.27-2.95c-4.34,4.24-2.45,1.7-0.8,0.8c1.27-0.69,2.46-1.54,3.74-2.23c3.29-1.8,5.25-1.8,0.79-0.55
				c2.85-0.8,5.64-1.66,8.52-2.37c5.26-1.3-0.22,0.07-1.27,0.11c1.53-0.05,3.06-0.22,4.6-0.25c1.53-0.03,3.08,0.13,4.61,0.07
				c7.02-0.25-4.12-1.37-0.13-0.16c3.02,0.91,6.53,1.93,9.62,2.55c-5.22-1.06-3.18-1.62-1.12-0.46c1.27,0.72,2.59,1.34,3.85,2.09
				c0.31,0.18,6.23,4.23,2.41,1.37c-3.3-2.46,0.49,0.46,1.23,1.2c0.87,0.86,6.67,7.4,4.49,4.53c-2.43-3.21,0.52,0.89,1.01,1.73
				c1,1.72,1.95,3.5,2.97,5.21c3.72,6.2-0.49-3.39,0.45,0.85c0.37,1.66,1.14,3.29,1.62,4.93c0.5,1.72,0.94,3.44,1.33,5.19
				c0.18,0.8,1.28,6.44,0.68,2.88c-0.61-3.65,0.2,2.4,0.25,3.22c0.17,2.52,0.19,5.04,0.34,7.55c0.38,6.14,1.17,12.3,2.15,18.37
				c2.72,16.84,9.25,33.76,19.08,47.75c24.58,34.96,67.42,51.71,107.36,32.07c37.77-18.58,55.1-63.63,54.62-103.56
				c-0.19-15.69-13.66-30.73-30-30c-16.77,0.75-29.35,13.18-30,30c-0.19,4.8-0.37,9.61-0.56,14.41c20,0,40,0,60,0
				c-0.09-4.11,0.01-8.18,0.26-12.29c0.38-6.13,0.25-2.28,0.02-0.91c0.33-1.92,0.69-3.83,1.13-5.73c0.85-3.71,1.97-7.31,3.17-10.91
				c1.84-5.55,0.67-1.66,0.1-0.47c1.16-2.42,2.36-4.79,3.72-7.11c1.06-1.81,6.66-8.89,2.72-4.44c2.2-2.49,4.52-4.75,6.91-7.05
				c1.54-1.48,4.01-1.91-0.38,0.28c1.24-0.62,2.95-1.72,4.01-2.49c3.97-2.86,0.61-0.55-0.85,0.02c2.19-0.86,4.42-1.33,6.64-2.09
				c2.01-0.68,4.87,0.07-1.06-0.04c1.44,0.03,3.35-0.02,4.73-0.17c1.61-0.17,5.76,0.85-0.99-0.46c1.53,0.3,3.03,0.57,4.54,0.97
				c1.51,0.4,2.95,0.92,4.43,1.39c-1.27-0.4-5.17-2.96-0.75-0.18c1.28,0.81,2.79,1.7,4.11,2.38c4.68,2.43-1.4-1.95,0.73,0.37
				c2.22,2.41,4.82,4.66,7.11,7.04c3.1,3.21-2.48-3.72,0.12,0.02c1.01,1.45,2,2.91,2.93,4.42c0.95,1.53,1.84,3.09,2.69,4.68
				c0.36,0.68,2.94,5.77,1.47,2.64c-1.49-3.16,0.84,2.22,1.1,2.96c0.8,2.27,1.53,4.56,2.16,6.88c1.03,3.8,1.95,7.71,2.45,11.62
				c-0.61-4.83-0.11,0.4-0.09,1.16c0.06,2.05,0.16,4.15,0.31,6.21c0.73,10.17,2.07,20.64,5.26,30.37
				c5.35,16.3,14.32,31.95,27.48,43.19c24.94,21.3,60.73,28.28,91.52,16c36.09-14.4,55.33-47.24,58.57-85.01
				c0.69-8.09,0.11-16.23,0.53-24.33c0.05-0.93,0.84-5.87,0.02-0.91c0.32-1.92,0.7-3.83,1.13-5.73c0.94-4.16,2.21-8.2,3.65-12.21
				c1.61-4.47-1.93,3.76,0.2-0.39c0.81-1.59,1.6-3.19,2.48-4.74c0.86-1.53,1.8-3,2.73-4.48c0.47-0.75,3.76-5.05,1.42-2.15
				c-2.32,2.87,1.11-1.13,1.72-1.75c1.16-1.16,2.32-2.31,3.51-3.45c0.71-0.68,4.81-3.68,1.64-1.46c-3.44,2.41,3.54-1.64,3.93-2.12
				c2.2-2.68-4.24,1-0.79,0.17c1.48-0.36,2.97-0.93,4.43-1.39c1.02-0.32,5.97-1.15,1.73-0.55c-4.24,0.6,0.8,0.1,1.88,0.07
				c1.05-0.04,6.14-0.28,1.86-0.2c-4.05,0.08,0.46,0.07,1.74,0.42c1.44,0.4,3,1.11,4.46,1.29c2.95,0.35-4.11-2.61,0.35,0.2
				c1.62,1.02,8.77,5.96,3.9,1.95c2.59,2.13,4.79,4.58,7.21,6.88c3.77,3.57,1.06,1.08,0.2-0.09c1.04,1.41,2.04,2.87,2.98,4.35
				c0.96,1.51,1.89,3.05,2.75,4.62c0.21,0.38,4.09,8.31,1.72,2.82c3.03,7.03,5.1,14.9,6.1,22.49c-0.69-5.3,0.15,6.39,0.22,7.36
				c0.42,6.11,1.25,12.25,2.29,18.29c3.07,17.78,11.4,34.39,23.14,48c25.3,29.34,69.67,37.31,103.89,19.93
				c37.33-18.96,54.27-64.34,53.43-104.03c-0.32-14.99-11.17-27.47-26.01-29.46c-13.79-1.85-30.01,6.8-32.92,21.49
				c-2.29,11.59-4.59,23.18-6.88,34.77c19.64,2.66,39.29,5.32,58.93,7.98c0.1-14.52,2.24-24.43,9.28-35.97
				c-0.05,0.08,4.61-6.86,1.96-3.25c-2.2,2.99,0.94-1.12,1.57-1.78c0.87-0.92,7.43-7.23,4.82-5.05c-2.98,2.5,0.83-0.58,1.69-1.09
				c1.65-0.99,3.32-1.91,4.98-2.87c2.18-1.26,3.91-0.44-0.89,0.36c1.64-0.27,4.01-0.83,5.45-1.53c3.46-1.67-5.11-0.26-1.22,0.09
				c1.49,0.13,3.1-0.14,4.61-0.12c1.92,0.02,3.81,0.19,5.72,0.34c-1.14-0.09-6.42-1.45-1.32,0c2.85,0.81,5.66,1.58,8.47,2.51
				c-1.12-0.37-5.5-3.04-1.17-0.34c1.54,0.96,3.16,1.84,4.73,2.75c1.84,1.07,4.8,4.41,0.11-0.09c1.07,1.03,2.21,1.97,3.27,3.02
				c1.07,1.06,2.02,2.22,3.07,3.3c-0.79-0.81-3.28-5.19-0.5-0.6c1.66,2.73,3.25,5.43,4.77,8.24c2.62,4.85,0.24,0.81-0.12-0.3
				c0.8,2.49,1.64,4.91,2.29,7.44c0.5,1.95,1.71,11.11,1.26,5.67c0.33,3.98,0.34,7.96,0.51,11.96c0.44,10.43,1.81,21.05,4.48,31.15
				c4.75,17.9,13.67,34.44,25.9,48.31c24.71,28.04,64.41,36.22,97.87,19.79c33.86-16.62,50.86-54.56,54.45-90.31
				c0.8-7.91,0.27-15.87,1.17-23.76c-0.66,5.83,0.91-3.43,1.45-5.37c0.46-1.66,1.01-3.26,1.53-4.9c2.19-7-2.88,4.17,0.85-1.86
				c1.64-2.66,3.2-5.34,4.9-7.97c-3.74,5.81,1.27-0.7,2.72-2.36c3.24-3.71,0.07-0.3-1.01,0.47c1.18-0.85,2.37-1.68,3.61-2.45
				c1.23-0.77,2.56-1.39,3.78-2.16c5.32-3.38-4.82,1.1,0.85-0.4c2.82-0.75,5.78-1.37,8.56-2.21c-6.89,2.09,0.35,0.07,3.35,0.07
				c1.54,0,3.07,0.15,4.6,0.16c6.98,0.05-3.97-1.51-0.14-0.02c2.93,1.14,6.52,1.85,9.57,2.73c-6.85-1.99,0.4,0.43,2.64,1.82
				c0.37,0.23,5.95,4.49,2.34,1.48c-3.19-2.65,0.47,0.55,1.16,1.27c0.99,1.04,1.98,2.41,3.12,3.23c3.12,2.26-2.35-4.14-0.41-0.7
				c1.75,3.1,3.74,6.04,5.44,9.18c3.36,6.22-0.19-3.24,0.3,0.91c0.19,1.64,1.08,3.35,1.53,4.96c0.47,1.72,0.88,3.46,1.24,5.21
				c0.17,0.83,0.92,6.48,0.55,2.9c-0.38-3.7,0.08,2.43,0.12,3.23c0.13,2.52,0.1,5.04,0.2,7.56c0.23,5.34,0.91,10.57,1.62,15.86
				c2.4,17.84,8.48,35.61,18.66,50.57c24.11,35.46,66.81,52.32,106.95,33.31c38.11-18.05,55.8-62.9,56.06-102.8
				c0.11-15.7-13.87-30.72-30-30c-17.02,0.76-29.04,13.19-30,30c-0.28,4.8-0.55,9.6-0.83,14.4c20,0,40,0,60,0
				c-0.01-4.02,0.12-8.01,0.47-12.01c-0.46,5.42,0.13-0.71,0.4-2.1c0.37-1.86,0.78-3.71,1.25-5.55c0.92-3.59,2.05-7.09,3.36-10.56
				c1.67-4.39-1.98,3.85,0.2-0.21c1.03-1.93,1.99-3.88,3.1-5.76c1.07-1.81,2.51-3.51,3.48-5.36c2-3.8-3,3.22-0.07,0.19
				c2.21-2.28,4.73-4.46,6.86-6.8c2.52-2.77-3.94,1.45-0.46,0.44c1.51-0.44,3.61-2.11,4.95-2.95c1.8-1.13,4.5-1.04-0.92,0.26
				c1.82-0.44,3.63-1.12,5.43-1.62c1.33-0.37,5.69-0.28,1.63-0.41c-4.31-0.13,0.66,0.18,1.75,0.19c2.19,0.03,6.84,1.15,0-0.35
				c1.49,0.33,2.95,0.6,4.42,1c1.46,0.4,2.88,0.92,4.32,1.41c-1.3-0.44-5.17-2.99-0.92-0.19c1.22,0.81,2.73,1.68,3.99,2.35
				c4.56,2.45-1.31-2.12,0.53,0.28c2.13,2.77,5.35,5.14,7.72,7.81c-4.09-4.6,1.77,2.79,2.68,4.33c1.81,3.04,3.48,6.2,4.87,9.46
				c-2.1-4.93-0.31-0.45-0.04,0.51c0.79,2.72,1.69,5.36,2.37,8.12c0.48,1.92,1.9,11.29,1.4,6.4c0.4,4.02,0.42,8.04,0.62,12.07
				c0.52,10.02,1.79,20.35,4.69,29.99c4.82,16.06,13.58,31.96,26.15,43.26c25.83,23.23,63.19,30.01,95.39,16.66
				c34.64-14.36,53.06-46.98,56.53-83.25c0.76-7.91,0.31-15.86,0.94-23.78c-0.42,5.35,0.85-4.41,1.3-6.29
				c1.08-4.47,2.43-8.94,4.2-13.19c-2.29,5.54,2.09-3.49,2.81-4.71c0.94-1.59,6.73-8.86,2.6-4.24c2.17-2.43,4.46-4.65,6.76-6.95
				c3.79-3.78,0.52-0.33-0.52,0.32c1.96-1.23,3.97-2.37,5.92-3.6c4.39-2.76,0.31-0.11-0.92,0.26c1.45-0.44,2.86-0.97,4.33-1.35
				c1.48-0.39,2.95-0.64,4.45-0.94c-6.77,1.38-2.81,0.29-1.11,0.46c1.43,0.14,3.14,0.12,4.61,0.14c-6.81-0.13-2.37-0.47-0.13,0.24
				c1.4,0.44,2.91,1.07,4.34,1.31c3.02,0.51-4.29-2.72,0.15,0.19c1.74,1.14,8.45,5.97,3.62,1.85c2.82,2.41,5.25,5,7.81,7.66
				c3.05,3.16-2.54-3.84-0.03-0.14c0.96,1.42,1.94,2.83,2.84,4.3c2.08,3.37,4.02,6.91,5.55,10.56c-2.23-5.3,1.61,5.85,1.98,7.25
				c0.48,1.85,0.91,3.71,1.29,5.59c0.15,0.75,1.04,6.7,0.63,3.24c-0.42-3.52,0.15,2.69,0.19,3.43c0.15,2.52,0.14,5.05,0.28,7.58
				c0.32,6.06,1.09,12.11,2.05,18.09c2.84,17.67,10.5,34.02,21.88,47.76c24.84,30,68.96,39.24,103.81,22.21
				c37.9-18.52,55.43-63.49,55.32-103.5c-0.05-15.69-13.77-30.73-30-30C1870.83,12.55,1857,25.01,1857.05,41.83L1857.05,41.83z"/>
		</g>
	</g>
</g>
<g id="yellow">
	<g>
		<g>
			<path class="st5" d="M1857.56,94.74c0,3.89-0.03,7.82-0.57,11.68c0.83-5.94-1.33,4.56-1.69,5.83c-0.51,1.76-1.11,3.48-1.7,5.21
				c-0.13,0.39-1.95,4.37-0.54,1.4c1.54-3.26-1.01,1.67-1.4,2.39c-1.05,1.91-2.27,3.71-3.38,5.59c-2.78,4.71-0.8,1.09,0.08,0.07
				c-1.1,1.27-2.21,2.53-3.38,3.74c-1.85,1.9-8.49,5.96-3.36,3.26c-2.37,1.25-5.16,2.7-7.34,4.26c-3.07,2.2,4.21-0.58,0.47-0.3
				c-1.85,0.14-3.98,1.12-5.83,1.58c-5.49,1.36-0.43-0.09,0.71-0.09c-1.66,0-3.3,0.13-4.96,0.1c-1.64-0.03-3.26-0.19-4.89-0.25
				c1.11,0.04,6.29,1.34,0.85,0.07c-2.39-0.56-5.52-2.08-7.93-2.1c-3.73-0.03,3.98,2.37,0.74,0.45c-1.63-0.97-3.42-1.69-5.05-2.67
				c-1.32-0.78-2.55-1.65-3.82-2.49c1.08,0.72,4.22,4.13,0.75,0.39c-1.49-1.61-6.63-8.16-2.99-2.56c-1.53-2.35-3.01-4.67-4.37-7.12
				c-0.48-0.86-2.28-5.59-1.03-2.04c1.37,3.88-0.76-2.92-0.96-3.66c-0.43-1.57-1.65-11.25-1.27-5.47c-0.25-3.9-0.26-7.82-0.59-11.72
				c-0.77-9.22-2.08-18.61-4.97-27.43c-5.4-16.46-14.2-32.2-26.81-44.25c-26.34-25.2-64.19-31.95-97.17-16.1
				c-32.11,15.44-50.02,49.87-53.51,84.09c-0.4,3.9-0.52,7.76-0.57,11.68c-0.02,1.95-0.07,3.89-0.1,5.84c0,0.35-0.31,5.07,0.01,1.58
				c0.33-3.68-0.35,1.8-0.55,2.68c-0.37,1.7-0.86,3.35-1.29,5.03c-0.23,0.88-1.98,6-0.6,2.32c1.42-3.81-1.18,2.27-1.6,3.02
				c-1.4,2.51-6.61,7.63-2.02,3.51c-1.83,1.63-4.2,3.71-5.68,5.65c-2.27,2.98,4.09-1.99,0.64-0.55c-1.34,0.56-2.64,1.62-3.89,2.39
				c-0.84,0.52-5.27,2.79-1.57,1.02c3.89-1.87-2.58,0.86-2.92,0.96c-3.03,0.94-6.12,1.63-9.24,2.14c6.21-1.02-0.49-0.24-3.02-0.24
				c-1.6,0-3.35-0.37-4.91-0.17c-4.11,0.53,4.74,1.34,0.81,0.2c-3.35-0.98-6.84-1.72-10.21-2.68c1.06,0.3,5.5,2.96,0.81,0.34
				c-1.33-0.75-2.7-1.39-4.02-2.18c-1.31-0.78-2.52-1.7-3.82-2.49c0.54,0.32,3.5,3.53,1.61,1.15c-0.66-0.83-7.05-7.35-4.75-4.52
				c2.5,3.08-0.57-0.89-1.07-1.75c-1.01-1.74-1.98-3.48-2.96-5.24c-0.95-1.71-0.99-4.53,0.11,0.3c-0.37-1.64-1.1-3.3-1.54-4.92
				c-0.35-1.28-0.65-2.57-0.92-3.87c-0.18-0.86-0.86-6.41-0.55-2.8c0.32,3.75-0.01-2.34-0.04-3.16c-0.09-1.97-0.11-3.94-0.25-5.9
				c-0.4-6-1.21-12.12-2.31-18.02c-3.27-17.55-11.61-33.81-22.79-47.59c-25.28-31.19-67.81-40.77-103.95-23.64
				c-35.72,16.93-54.1,57.84-54.08,95.77c0.01,15.69,13.79,30.73,30,30c17.13-0.77,28.91-13.19,30-30
				c0.28-4.36,0.57-8.71,0.85-13.07c-20,0-40,0-60,0c-0.01,1.27-0.91,12.42-0.03,6.53c-0.55,3.69-1.44,7.35-2.51,10.92
				c-0.53,1.75-1.14,3.46-1.75,5.19c0.17-0.47,1.89-4.06,0.38-0.98c-1.75,3.57-3.76,6.88-5.88,10.23c-3.02,4.77-0.81,0.89,0.02,0
				c-1.14,1.23-2.23,2.5-3.42,3.69c-1.18,1.17-2.42,2.25-3.65,3.37c0.95-0.86,4.82-2.93,0.21-0.26c-1.36,0.79-7.91,4.5-4.91,3.1
				c3.56-1.66-1.06,0.38-2.03,0.65c-1.93,0.54-3.95,0.89-5.85,1.49c5.26-1.66,2.88-0.13,0.7-0.2c-1.6-0.05-3.39-0.05-4.96,0.01
				c-2.08,0.08-4.74-1.39,0.68,0.22c-1.54-0.46-3.17-0.67-4.71-1.11c-1.55-0.44-3.06-0.99-4.58-1.53c0.84,0.3,3.87,2.44,1.66,0.54
				c-1.2-1.03-9.99-7.06-5.11-2.78c-2.55-2.23-4.81-4.6-7.16-7.03c-0.93-0.96-3.03-4.43-0.06,0.01c-0.97-1.45-1.94-2.88-2.85-4.38
				c-0.91-1.52-1.7-3.09-2.57-4.63c-0.17-0.3-2.03-4.32-0.73-1.31c1.43,3.31-0.68-2-0.94-2.78c-0.73-2.2-1.38-4.43-1.93-6.68
				c-0.44-1.84-0.82-3.69-1.15-5.54c0.24,1.36,0.32,5.43,0.02-0.62c-0.2-3.91-0.17-7.83-0.46-11.73c-0.66-8.85-1.85-17.97-4.76-26.4
				c-5.29-15.34-13.86-29.7-26.45-40.16c-25.09-20.84-61.09-27.83-92.05-16.59c-34.5,12.52-54.89,41.93-59.16,77.77
				c-0.45,3.81-0.61,7.58-0.7,11.42c-0.05,1.97-0.1,3.93-0.16,5.9c-0.01,0.27-0.41,5.06-0.05,1.77c0.39-3.56-0.44,2.23-0.61,3.03
				c-0.39,1.82-0.83,3.63-1.34,5.42c-0.5,1.77-1.11,3.49-1.67,5.24c-1.04,3.19,2.02-3.28-0.65,1.51c-1.71,3.07-3.43,6.06-5.3,9.03
				c-0.77,1.22-3.61,3.92,0.02,0c-0.85,0.92-1.63,1.93-2.55,2.78c-1.16,1.08-2.66,2.19-3.59,3.45c-2.33,3.16,3.75-1.92,0.28-0.13
				c-1.58,0.82-11.06,5.7-4.54,3.25c-3.05,1.14-6.11,1.9-9.26,2.68c5.87-1.44-0.32-0.23-3.02-0.16c-1.06,0.03-6.22-0.69-2.13,0
				c4.11,0.69-1.01-0.31-1.97-0.61c-1.51-0.47-3.08-1.11-4.62-1.43c-3.21-0.66,4.76,3.16-0.56-0.43c-1.79-1.21-8.45-6.44-4.03-2.23
				c-2.12-2.02-4.28-3.97-6.3-6.1c-0.6-0.63-3.85-4.83-1.71-1.9c2.18,2.97-0.93-1.56-1.36-2.29c-0.84-1.41-5.62-11.16-3.55-5.95
				c-1.36-3.42-2.44-6.98-3.31-10.55c-0.33-1.38-0.59-2.76-0.88-4.15c-1.02-4.75,0.26,4.36-0.12-0.57
				c-0.77-9.9-0.87-19.61-2.71-29.44c-3.07-16.4-11.25-31.7-22.4-44.02c-25.64-28.33-69.74-35.35-103.71-19.47
				c-35.91,16.79-54.43,57.09-54.82,95.16c-0.34,33.25,51.38,41.51,58.93,7.98c2.62-11.66,5.25-23.31,7.87-34.97
				c-19.64-2.66-39.29-5.32-58.93-7.98c0.07,3.91,0.01,7.79-0.35,11.69c0.55-5.88-1.07,4.5-1.44,5.87c-0.47,1.77-1.08,3.49-1.6,5.25
				c-0.1,0.35-1.74,4.51-0.45,1.44c1.4-3.32-0.9,1.71-1.29,2.45c-1.01,1.93-2.26,3.73-3.27,5.65c-2.42,4.57-0.76,1.37,0.2,0.16
				c-1.03,1.31-2.17,2.58-3.31,3.8c-1.54,1.63-8.43,6.77-3.21,3.44c-2.21,1.41-5.34,2.65-7.26,4.39c-2.74,2.49,4.19-0.8,0.52-0.17
				c-1.9,0.32-3.92,1.15-5.8,1.69c-5.25,1.5-0.57,0.11,0.73,0.05c-1.66,0.08-3.29,0.19-4.96,0.19c-2.67,0.01-10.8-1.78-4.06,0.04
				c-2.63-0.71-5.33-1.24-7.97-1.95c-0.99-0.27-5.6-2.13-1.82-0.51c4.04,1.73-1.81-1.04-2.59-1.49c-1.33-0.76-2.55-1.64-3.86-2.42
				c0.97,0.57,4.45,4.22,0.67,0.49c-2.2-2.18-4.42-4.24-6.4-6.64c3.79,4.6-0.05-0.8-1.25-2.81c-0.47-0.79-2.64-5.5-1.14-1.99
				c1.62,3.76-0.87-2.84-1.1-3.61c-0.4-1.38-2.18-11.36-1.52-5.43c-0.43-3.89-0.43-7.81-0.81-11.71
				c-0.89-9.23-2.27-18.57-5.34-27.36c-5.71-16.36-14.53-32.04-27.38-43.89C756.99-13.4,719.22-20.1,686.36-3.71
				c-31.85,15.89-49.41,50.53-52.41,84.8c-0.63,7.19-0.52,14.53-0.6,21.74c-0.05,4.47,1.49-3.94-0.05,0.07
				c-0.6,1.57-0.74,3.41-1.19,5.06c-0.45,1.61-1.18,3.19-1.54,4.8c-0.69,3.13,2.48-3.83-0.43,0.63c-1.25,1.92-6.43,8.49-1.83,3.64
				c-1.65,1.74-4.36,3.73-5.57,5.76c-1.87,3.13,3.99-2.17,0.72-0.45c-1.33,0.7-2.54,1.7-3.84,2.46c-1.3,0.77-2.81,1.32-4.05,2.16
				c-2.79,1.91,5.97-1.51-0.35,0.04c-3.08,0.75-6.09,1.64-9.2,2.31c6.05-1.31-0.37-0.08-3-0.03c-1.39,0.02-10.63-0.77-6.92-0.14
				c4.17,0.71-0.86-0.24-1.84-0.52c-1.86-0.52-3.75-1.1-5.61-1.58c-1.83-0.47-4.34-2.48,0.76,0.46c-1.32-0.76-2.73-1.35-4.06-2.11
				c-1.29-0.74-2.55-1.76-3.86-2.42c0.38,0.19,3.77,3.57,1.54,1.23c-2.04-2.14-4.35-4.48-6.52-6.49c-2.7-2.51,1.48,3.99,0.47,0.43
				c-0.41-1.45-2.3-3.97-3.05-5.19c-0.8-1.3-1.75-4.99-0.02,0.35c-0.53-1.64-1.15-3.23-1.63-4.89c-0.42-1.44-2.07-9.26-1.67-6.63
				c0.57,3.71-0.12-2.31-0.18-3.14c-0.12-1.97-0.19-3.93-0.36-5.9c-0.51-6.01-1.3-12.09-2.5-18c-3.55-17.52-12.14-33.6-23.43-47.3
				c-25.45-30.88-68.59-39.9-104.29-22.37c-35.39,17.38-53.49,58.6-52.77,96.49c0.3,15.68,13.58,30.74,30,30
				c16.87-0.76,29.22-13.18,30-30c0.2-4.36,0.4-8.72,0.6-13.08c-20,0-40,0-60,0c0.03,3.9-0.01,7.8-0.48,11.68
				c0.71-5.93-1.22,4.52-1.58,5.83c-0.49,1.76-1.09,3.48-1.66,5.22c-0.12,0.38-1.87,4.43-0.5,1.41c1.49-3.29-0.96,1.67-1.35,2.4
				c-1.04,1.91-2.26,3.71-3.33,5.6c-2.65,4.66-0.78,1.17,0.13,0.09c-1.08,1.28-2.19,2.54-3.35,3.75c-1.15,1.19-2.41,2.27-3.58,3.44
				c-1.31,1.3-4.22,2.35,0.29-0.15c-2.33,1.29-5.19,2.68-7.31,4.28c-2.99,2.27,4.22-0.63,0.49-0.28c-1.86,0.18-3.96,1.13-5.82,1.6
				c-5.45,1.39-0.45-0.06,0.71-0.06c-1.59,0.01-3.41-0.02-4.96,0.1c-1.62,0.13-5.61-0.93,0.67,0.36c-1.59-0.33-3.16-0.61-4.73-1.03
				c-1.56-0.41-3.06-1.04-4.61-1.45c0.64,0.17,4.19,2.46,1.61,0.64c-1.38-0.97-10.3-6.59-5.25-2.57c-2.65-2.11-4.84-4.58-7.29-6.9
				c-0.84-0.8-3.49-4.39-0.17,0.1c-1.03-1.4-2.01-2.86-2.93-4.32c-1.65-2.64-3.1-5.38-4.45-8.18c-2.02-4.18,1.35,4.1-0.08-0.39
				c-0.7-2.21-1.46-4.4-2.05-6.64c-0.37-1.43-1.84-11.55-1.4-6.12c-0.32-3.9-0.34-7.82-0.68-11.72c-0.78-8.87-2.08-17.91-5.1-26.33
				c-5.52-15.34-14.19-29.45-26.95-39.8C266.6-1.52,230.57-8.07,199.74,3.63c-34.15,12.96-54.69,42.5-58.24,78.46
				c-0.71,7.22-0.24,14.45-0.83,21.67c-0.4,4.9,0.92-4.23-0.12,0.49c-0.4,1.82-0.76,3.64-1.24,5.44c-0.45,1.7-4.62,11.99-2.06,6.84
				c-1.57,3.15-3.4,6.08-5.13,9.13c-0.62,1.09-3.47,4.37,0.13,0.09c-0.81,0.96-1.61,1.95-2.5,2.83c-1.18,1.17-2.34,2.36-3.53,3.52
				c-0.68,0.66-4.8,3.8-1.7,1.57c3.1-2.23-1.19,0.66-1.98,1.09c-1.78,0.96-3.49,1.97-5.32,2.85c5.8-2.79-2.2,0.22-4.25,0.79
				c-2.34,0.65-4.27-0.49,0.71-0.06c-1.21-0.1-2.49,0.14-3.72,0.11c-1-0.03-6.31-0.13-2.14,0.11c4.07,0.24-0.92-0.2-1.99-0.5
				c-1.49-0.41-3.13-1.18-4.64-1.34c-3.11-0.33,4.7,2.98-0.62-0.28c-1.64-1.01-9.12-6-4.16-2.04c-2.3-1.83-4.33-3.92-6.42-5.98
				c-0.6-0.6-4.09-4.67-1.8-1.83c2.31,2.86-1-1.49-1.46-2.22c-2.14-3.38-4.12-6.84-5.74-10.5c2.4,5.4-1.22-4.52-1.56-5.82
				c-0.36-1.37-0.67-2.75-0.96-4.13c-0.17-0.79-0.98-6.63-0.61-3.1c0.37,3.59-0.06-2.53-0.1-3.3c-0.1-1.96-0.14-3.91-0.29-5.87
				c-0.45-5.89-1.22-11.87-2.39-17.68c-3.26-16.23-11.67-31.71-22.97-43.74C25.88,2.32-17.87-4.21-51.87,12.04
				c-35.6,17.02-53.84,58.03-53.52,95.9c0.13,15.69,13.7,30.73,30,30c16.14-0.72,30.14-13.18,30-30c-0.03-3.9,0.01-7.8,0.48-11.68
				c-0.71,5.93,1.22-4.52,1.58-5.83c0.49-1.76,1.09-3.48,1.66-5.22c0.12-0.38,1.87-4.43,0.5-1.41c-1.49,3.29,0.96-1.67,1.35-2.4
				c1.04-1.91,2.26-3.71,3.33-5.6c2.65-4.66,0.78-1.17-0.13-0.09c1.08-1.28,2.19-2.54,3.35-3.75c1.15-1.19,2.41-2.27,3.58-3.44
				c1.31-1.3,4.22-2.35-0.29,0.15c2.33-1.29,5.19-2.68,7.31-4.28c2.99-2.27-4.22,0.63-0.49,0.28c1.86-0.18,3.96-1.13,5.82-1.6
				c5.44-1.39,0.45,0.05-0.71,0.06c1.66-0.01,3.29-0.14,4.96-0.12c1.64,0.02,3.26,0.19,4.89,0.23c-1.08-0.03-6.32-1.34-0.84-0.1
				c2.69,0.61,5.31,1.29,7.95,2.07c1.02,0.3,5.46,2.35,1.8,0.59c-3.97-1.91,1.8,1.14,2.56,1.58c1.32,0.78,2.55,1.65,3.84,2.47
				c-1.05-0.68-4.28-4.15-0.71-0.41c1.44,1.51,6.93,8.09,3.06,2.53c1.61,2.3,3.03,4.67,4.43,7.1c0.47,0.83,2.43,5.57,1.08,2.03
				c-1.47-3.84,0.81,2.9,1.02,3.65c0.41,1.48,1.88,11.31,1.38,5.46c0.33,3.9,0.34,7.82,0.68,11.72c0.81,9.21,2.17,18.62,5.13,27.42
				c5.53,16.44,14.36,32.17,27.06,44.18c26.47,25.04,64.28,31.88,97.27,15.88c32.02-15.52,49.77-50.02,53.04-84.22
				c0.69-7.22,0.43-14.49,0.83-21.73c0.24-4.42-1.61,3.81,0.13-0.05c0.67-1.48,0.86-3.43,1.25-5.04c0.22-0.88,1.83-6.05,0.55-2.33
				c-1.31,3.82,1.12-2.25,1.55-3.03c1.31-2.39,6.55-7.89,1.94-3.54c1.77-1.67,4.23-3.7,5.63-5.67c2.15-3.02-4.07,2.04-0.67,0.53
				c1.33-0.59,2.63-1.62,3.87-2.4c0.83-0.52,5.23-2.86,1.55-1.04c-3.85,1.9,2.52-0.86,2.9-0.99c3.02-0.95,6.11-1.63,9.23-2.17
				c-6.18,1.08,0.47,0.21,3.01,0.2c1.59,0,3.36,0.38,4.92,0.15c4.1-0.6-4.76-1.3-0.8-0.22c3.41,0.93,6.83,1.65,10.23,2.64
				c2.13,0.62,3.62,2.56-0.78-0.36c1.23,0.82,2.76,1.42,4.03,2.17c1.31,0.77,2.53,1.72,3.84,2.47c-0.5-0.29-3.57-3.54-1.58-1.16
				c0.69,0.83,7.14,7.26,4.81,4.49c-2.54-3.02,0.59,0.87,1.11,1.74c1.03,1.73,1.99,3.49,3,5.23c0.89,1.53,1.3,4.74-0.05-0.31
				c0.44,1.65,1.12,3.26,1.58,4.91c0.42,1.48,1.86,9.26,1.56,6.67c-0.43-3.74,0.06,2.34,0.1,3.15c0.1,1.97,0.15,3.93,0.29,5.9
				c0.45,6.01,1.26,12.09,2.39,18.02c3.36,17.55,11.84,33.78,23.07,47.53c25.37,31.07,68.03,40.64,104.11,23.4
				c35.6-17.02,53.84-58.03,53.52-95.9c-0.13-15.69-13.7-30.73-30-30c-16.87,0.76-29.22,13.18-30,30c-0.2,4.36-0.4,8.72-0.6,13.08
				c20,0,40,0,60,0c-0.07-3.91-0.01-7.79,0.35-11.69c-0.55,5.88,1.07-4.5,1.44-5.87c0.47-1.77,1.08-3.49,1.6-5.25
				c0.1-0.35,1.74-4.51,0.45-1.44c-1.4,3.32,0.9-1.71,1.29-2.45c1.01-1.93,2.26-3.73,3.27-5.65c2.42-4.57,0.76-1.37-0.2-0.16
				c1.03-1.31,2.17-2.58,3.31-3.8c1.54-1.63,8.43-6.77,3.21-3.44c2.21-1.41,5.34-2.65,7.26-4.39c2.74-2.49-4.19,0.8-0.52,0.17
				c1.9-0.32,3.92-1.15,5.8-1.69c5.25-1.5,0.57-0.1-0.73-0.05c1.66-0.07,3.29-0.2,4.96-0.18c1.63,0.02,3.27,0.12,4.9,0.29
				c-1.44-0.14-5.79-1.46-0.82,0.19c1.4,0.47,3.23,1.1,4.62,1.38c-0.47-0.09-4.44-2.43-1.59-0.72c3.16,1.9,6.39,3.46,9.42,5.6
				c-5.32-3.74,2.15,2.41,3.26,3.59c1.16,1.24,2.3,2.53,3.34,3.86c-0.96-1.23-2.57-4.33-0.14,0.25c1.45,2.73,3.12,5.35,4.54,8.12
				c2.12,4.13-1.38-4.11,0.16,0.35c0.76,2.19,1.51,4.37,2.12,6.61c0.36,1.33,2.14,11.59,1.55,6.09c0.42,3.89,0.43,7.81,0.81,11.71
				c0.86,8.9,2.19,17.85,5.3,26.27c5.66,15.32,14.37,29.25,27.23,39.51c25.54,20.39,61.56,26.5,92.27,14.46
				c33.98-13.32,54.44-42.96,57.7-79.01c0.65-7.22,0.19-14.46,0.6-21.69c0.28-4.91-0.9,4.24,0.03-0.5c0.36-1.83,0.72-3.65,1.18-5.46
				c0.4-1.6,4.36-12.21,1.91-6.92c1.48-3.2,3.4-6.1,5.03-9.2c0.53-1,3.36-4.66-0.2-0.16c0.78-0.98,1.6-1.97,2.47-2.87
				c0.98-1.01,7.5-7.04,5.15-5.21c-3,2.33,1.14-0.71,1.94-1.17c1.76-1,3.5-1.98,5.29-2.93c-5.59,2.95,2.1-0.3,4.21-0.97
				c1.94-0.61,4.94,0.04-0.73-0.05c1.24,0.02,2.47-0.22,3.72-0.16c1.61,0.08,3.32,0.25,4.92,0.17c3.95-0.19-4.21-1.78-0.78,0.03
				c1.14,0.6,3.37,1.23,4.65,1.27c3.02,0.11-4.66-2.85,0.66,0.17c2.85,1.62,5.67,3.15,8.33,5.08c-4.73-3.42,0.93,1.19,2.38,2.68
				c1.18,1.22,2.3,2.49,3.4,3.78c2.91,3.4-2.4-3.73-0.04,0.14c2.09,3.44,4.11,6.78,5.85,10.41c-2.53-5.28,1.32,4.38,1.69,5.75
				c0.37,1.36,0.7,2.74,1.01,4.12c0.17,0.77,1.18,6.61,0.69,3.09c-0.5-3.58,0.13,2.51,0.18,3.29c0.12,1.95,0.19,3.91,0.36,5.86
				c0.51,5.89,1.26,11.87,2.49,17.66c3.43,16.14,11.86,31.65,23.29,43.52c26.57,27.57,70.2,33.83,104.11,17.18
				c35.39-17.38,53.49-58.6,52.77-96.49c-0.29-14.99-11.2-27.47-26.01-29.46c-14.07-1.89-29.62,6.86-32.92,21.49
				c-2.62,11.66-5.25,23.31-7.87,34.97c19.64,2.66,39.29,5.32,58.93,7.98c0.01-1.27,0.91-12.42,0.03-6.53
				c0.55-3.69,1.44-7.35,2.51-10.92c0.53-1.75,1.14-3.46,1.75-5.19c-0.17,0.47-1.89,4.06-0.38,0.98c1.75-3.57,3.76-6.88,5.88-10.23
				c3.02-4.77,0.81-0.89-0.02,0c1.14-1.23,2.23-2.5,3.42-3.69c1.18-1.17,2.42-2.25,3.65-3.37c-0.95,0.86-4.82,2.93-0.21,0.26
				c1.36-0.79,7.91-4.5,4.91-3.1c-3.56,1.66,1.06-0.38,2.03-0.65c1.93-0.54,3.95-0.89,5.85-1.49c-5.25,1.65-2.88,0.14-0.7,0.2
				c1.65,0.04,3.3-0.08,4.96-0.03c1.63,0.05,3.26,0.2,4.89,0.33c-1.21-0.1-6.14-1.36-0.86,0.04c2.48,0.66,5.39,1.98,7.91,2.22
				c3.8,0.36-3.9-2.51-0.77-0.36c1.54,1.06,3.41,1.75,5.03,2.75c1.3,0.8,2.55,1.66,3.79,2.55c-1.15-0.82-4.06-4.05-0.79-0.31
				c1.58,1.81,6.09,8.25,2.89,2.68c1.26,2.19,2.63,5.32,4.29,7.18c2.53,2.82-0.96-4.19-0.07-0.35c0.48,2.06,1.39,4.06,1.92,6.13
				c0.45,1.73,0.79,3.46,1.15,5.2c-0.26-1.29-0.34-5.78-0.02,0.31c0.2,3.91,0.18,7.83,0.46,11.73c0.67,9.21,1.98,18.65,4.77,27.49
				c5.23,16.56,14.02,32.31,26.48,44.54c26.08,25.61,63.94,32.42,97.05,17.02c32.46-15.1,50.11-49.35,54.13-83.49
				c0.46-3.89,0.61-7.75,0.7-11.67c0.04-1.95,0.1-3.89,0.16-5.83c0.01-0.38,0.5-5.03,0.05-1.57c-0.48,3.69,0.42-1.81,0.62-2.66
				c0.39-1.69,0.88-3.34,1.34-5.01c0.25-0.9,2.19-5.9,0.66-2.29c-1.6,3.78,1.26-2.26,1.67-2.97c0.79-1.37,1.69-2.65,2.52-4
				c-0.61,1.01-4.13,4.3-0.4,0.59c1.86-1.85,3.99-3.63,5.74-5.57c2.54-2.81-4.14,1.86-0.6,0.63c1.34-0.46,2.68-1.6,3.91-2.33
				c0.87-0.52,5.35-2.56,1.6-0.94c-4.06,1.75,2.71-0.79,2.95-0.86c2.24-0.66,10.86-1.67,3.69-1.22c2.87-0.18,5.72-0.42,8.6-0.37
				c1.62,0.03,3.3,0.33,4.91,0.24c4.17-0.23-4.66-1.51-0.82-0.09c3.21,1.19,6.89,1.75,10.18,2.83c-6.11-2,1.04,0.7,3.16,2
				c1.3,0.8,2.54,1.68,3.79,2.55c-0.63-0.43-3.3-3.46-1.64-1.08c0.57,0.81,6.88,7.56,4.67,4.62c-2.4-3.18,0.55,0.96,1.02,1.8
				c0.98,1.76,1.96,3.5,2.9,5.29c-2.95-5.56,0.78,2.67,1.31,4.69c0.33,1.29,0.57,2.59,0.88,3.89c1.08,4.5-0.07-4.6,0.12,0.21
				c0.38,9.97,0.96,19.87,2.72,29.72c3.14,17.63,11.32,33.91,22.42,47.81c25.02,31.33,67.42,41.65,103.75,24.66
				c35.91-16.79,54.43-57.09,54.82-95.16c0.16-15.7-13.91-30.72-30-30c-17.13,0.77-28.91,13.19-30,30
				c-0.28,4.36-0.57,8.71-0.85,13.07c20,0,40,0,60,0c0-3.89,0.03-7.82,0.57-11.68c-0.83,5.94,1.33-4.56,1.69-5.83
				c0.51-1.76,1.11-3.48,1.7-5.21c0.13-0.39,1.95-4.37,0.54-1.4c-1.54,3.26,1.01-1.67,1.4-2.39c1.05-1.91,2.27-3.71,3.38-5.59
				c2.78-4.71,0.8-1.09-0.08-0.07c1.1-1.27,2.21-2.53,3.38-3.74c1.85-1.9,8.49-5.96,3.36-3.26c2.37-1.25,5.16-2.7,7.34-4.26
				c3.07-2.2-4.21,0.58-0.47,0.3c1.85-0.14,3.98-1.12,5.83-1.58c5.5-1.36,0.43,0.1-0.71,0.09c1.59,0.01,3.41,0.03,4.96-0.08
				c1.71-0.12,5.44,1.04-0.68-0.33c1.58,0.36,3.15,0.62,4.73,1.04c1.56,0.42,3.05,1.03,4.6,1.46c-0.68-0.19-4.12-2.46-1.63-0.62
				c1.35,1,10.19,6.71,5.19,2.61c2.62,2.14,4.82,4.57,7.23,6.93c0.88,0.86,3.32,4.41,0.12-0.09c1.01,1.41,1.98,2.86,2.89,4.34
				c0.93,1.5,1.72,3.08,2.62,4.59c0.17,0.28,2.17,4.27,0.78,1.27c-1.51-3.27,0.73,1.96,1,2.74c0.75,2.19,1.43,4.4,2,6.65
				c0.46,1.84,0.83,3.67,1.21,5.53c-0.26-1.25-0.36-5.59,0.07,0.61c0.27,3.9,0.27,7.82,0.59,11.72c0.72,8.84,1.99,17.95,4.96,26.34
				c5.42,15.32,14.04,29.51,26.73,39.87c25.27,20.64,61.3,27.24,92.14,15.64c34.46-12.96,54.53-42.36,58.63-78.34
				c0.82-7.21,0.29-14.46,1-21.67c0.49-4.9-0.93,4.22,0.19-0.48c0.43-1.81,0.79-3.64,1.28-5.44c0.48-1.77,1.02-3.52,1.62-5.26
				c0.78-2.27,2.53-5.36,0.56-1.56c1.62-3.13,3.42-6.08,5.21-9.11c0.67-1.13,3.52-4.23-0.08-0.07c0.82-0.95,1.62-1.95,2.52-2.82
				c1.19-1.16,2.35-2.36,3.55-3.51c0.69-0.66,4.85-3.73,1.73-1.55c-3.13,2.19,1.22-0.66,2.01-1.08c1.79-0.95,3.5-1.97,5.35-2.83
				c-5.86,2.73,2.26-0.21,4.28-0.75c2.43-0.65,4.12,0.58-0.71,0.09c1.21,0.12,2.5-0.15,3.72-0.09c1,0.05,6.31,0.24,2.13-0.09
				c-4.09-0.33,0.93,0.22,1.98,0.52c1.49,0.42,3.11,1.16,4.63,1.36c3.13,0.4-4.71-3.02,0.59,0.31c1.69,1.06,8.93,6.14,4.1,2.07
				c2.25,1.89,4.3,3.92,6.37,6c0.61,0.61,4.01,4.72,1.76,1.84c-2.27-2.9,0.96,1.5,1.41,2.23c0.82,1.32,5.93,11.08,3.69,5.85
				c1.45,3.37,2.52,6.96,3.42,10.5c0.35,1.37,0.6,2.76,0.93,4.13c1.13,4.72-0.29-4.37,0.21,0.55c1,9.85,1.06,19.63,2.94,29.41
				c3.13,16.26,11.5,31.71,22.72,43.8c26.06,28.08,69.88,34.55,103.86,18.44c35.72-16.93,54.1-57.84,54.08-95.77
				c-0.01-15.69-13.79-30.73-30-30C1871.31,65.47,1857.55,77.92,1857.56,94.74L1857.56,94.74z"/>
		</g>
	</g>
</g>
<g id="red">
	<g>
		<g>
			<path class="st6" d="M1859.24,153.15c0,3.86-0.03,7.76-0.57,11.59c0.85-6.01-1.32,4.42-1.7,5.71c-0.51,1.75-1.13,3.44-1.7,5.17
				c0.15-0.45,1.92-4.11,0.45-0.99c-1.69,3.59-3.73,6.85-5.77,10.24c-2.84,4.72-0.78,1,0.08,0.03c-1.11,1.25-2.21,2.51-3.38,3.71
				c-1.16,1.18-2.41,2.25-3.61,3.4c0.85-0.81,4.92-3.06,0.25-0.2c-2.37,1.45-5.07,2.66-7.34,4.22c-3.13,2.15,4.22-0.56,0.47-0.32
				c-1.84,0.12-3.98,1.12-5.83,1.57c-5.51,1.34-0.42-0.1,0.71-0.1c-1.66-0.01-3.3,0.13-4.96,0.1c-1.64-0.03-3.26-0.19-4.89-0.25
				c1.1,0.04,6.3,1.34,0.85,0.08c-2.68-0.62-5.3-1.3-7.93-2.08c-1.03-0.31-5.44-2.38-1.78-0.59c3.97,1.93-1.78-1.13-2.53-1.58
				c-1.32-0.78-2.54-1.64-3.82-2.47c1.05,0.68,4.28,4.16,0.75,0.43c-1.48-1.56-6.78-8.11-2.99-2.49c-1.56-2.31-3-4.63-4.37-7.06
				c-0.48-0.85-2.32-5.56-1.03-1.99c1.41,3.9-0.76-2.85-0.96-3.6c-0.43-1.59-1.65-11.24-1.27-5.37c-0.25-3.87-0.27-7.76-0.59-11.63
				c-0.74-9.14-2.09-18.54-4.97-27.28c-5.41-16.37-14.21-32.05-26.8-44c-26.43-25.09-64.17-31.76-97.17-16
				c-32.04,15.3-50.02,49.52-53.52,83.62c-0.4,3.87-0.52,7.7-0.57,11.59c-0.02,1.93-0.07,3.86-0.1,5.79
				c-0.01,0.37-0.32,5.06,0.01,1.53c0.35-3.71-0.35,1.74-0.55,2.63c-0.37,1.68-0.86,3.33-1.29,4.99c-0.23,0.89-2.02,5.96-0.6,2.27
				c1.48-3.83-1.18,2.22-1.6,2.97c-0.77,1.37-1.66,2.66-2.47,4.01c-1.16,1.94-3.32,2.68,0.46-0.57c-1.85,1.59-4.15,3.7-5.68,5.61
				c-2.34,2.93,4.12-1.97,0.64-0.58c-1.33,0.53-2.65,1.61-3.89,2.37c-0.84,0.52-5.28,2.74-1.57,1c3.93-1.85-2.6,0.85-2.92,0.94
				c-3.03,0.93-6.12,1.62-9.24,2.12c6.22-1-0.5-0.24-3.02-0.24c-1.6,0-3.35-0.37-4.91-0.17c-4.12,0.55,4.76,1.33,0.81,0.2
				c-3.38-0.96-6.82-1.66-10.21-2.66c-2.17-0.64-3.53-2.56,0.81,0.36c-1.22-0.82-2.76-1.42-4.02-2.16c-1.3-0.77-2.52-1.71-3.82-2.47
				c0.5,0.29,3.57,3.55,1.61,1.18c-0.68-0.82-7.1-7.29-4.75-4.45c2.54,3.06-0.56-0.84-1.07-1.71c-1.01-1.72-1.97-3.46-2.96-5.2
				c-0.95-1.68-1.06-4.57,0.11,0.35c-0.39-1.63-1.1-3.26-1.54-4.88c-0.41-1.5-1.71-9.25-1.47-6.59c0.33,3.78,0-2.27-0.04-3.1
				c-0.09-1.95-0.11-3.9-0.25-5.85c-0.4-5.98-1.22-12.04-2.31-17.94c-3.22-17.47-11.65-33.64-22.78-47.31
				c-25.32-31.09-67.87-40.48-103.95-23.48c-35.62,16.79-54.1,57.4-54.09,95.21c0,15.69,13.8,30.73,30,30
				c17.13-0.77,28.9-13.19,30-30c0.28-4.32,0.57-8.64,0.85-12.96c-20,0-40,0-60,0c-0.01,1.32-0.94,12.37-0.03,6.41
				c-0.56,3.66-1.44,7.29-2.51,10.84c-0.53,1.74-1.14,3.44-1.75,5.15c0.17-0.47,1.9-4.09,0.38-1.03c-1.76,3.54-3.74,6.83-5.88,10.15
				c3.14-4.87-1.88,2.1-3.41,3.61c-1.18,1.16-2.42,2.24-3.65,3.35c0.98-0.88,4.8-2.89,0.21-0.29c-1.37,0.77-7.93,4.44-4.91,3.06
				c3.58-1.64-1.07,0.36-2.03,0.63c-1.93,0.53-3.95,0.89-5.85,1.48c5.31-1.64,2.85-0.14,0.7-0.21c-1.6-0.05-3.39-0.05-4.96,0.01
				c-2.05,0.08-4.81-1.36,0.68,0.23c-1.54-0.45-3.16-0.67-4.71-1.1c-1.55-0.44-3.05-1-4.58-1.52c0.8,0.27,3.93,2.45,1.66,0.56
				c-1.25-1.03-10.04-6.97-5.11-2.72c-2.56-2.2-4.8-4.58-7.16-6.98c-0.92-0.94-3.11-4.42-0.06,0.06c-0.98-1.43-1.94-2.86-2.84-4.34
				c-0.91-1.5-1.69-3.07-2.57-4.59c-0.18-0.31-2.07-4.3-0.73-1.27c1.46,3.32-0.67-1.94-0.94-2.73c-0.73-2.18-1.38-4.39-1.93-6.63
				c-0.44-1.82-0.81-3.66-1.15-5.5c0.24,1.34,0.33,5.49,0.02-0.56c-0.2-3.88-0.17-7.77-0.46-11.64c-0.66-8.8-1.85-17.87-4.76-26.25
				c-5.31-15.29-13.86-29.54-26.45-39.94c-25.13-20.76-61.1-27.68-92.05-16.51c-34.38,12.41-54.9,41.66-59.17,77.39
				c-0.45,3.78-0.61,7.52-0.7,11.33c-0.05,1.95-0.1,3.9-0.16,5.85c-0.01,0.29-0.43,5.05-0.05,1.72c0.41-3.59-0.44,2.17-0.62,2.98
				c-0.39,1.81-0.83,3.6-1.34,5.38c-0.5,1.75-1.1,3.47-1.67,5.19c-1.06,3.19,2.06-3.33-0.65,1.44c-1.73,3.03-3.41,6.02-5.3,8.96
				c3.01-4.66-1.1,1.25-2.54,2.72c-1.13,1.16-2.62,2.16-3.59,3.42c-2.4,3.12,3.78-1.89,0.28-0.16c-1.6,0.79-11.08,5.56-4.54,3.21
				c-3.06,1.1-6.11,1.89-9.26,2.66c5.89-1.43-0.33-0.23-3.03-0.17c-1.06,0.03-6.23-0.65-2.13,0.01c4.11,0.66-1-0.31-1.97-0.6
				c-1.51-0.46-3.08-1.12-4.62-1.42c-3.2-0.61,4.76,3.14-0.56-0.4c-1.76-1.17-8.59-6.37-4.03-2.17c-2.15-1.98-4.27-3.94-6.3-6.05
				c-0.61-0.63-3.89-4.79-1.7-1.86c2.22,2.96-0.92-1.51-1.36-2.24c-0.84-1.39-5.69-11.14-3.55-5.85c-1.37-3.39-2.44-6.92-3.31-10.47
				c-0.33-1.36-0.58-2.74-0.88-4.11c-1.03-4.73,0.27,4.41-0.12-0.5c-0.77-9.84-0.87-19.5-2.71-29.26
				c-3.08-16.31-11.26-31.57-22.39-43.78c-25.72-28.21-69.73-35.15-103.71-19.34c-35.79,16.65-54.44,56.65-54.83,94.61
				c-0.35,33.62,50.47,41.02,58.93,7.98c2.99-11.67,5.98-23.35,8.96-35.02c-19.64-2.66-39.29-5.32-58.93-7.98
				c0.07,3.88,0.01,7.73-0.36,11.59c0.57-5.95-1.06,4.36-1.44,5.76c-0.47,1.76-1.07,3.46-1.6,5.2c-0.11,0.37-1.77,4.48-0.45,1.4
				c1.44-3.33-0.9,1.66-1.29,2.4c-1.02,1.91-2.25,3.7-3.27,5.6c-2.48,4.6-0.74,1.27,0.2,0.11c-1.05,1.3-2.16,2.56-3.31,3.77
				c-1.6,1.69-8.45,6.59-3.21,3.37c-2.24,1.37-5.31,2.65-7.26,4.36c-2.8,2.45,4.21-0.78,0.52-0.2c-1.89,0.3-3.93,1.15-5.8,1.68
				c-5.26,1.49-0.56,0.1,0.73,0.04c-1.66,0.08-3.29,0.19-4.96,0.19c-2.63,0.01-10.86-1.73-4.06,0.06c-2.64-0.69-5.33-1.24-7.97-1.94
				c-0.98-0.26-5.62-2.08-1.82-0.49c4.05,1.69-1.8-1.02-2.59-1.46c-1.33-0.75-2.56-1.61-3.86-2.4c-1.98-1.19-2.55-3.26,0.67,0.53
				c-1.96-2.31-4.42-4.24-6.39-6.59c3.84,4.55-0.01-0.69-1.25-2.73c-0.48-0.79-2.69-5.46-1.14-1.95c1.66,3.76-0.86-2.77-1.1-3.55
				c-0.41-1.39-2.19-11.35-1.52-5.32c-0.43-3.86-0.43-7.75-0.8-11.62c-0.89-9.18-2.27-18.47-5.33-27.2
				c-5.72-16.28-14.52-31.89-27.37-43.64c-26.84-24.54-64.48-31.16-97.37-14.86c-31.77,15.75-49.42,50.17-52.43,84.34
				c-0.63,7.13-0.5,14.41-0.6,21.57c-0.06,4.45,1.52-3.96-0.05,0c-0.61,1.55-0.74,3.39-1.2,5.01c-0.45,1.6-1.16,3.16-1.54,4.77
				c-0.74,3.14,2.52-3.87-0.43,0.57c-1.32,1.99-6.49,8.29-1.84,3.56c-1.68,1.71-4.31,3.71-5.57,5.71c-1.95,3.1,4.03-2.15,0.72-0.48
				c-1.33,0.67-2.54,1.69-3.84,2.44c-1.31,0.76-2.8,1.32-4.05,2.15c-2.83,1.88,6.01-1.51-0.35,0.01c-3.08,0.74-6.1,1.63-9.2,2.29
				c6.06-1.29-0.38-0.08-3-0.04c-1.37,0.02-10.66-0.73-6.92-0.13c4.17,0.67-0.85-0.23-1.84-0.51c-1.86-0.52-3.75-1.1-5.61-1.57
				c-1.76-0.44-4.5-2.45,0.76,0.48c-1.33-0.74-2.73-1.34-4.06-2.09c-1.4-0.79-7.09-5.08-4.46-2.79c2.87,2.49-3.57-4.06-4.38-4.79
				c-2.75-2.46,1.55,4.02,0.47,0.48c-0.45-1.47-2.28-3.91-3.05-5.14c-0.8-1.27-1.84-5.02-0.02,0.41c-0.54-1.62-1.15-3.2-1.63-4.85
				c-0.42-1.42-2.1-9.27-1.67-6.55c0.59,3.74-0.12-2.24-0.17-3.09c-0.12-1.95-0.19-3.9-0.35-5.85c-0.51-5.98-1.3-12.03-2.5-17.92
				c-3.55-17.43-12.15-33.43-23.42-47.02c-25.52-30.79-68.62-39.62-104.29-22.21c-35.28,17.23-53.5,58.16-52.79,95.93
				c0.3,15.68,13.59,30.74,30,30c16.88-0.76,29.21-13.18,30-30c0.2-4.33,0.41-8.65,0.61-12.98c-20,0-40,0-60,0
				c0.03,3.87-0.01,7.74-0.48,11.59c0.73-6-1.21,4.38-1.59,5.72c-0.49,1.75-1.09,3.45-1.66,5.18c-0.13,0.4-1.9,4.39-0.5,1.37
				c1.53-3.3-0.95,1.62-1.35,2.35c-1.04,1.9-2.25,3.68-3.33,5.55c-2.72,4.68-0.76,1.08,0.13,0.04c-1.09,1.27-2.19,2.52-3.35,3.72
				c-1.84,1.9-8.47,5.98-3.3,3.23c-2.35,1.25-5.16,2.68-7.31,4.25c-3.05,2.23,4.23-0.61,0.49-0.3c-1.85,0.16-3.97,1.12-5.82,1.59
				c-5.46,1.38-0.44-0.07,0.71-0.07c-1.59,0-3.41-0.02-4.96,0.1c-1.59,0.13-5.67-0.9,0.67,0.37c-1.59-0.32-3.16-0.6-4.73-1.02
				c-1.55-0.41-3.06-1.05-4.61-1.43c0.6,0.15,4.25,2.46,1.61,0.66c-3.02-2.06-6.42-3.43-9.36-5.69c5.32,4.09-2.15-2.71-3.17-3.66
				c-0.83-0.77-3.57-4.38-0.17,0.15c-1.03-1.38-2.01-2.84-2.93-4.29c-1.65-2.62-3.09-5.34-4.45-8.12c-2.04-4.15,1.37,4.14-0.08-0.33
				c-0.71-2.19-1.46-4.36-2.05-6.59c-0.38-1.44-1.85-11.55-1.39-6.01c-0.32-3.87-0.34-7.76-0.68-11.62
				c-0.78-8.83-2.07-17.81-5.1-26.18c-5.53-15.29-14.19-29.29-26.94-39.58c-25.38-20.49-61.38-26.97-92.2-15.33
				c-34.06,12.86-54.68,42.2-58.25,78.07c-0.71,7.16-0.24,14.33-0.84,21.5c-0.4,4.88,0.93-4.27-0.13,0.42
				c-0.41,1.8-0.76,3.61-1.24,5.4c-0.47,1.76-4.69,11.89-2.07,6.73c-1.58,3.12-3.39,6.04-5.14,9.05c-0.66,1.13-3.51,4.26,0.13,0.04
				c-0.81,0.94-1.61,1.94-2.5,2.81c-1.18,1.16-2.34,2.34-3.53,3.49c-0.69,0.66-4.82,3.73-1.7,1.54c3.13-2.21-1.19,0.64-1.98,1.07
				c-1.78,0.95-3.49,1.96-5.32,2.83c5.85-2.76-2.22,0.21-4.25,0.77c-2.35,0.65-4.25-0.5,0.71-0.07c-1.21-0.11-2.5,0.14-3.72,0.11
				c-1-0.03-6.31-0.1-2.14,0.12c4.06,0.21-0.91-0.19-1.99-0.49c-1.48-0.41-3.14-1.19-4.64-1.33c-3.1-0.29,4.71,2.95-0.62-0.25
				c-2.8-1.69-5.66-3.17-8.28-5.16c4.67,3.55-0.83-1.32-2.3-2.74c-0.61-0.59-4.13-4.62-1.8-1.79c2.34,2.84-0.98-1.43-1.46-2.17
				c-2.14-3.35-4.09-6.79-5.74-10.41c2.46,5.42-1.2-4.36-1.55-5.71c-0.36-1.36-0.67-2.72-0.96-4.1c-0.17-0.8-0.98-6.6-0.61-3.05
				c0.38,3.62-0.06-2.46-0.1-3.24c-0.1-1.94-0.14-3.88-0.29-5.82c-0.45-5.87-1.21-11.82-2.38-17.6
				c-3.27-16.14-11.67-31.57-22.96-43.49C28.57,61.25-15.07,54.81-49.08,70.97c-35.49,16.87-53.85,57.59-53.54,95.35
				c0.13,15.69,13.71,30.73,30,30c16.14-0.72,30.14-13.18,30-30c-0.03-3.87,0.01-7.74,0.48-11.59c-0.73,6,1.21-4.38,1.59-5.72
				c0.49-1.75,1.09-3.45,1.66-5.18c0.13-0.4,1.9-4.39,0.5-1.37c-1.53,3.3,0.95-1.62,1.35-2.35c1.04-1.9,2.25-3.68,3.33-5.55
				c2.72-4.68,0.76-1.08-0.13-0.04c1.09-1.27,2.19-2.52,3.35-3.72c1.84-1.9,8.47-5.98,3.3-3.23c2.35-1.25,5.16-2.68,7.31-4.25
				c3.05-2.23-4.23,0.61-0.49,0.3c1.85-0.16,3.97-1.12,5.82-1.59c5.46-1.38,0.44,0.06-0.71,0.07c1.66-0.01,3.29-0.14,4.96-0.12
				c1.64,0.02,3.26,0.19,4.89,0.23c-1.07-0.03-6.33-1.33-0.84-0.11c2.69,0.6,5.31,1.29,7.95,2.06c1.01,0.29,5.49,2.31,1.8,0.57
				c-3.99-1.87,1.8,1.11,2.56,1.56c1.32,0.77,2.55,1.64,3.84,2.45c-1.02-0.64-4.34-4.18-0.71-0.45c1.43,1.47,7.07,8.03,3.05,2.46
				c1.63,2.26,3.03,4.63,4.42,7.04c0.48,0.82,2.47,5.53,1.08,1.98c-1.51-3.85,0.8,2.83,1.02,3.59c0.42,1.5,1.88,11.3,1.38,5.36
				c0.33,3.87,0.34,7.76,0.68,11.62c0.8,9.16,2.16,18.52,5.13,27.26c5.54,16.36,14.36,32.02,27.05,43.93
				c26.55,24.91,64.26,31.68,97.27,15.78c31.94-15.39,49.77-49.67,53.06-83.76c0.69-7.17,0.42-14.37,0.83-21.55
				c0.26-4.4-1.64,3.83,0.14,0.02c0.68-1.46,0.86-3.41,1.25-5c0.22-0.89,1.88-6.01,0.55-2.28c-1.36,3.84,1.12-2.2,1.55-2.98
				c1.38-2.5,6.58-7.67,1.94-3.46c1.8-1.63,4.19-3.69,5.63-5.63c2.23-2.99-4.1,2.02-0.67,0.56c1.33-0.57,2.63-1.61,3.87-2.39
				c0.83-0.52,5.25-2.81,1.55-1.02c-3.89,1.88,2.54-0.85,2.9-0.97c3.02-0.95,6.11-1.62,9.23-2.16c-6.19,1.06,0.47,0.21,3.01,0.2
				c1.59,0,3.37,0.38,4.92,0.15c4.1-0.62-4.77-1.28-0.8-0.23c3.41,0.9,6.83,1.65,10.23,2.62c2.06,0.59,3.78,2.55-0.78-0.38
				c1.25,0.81,2.75,1.4,4.03,2.15c1.3,0.76,2.53,1.73,3.84,2.45c-0.46-0.25-3.64-3.56-1.58-1.19c0.71,0.82,7.2,7.2,4.81,4.43
				c-2.58-2.99,0.58,0.82,1.11,1.7c1.03,1.71,1.98,3.47,3,5.19c0.89,1.5,1.37,4.78-0.06-0.36c0.45,1.64,1.12,3.23,1.58,4.87
				c0.41,1.46,1.87,9.27,1.56,6.58c-0.44-3.77,0.05,2.27,0.1,3.1c0.1,1.95,0.15,3.9,0.29,5.85c0.45,5.98,1.26,12.04,2.39,17.94
				c3.36,17.46,11.85,33.6,23.06,47.25c25.41,30.97,68.09,40.34,104.1,23.23c35.49-16.87,53.85-57.59,53.54-95.35
				c-0.13-15.69-13.71-30.73-30-30c-16.88,0.76-29.21,13.18-30,30c-0.2,4.33-0.41,8.65-0.61,12.98c20,0,40,0,60,0
				c-0.07-3.88-0.01-7.73,0.36-11.59c-0.57,5.95,1.06-4.36,1.44-5.76c0.47-1.76,1.07-3.46,1.6-5.2c0.11-0.37,1.77-4.48,0.45-1.4
				c-1.44,3.33,0.9-1.66,1.29-2.4c1.02-1.91,2.25-3.7,3.27-5.6c2.48-4.6,0.74-1.27-0.2-0.11c1.05-1.3,2.16-2.56,3.31-3.77
				c1.6-1.69,8.45-6.59,3.21-3.37c2.24-1.37,5.31-2.65,7.26-4.36c2.8-2.45-4.21,0.78-0.52,0.2c1.89-0.3,3.93-1.15,5.8-1.68
				c5.26-1.49,0.56-0.09-0.73-0.04c1.66-0.07,3.29-0.2,4.96-0.18c1.63,0.02,3.27,0.13,4.9,0.28c-1.43-0.14-5.81-1.46-0.82,0.18
				c1.56,0.51,8.41,3.07,5.51,1.67c-3.58-1.73,1.03,0.69,1.82,1.2c1.72,1.1,3.44,2.17,5.13,3.31c-5.35-3.61,2.08,2.28,3.25,3.52
				c1.16,1.23,2.29,2.51,3.34,3.83c-0.94-1.18-2.64-4.41-0.14,0.19c1.47,2.71,3.11,5.31,4.54,8.05c2.14,4.1-1.4-4.14,0.16,0.29
				c0.76,2.17,1.51,4.34,2.12,6.56c0.37,1.34,2.15,11.59,1.54,5.97c0.42,3.86,0.43,7.75,0.8,11.62c0.86,8.86,2.19,17.75,5.29,26.12
				c6.45,17.38,16.67,31.48,31.49,42.6c24.31,18.25,59.84,22.08,88,11.08c33.88-13.23,54.44-42.65,57.72-78.62
				c0.65-7.16,0.19-14.34,0.6-21.51c0.29-4.89-0.91,4.28,0.04-0.44c0.36-1.82,0.73-3.62,1.18-5.42c0.42-1.65,4.42-12.12,1.91-6.81
				c1.5-3.17,3.38-6.06,5.04-9.13c0.56-1.04,3.4-4.56-0.2-0.11c0.78-0.97,1.6-1.95,2.47-2.85c0.99-1.01,7.53-6.97,5.15-5.15
				c-3.04,2.31,1.14-0.69,1.95-1.14c1.76-0.99,3.49-1.97,5.29-2.91c-5.64,2.93,2.12-0.28,4.21-0.94c1.95-0.61,4.91,0.06-0.73-0.04
				c1.24,0.02,2.47-0.22,3.72-0.16c1.6,0.08,3.32,0.25,4.92,0.17c3.96-0.21-4.23-1.76-0.78,0.02c1.32,0.68,3.19,0.86,4.65,1.26
				c2.23,0.61,5.18,3.21,0.65,0.14c2.67,1.82,5.66,3.15,8.33,5.04c-4.75-3.36,0.9,1.1,2.37,2.62c1.18,1.21,2.29,2.48,3.4,3.75
				c2.93,3.35-2.37-3.77-0.04,0.09c2.06,3.43,4.09,6.73,5.85,10.33c-2.59-5.28,1.3,4.21,1.69,5.64c0.37,1.35,0.7,2.71,1,4.08
				c0.17,0.79,1.19,6.59,0.68,3.03c-0.51-3.6,0.13,2.44,0.18,3.23c0.12,1.94,0.18,3.88,0.35,5.82c0.51,5.86,1.25,11.82,2.49,17.58
				c3.43,16.05,11.87,31.51,23.28,43.27c26.66,27.45,70.18,33.62,104.1,17.06c35.28-17.23,53.5-58.16,52.79-95.93
				c-0.63-33.25-50.36-41.46-58.93-7.98c-2.99,11.67-5.98,23.35-8.96,35.02c19.64,2.66,39.29,5.32,58.93,7.98
				c0.01-1.32,0.94-12.37,0.03-6.41c0.56-3.66,1.44-7.29,2.51-10.84c0.53-1.74,1.14-3.44,1.75-5.15c-0.17,0.47-1.9,4.09-0.38,1.03
				c1.76-3.54,3.74-6.83,5.88-10.15c-3.14,4.87,1.88-2.1,3.41-3.61c1.18-1.16,2.41-2.24,3.65-3.35c-0.98,0.88-4.8,2.89-0.21,0.29
				c1.37-0.77,7.93-4.44,4.91-3.06c-3.58,1.64,1.07-0.36,2.03-0.63c1.93-0.53,3.95-0.89,5.85-1.48c-5.31,1.64-2.85,0.15-0.7,0.21
				c1.65,0.04,3.3-0.08,4.96-0.03c1.63,0.05,3.26,0.2,4.89,0.32c-1.2-0.09-6.16-1.36-0.86,0.03c2.46,0.64,5.41,2.01,7.91,2.2
				c3.79,0.3-3.93-2.49-0.77-0.38c1.56,1.04,3.41,1.74,5.03,2.72c1.3,0.79,2.54,1.65,3.79,2.52c-1.12-0.79-4.12-4.09-0.79-0.35
				c1.57,1.76,6.24,8.22,2.89,2.61c1.28,2.14,2.61,5.32,4.29,7.12c2.57,2.75-1-4.21-0.07-0.41c0.5,2.04,1.39,4.03,1.92,6.08
				c0.45,1.71,0.78,3.43,1.15,5.16c-0.27-1.27-0.34-5.84-0.02,0.24c0.2,3.88,0.18,7.76,0.46,11.64c0.67,9.16,1.97,18.55,4.76,27.33
				c5.24,16.47,14.02,32.16,26.47,44.28c26.17,25.49,63.93,32.25,97.05,16.91c32.37-14.99,50.12-48.98,54.14-83.03
				c0.46-3.86,0.61-7.69,0.7-11.58c0.05-1.93,0.1-3.85,0.16-5.79c0.01-0.41,0.52-5.01,0.05-1.52c-0.5,3.72,0.42-1.74,0.62-2.61
				c0.39-1.68,0.88-3.32,1.34-4.97c0.26-0.92,2.24-5.85,0.66-2.24c-1.66,3.8,1.26-2.2,1.67-2.92c0.79-1.36,1.69-2.64,2.52-3.97
				c-0.64,1.03-4.13,4.27-0.4,0.64c1.06-1.03,6.36-6.2,3.6-3.87c-3.06,2.59,0.64-0.45,1.54-0.99c1.3-0.79,2.61-1.55,3.91-2.31
				c0.88-0.52,5.36-2.51,1.6-0.92c-4.09,1.72,2.73-0.78,2.95-0.85c2.26-0.66,10.85-1.62,3.69-1.2c2.87-0.17,5.72-0.42,8.6-0.37
				c1.62,0.03,3.31,0.34,4.91,0.24c4.17-0.25-4.67-1.5-0.82-0.1c3.21,1.17,6.88,1.76,10.18,2.81c-6.1-1.95,1.01,0.65,3.16,1.96
				c1.3,0.79,2.52,1.68,3.79,2.52c-0.6-0.4-3.38-3.49-1.64-1.11c0.59,0.81,6.93,7.5,4.67,4.56c-2.44-3.16,0.54,0.91,1.02,1.76
				c0.98,1.75,1.95,3.48,2.9,5.24c-0.57-1.04-1.86-5.7-0.18-0.31c0.51,1.64,1.05,3.24,1.49,4.9c0.33,1.28,0.57,2.57,0.88,3.85
				c1.1,4.48-0.08-4.64,0.11,0.14c0.4,9.91,0.96,19.75,2.71,29.54c3.15,17.54,11.34,33.73,22.42,47.53
				c25.06,31.23,67.5,41.36,103.74,24.49c35.79-16.65,54.44-56.65,54.83-94.61c0.16-15.7-13.92-30.72-30-30
				c-17.13,0.77-28.9,13.19-30,30c-0.28,4.32-0.57,8.64-0.85,12.96c20,0,40,0,60,0c0-3.86,0.03-7.76,0.57-11.59
				c-0.85,6.01,1.32-4.42,1.7-5.71c0.51-1.75,1.13-3.44,1.7-5.17c-0.15,0.45-1.92,4.11-0.45,0.99c1.69-3.59,3.73-6.85,5.77-10.24
				c2.84-4.72,0.78-1-0.08-0.03c1.11-1.25,2.21-2.51,3.38-3.71c1.16-1.18,2.41-2.25,3.61-3.4c-0.85,0.81-4.92,3.06-0.25,0.2
				c2.37-1.45,5.07-2.66,7.34-4.22c3.13-2.15-4.22,0.56-0.47,0.32c1.84-0.12,3.98-1.12,5.83-1.57c5.51-1.34,0.42,0.1-0.71,0.1
				c1.58,0.01,3.41,0.03,4.96-0.08c1.68-0.12,5.5,1.01-0.68-0.34c1.59,0.35,3.15,0.61,4.73,1.03c1.55,0.41,3.05,1.03,4.6,1.45
				c-0.65-0.17-4.18-2.47-1.63-0.64c1.39,0.99,10.25,6.62,5.19,2.55c2.63,2.11,4.81,4.55,7.23,6.87c0.87,0.83,3.41,4.4,0.12-0.13
				c1.01,1.4,1.98,2.84,2.89,4.3c1.63,2.62,3.07,5.34,4.39,8.13c1.97,4.18-1.35-4.14,0.02,0.35c0.67,2.2,1.43,4.36,2,6.6
				c0.39,1.52,1.62,11.5,1.28,6.02c0.24,3.87,0.27,7.76,0.59,11.63c0.72,8.79,1.98,17.84,4.95,26.19
				c5.43,15.27,14.05,29.35,26.73,39.66c25.3,20.57,61.3,27.09,92.14,15.57c34.36-12.85,54.54-42.07,58.64-77.95
				c0.82-7.15,0.29-14.34,1.01-21.5c0.49-4.87-0.95,4.26,0.19-0.41c0.44-1.8,0.79-3.61,1.28-5.4c0.48-1.76,1.09-3.48,1.62-5.22
				c0.99-3.24-2.03,3.37,0.56-1.49c1.64-3.09,3.4-6.04,5.21-9.04c0.7-1.17,3.55-4.12-0.08-0.03c0.83-0.94,1.62-1.93,2.52-2.8
				c1.13-1.08,2.71-2.2,3.56-3.48c2.17-3.26-3.7,2.06-0.33,0.08c3.17-1.86,6.05-3.91,9.42-5.45c-5.9,2.7,2.28-0.19,4.28-0.72
				c2.44-0.65,4.09,0.59-0.71,0.1c1.21,0.12,2.5-0.15,3.72-0.09c1,0.05,6.31,0.21,2.13-0.1c-4.09-0.3,0.93,0.21,1.98,0.51
				c1.49,0.42,3.12,1.17,4.63,1.35c3.12,0.36-4.72-3,0.59,0.28c1.66,1.03,9.06,6.05,4.1,2.02c2.27,1.84,4.3,3.9,6.37,5.95
				c0.61,0.61,4.05,4.68,1.76,1.8c-2.3-2.89,0.96,1.45,1.41,2.19c2.08,3.38,4.08,6.78,5.66,10.44c-2.38-5.51,1.11,4.42,1.45,5.73
				c0.35,1.36,0.65,2.73,0.93,4.1c0.17,0.82,0.83,6.6,0.55,3.05c-0.29-3.63,0.01,2.46,0.04,3.25c0.09,1.94,0.11,3.88,0.24,5.82
				c0.4,5.87,1.18,11.82,2.31,17.6c3.14,16.17,11.51,31.57,22.72,43.55c26.16,27.96,69.87,34.34,103.86,18.33
				c35.62-16.79,54.1-57.4,54.09-95.21c0-15.69-13.8-30.73-30-30C1872.99,123.88,1859.23,136.33,1859.24,153.15L1859.24,153.15z"/>
		</g>
	</g>
</g>
</svg>
