<?xml version="1.0" encoding="utf-8"?>
<!-- Generator: Adobe Illustrator 23.0.1, SVG Export Plug-In . SVG Version: 6.00 Build 0)  -->
<svg version="1.1" id="Layer_1" xmlns="http://www.w3.org/2000/svg" xmlns:xlink="http://www.w3.org/1999/xlink" x="0px" y="0px"
	 viewBox="0 0 1700 900" style="enable-background:new 0 0 1700 900;" xml:space="preserve">
<style type="text/css">
	.st0{display:none;}
	.st1{display:inline;}
	.st2{display:inline;fill:#80A5C7;}
	.st3{fill:#69A1A5;}
	.st4{fill:#566D79;}
	.st5{fill:#DBB647;}
	.st6{fill:#C46A6A;}
</style>
<g class="st0">
	<g class="st1">
		<g>
			<path d="M309.6-343.2c0-3.2,0.2-6.4,0.6-9.6c-0.4,2.7-0.7,5.3-1.1,8c0.8-5.3,2.2-10.4,4.3-15.4c-1,2.4-2,4.8-3,7.2
				c1.5-3.4,3.2-6.7,5.3-9.8c0.5-0.7,1-1.4,1.5-2.1c1.7-2.8-4.5,5.3-2.3,3c1.4-1.4,2.5-3,3.9-4.3c1.2-1.2,2.5-2.3,3.8-3.5
				c3-2.8-3,2.5-3,2.3c0-0.2,1.9-1.4,2.1-1.5c3.2-2.2,6.7-4.1,10.3-5.7c-2.4,1-4.8,2-7.2,3c5.4-2.3,11-3.8,16.7-4.5
				c-2.7,0.4-5.3,0.7-8,1.1c6.4-0.7,12.8-0.5,19.2,0.3c-2.7-0.4-5.3-0.7-8-1.1c6,0.9,11.8,2.4,17.4,4.6c-2.4-1-4.8-2-7.2-3
				c3,1.3,5.9,2.7,8.7,4.5c1.4,0.9,2.6,1.8,4,2.7c-8.3-5.5-3.6-2.8-1.5-0.9c1.1,1.1,2.2,2.3,3.3,3.4c3.3,3.5-5-7.1-1.1-1.4
				c1.8,2.7,3.3,5.5,4.5,8.4c-1-2.4-2-4.8-3-7.2c1.8,4.4,2.9,8.8,3.5,13.4c-0.4-2.7-0.7-5.3-1.1-8c1.1,9.7,1,19.4,3.4,29
				c2.2,9,6.1,18,11.2,25.8c11.7,17.9,28,30.4,47.9,37.9c17.6,6.6,39.4,6.7,57.2,0.8c20.3-6.8,36.5-19.4,48.8-36.7
				c5.7-8.1,9.9-17.8,12.4-27.3c2.8-10.8,2.2-21.4,3.5-32.3c-0.4,2.7-0.7,5.3-1.1,8c0.6-4.6,1.8-9,3.5-13.3c-1,2.4-2,4.8-3,7.2
				c1.3-2.9,2.7-5.8,4.5-8.4c3.9-5.7-4.4,4.9-1.1,1.4c1.1-1.1,2.1-2.3,3.3-3.4c2-1.9,6.8-4.8-1.5,0.9c1.3-0.9,2.6-1.9,4-2.7
				c2.8-1.8,5.7-3.2,8.7-4.5c-2.4,1-4.8,2-7.2,3c6.1-2.5,12.3-4,18.8-4.9c-2.7,0.4-5.3,0.7-8,1.1c7.3-0.9,14.6-0.9,21.9,0.1
				c-2.7-0.4-5.3-0.7-8-1.1c6,0.9,11.8,2.4,17.4,4.6c-2.4-1-4.8-2-7.2-3c3,1.3,5.9,2.7,8.7,4.5c1.4,0.9,2.6,1.8,4,2.7
				c-8.3-5.5-3.6-2.8-1.5-0.9c1.2,1.1,2.2,2.3,3.3,3.4c3.3,3.5-5-7.1-1.1-1.4c1.8,2.7,3.3,5.5,4.5,8.4c-1-2.4-2-4.8-3-7.2
				c1.8,4.4,2.9,8.8,3.5,13.4c-0.4-2.7-0.7-5.3-1.1-8c1.1,9.5,1,19,3.2,28.3c2.1,8.8,5.8,17.7,10.6,25.4
				c10.2,16.3,24.9,29,42.5,36.5c35.1,14.8,79.1,6.5,104.2-23.3c14.8-17.5,23.3-38.5,23.2-61.7c0-15.7-13.8-30.7-30-30
				c-17.4,0.8-28.6,13.2-30,30c-0.3,3.6-0.6,7.3-0.9,10.9c20,0,40,0,60,0c0-2.8,0.2-5.5,0.5-8.3c-0.4,2.7-0.7,5.3-1.1,8
				c0.8-5.3,2.2-10.5,4.2-15.5c-1,2.4-2,4.8-3,7.2c1.5-3.4,3.2-6.7,5.2-9.8c0.1-0.2,1.7-2.8,1.8-2.7c0.1,0-5,6.1-2.3,3
				c1.3-1.5,2.5-2.9,3.9-4.3c1.2-1.2,2.5-2.4,3.8-3.5c1.9-1.7,4.6-2.2-2.5,1.9c0.7-0.4,1.4-1,2.1-1.5c3.3-2.2,6.8-4,10.4-5.5
				c-2.4,1-4.8,2-7.2,3c5-2,10.1-3.4,15.5-4.2c-2.7,0.4-5.3,0.7-8,1.1c5.5-0.7,11-0.7,16.5,0c-2.7-0.4-5.3-0.7-8-1.1
				c5.3,0.8,10.5,2.1,15.5,4.2c-2.4-1-4.8-2-7.2-3c3.4,1.5,6.7,3.2,9.8,5.2c0.2,0.1,2.8,1.6,2.7,1.8c0,0.1-6.1-5-3-2.3
				c1.5,1.3,2.9,2.5,4.3,3.9c1.2,1.2,2.4,2.5,3.5,3.8c1.7,1.9,2.2,4.6-1.9-2.5c0.4,0.7,1,1.4,1.5,2.1c2.2,3.3,4,6.8,5.5,10.4
				c-1-2.4-2-4.8-3-7.2c2,5,3.4,10.1,4.2,15.5c-0.4-2.7-0.7-5.3-1.1-8c1.2,9.9,0.8,19.6,3.1,29.4c2,8.3,5.5,16.7,10.4,23.7
				c11.6,16.7,27.6,28.2,47,34.4c34.1,10.9,79.3,3.4,103.2-25c7.7-9.2,13.6-19,16.9-30.6c3.1-10.5,2.5-21.2,3.8-31.9
				c-0.4,2.7-0.7,5.3-1.1,8c0.8-5.3,2.2-10.5,4.2-15.5c-1,2.4-2,4.8-3,7.2c1.5-3.4,3.2-6.7,5.2-9.8c0.1-0.2,1.7-2.8,1.8-2.7
				c0.1,0-5,6.1-2.3,3c1.3-1.5,2.6-2.9,3.9-4.3c1.2-1.2,2.5-2.4,3.8-3.5c1.9-1.7,4.6-2.2-2.5,1.9c0.7-0.4,1.4-1,2.1-1.5
				c3.3-2.2,6.8-4,10.4-5.5c-2.4,1-4.8,2-7.2,3c5-2,10.1-3.4,15.4-4.2c-2.7,0.4-5.3,0.7-8,1.1c5.5-0.7,11-0.7,16.5,0
				c-2.7-0.4-5.3-0.7-8-1.1c5.3,0.8,10.4,2.1,15.4,4.2c-2.4-1-4.8-2-7.2-3c3.4,1.5,6.7,3.2,9.8,5.2c0.2,0.1,2.8,1.6,2.7,1.8
				c-0.1,0.1-6.1-5-3-2.3c1.5,1.3,2.9,2.5,4.3,3.9c1.2,1.2,2.4,2.5,3.5,3.8c1.7,1.9,2.2,4.6-1.9-2.5c0.4,0.7,1,1.4,1.5,2.1
				c2.2,3.3,4,6.8,5.5,10.4c-1-2.4-2-4.8-3-7.2c2,5,3.4,10.1,4.2,15.5c-0.4-2.7-0.7-5.3-1.1-8c1.2,9.5,0.8,18.7,2.8,28.2
				c1.8,8.3,5.3,16.9,10,24c11,16.7,26.6,27.8,45.3,34.5c34.6,12.5,77.6,3.5,102-24.8c15-17.4,23.5-38.4,23.8-61.5
				c0.2-15.7-13.9-30.7-30-30c-16.4,0.7-29.8,13.2-30,30c0,2.8-0.2,5.5-0.6,8.3c0.4-2.7,0.7-5.3,1.1-8c-0.8,5.3-2.2,10.5-4.2,15.5
				c1-2.4,2-4.8,3-7.2c-1.5,3.4-3.2,6.7-5.2,9.8c-0.1,0.2-1.7,2.8-1.8,2.7c-0.1,0,5-6.1,2.3-3c-1.3,1.5-2.6,2.9-3.9,4.3
				c-1.2,1.2-2.5,2.4-3.8,3.5c-1.9,1.7-4.6,2.2,2.5-1.9c-0.7,0.4-1.4,1-2.1,1.5c-3.3,2.2-6.8,4-10.4,5.5c2.4-1,4.8-2,7.2-3
				c-5,2-10.1,3.4-15.4,4.2c2.7-0.4,5.3-0.7,8-1.1c-6.4,0.8-12.8,0.6-19.2-0.2c2.7,0.4,5.3,0.7,8,1.1c-6.4-0.9-12.7-2.5-18.7-5
				c2.4,1,4.8,2,7.2,3c-3-1.3-5.9-2.8-8.7-4.6c-2.4-1.5-6.1-5.5,1.2,1.2c-1-0.9-2.1-1.8-3.1-2.7s-2-1.9-2.9-3
				c-4.6-5.1,3.6,5.5,1,1.5c-1.7-2.7-3.3-5.4-4.6-8.3c1,2.4,2,4.8,3,7.2c-1.8-4.3-3-8.7-3.7-13.3c0.4,2.7,0.7,5.3,1.1,8
				c-1.3-9.9-0.9-19.8-3.1-29.7c-2-8.9-5.7-17.7-10.4-25.5c-11-18.2-27.5-31-47-38.9c-17.8-7.2-39.4-7.6-57.8-2
				c-20.4,6.2-37,18.9-49.4,36c-6,8.2-10.4,18-13,27.7c-2.9,10.7-2.4,21.5-3.8,32.3c0.4-2.7,0.7-5.3,1.1-8c-0.7,4.6-1.9,9-3.7,13.3
				c1-2.4,2-4.8,3-7.2c-1.3,2.9-2.9,5.6-4.6,8.3c-2.6,4,5.6-6.6,1-1.5c-0.9,1-1.9,2-2.9,3c-1,1-2.1,1.8-3.1,2.7
				c7.3-6.7,3.6-2.7,1.2-1.2c-2.8,1.8-5.7,3.2-8.7,4.6c2.4-1,4.8-2,7.2-3c-6,2.5-12.2,4.1-18.7,5c2.7-0.4,5.3-0.7,8-1.1
				c-7.3,0.9-14.6,0.9-21.9,0c2.7,0.4,5.3,0.7,8,1.1c-6.4-0.9-12.7-2.5-18.7-5c2.4,1,4.8,2,7.2,3c-3-1.3-5.9-2.8-8.7-4.6
				c-2.4-1.5-6-5.5,1.2,1.2c-1-0.9-2.1-1.8-3.1-2.7s-2-1.9-2.9-3c-4.6-5.1,3.6,5.5,1,1.5c-1.7-2.7-3.3-5.4-4.6-8.3
				c1,2.4,2,4.8,3,7.2c-1.8-4.3-3-8.7-3.7-13.3c0.4,2.7,0.7,5.3,1.1,8c-1.2-9.5-0.9-18.8-2.8-28.4c-1.8-8.9-5.5-17.8-10-25.6
				c-8.9-15.4-23.1-29-39.3-36.5c-19.7-8.9-40.4-11.5-61.6-6.8c-17.3,3.9-34.7,14.1-46.4,27.6c-15,17.4-23.5,38.4-23.8,61.5
				c-0.2,15.7,13.9,30.7,30,30c17.4-0.8,28.6-13.2,30-30c0.3-3.6,0.6-7.3,0.9-10.9c-20,0-40,0-60,0c0,3.2-0.2,6.4-0.6,9.6
				c0.4-2.7,0.7-5.3,1.1-8c-0.8,5.3-2.2,10.4-4.3,15.4c1-2.4,2-4.8,3-7.2c-1.5,3.4-3.2,6.7-5.3,9.8c-0.5,0.7-1,1.4-1.5,2.1
				c-1.7,2.8,4.5-5.3,2.3-3c-1.3,1.4-2.5,3-3.9,4.3c-1.2,1.2-2.5,2.3-3.8,3.5c-3,2.8,3-2.5,3-2.3c0,0.2-1.9,1.4-2.1,1.5
				c-3.2,2.2-6.7,4.1-10.3,5.7c2.4-1,4.8-2,7.2-3c-5.4,2.3-11,3.8-16.7,4.5c2.7-0.4,5.3-0.7,8-1.1c-5.5,0.6-11,0.6-16.5-0.1
				c2.7,0.4,5.3,0.7,8,1.1c-5.3-0.8-10.4-2.2-15.4-4.3c2.4,1,4.8,2,7.2,3c-3.4-1.5-6.7-3.2-9.8-5.3c-0.7-0.5-1.4-1-2.1-1.5
				c-2.8-1.7,5.3,4.5,3,2.3c-1.4-1.4-3-2.5-4.3-3.9c-1.2-1.2-2.3-2.5-3.5-3.8c-2.8-3,2.5,3,2.3,3c-0.2,0-1.4-1.9-1.5-2.1
				c-2.2-3.2-4.1-6.7-5.7-10.3c1,2.4,2,4.8,3,7.2c-2.3-5.4-3.8-11-4.5-16.7c0.4,2.7,0.7,5.3,1.1,8c-1.1-9.8-0.9-19.6-3.5-29.2
				c-2.3-8.2-5.9-16.5-11-23.4c-12-16.4-28.2-27.8-47.8-33.4c-36.3-10.3-80.7-0.9-104.5,29.8c-6.6,8.5-11.7,17.9-14.3,28.5
				c-2.7,10.6-1.9,21.3-3.3,32c0.4-2.7,0.7-5.3,1.1-8c-0.8,5.3-2.2,10.4-4.3,15.4c1-2.4,2-4.8,3-7.2c-1.5,3.4-3.2,6.7-5.3,9.8
				c-0.5,0.7-1,1.4-1.5,2.1c-1.7,2.8,4.5-5.3,2.3-3c-1.4,1.4-2.5,3-3.9,4.3c-1.2,1.2-2.5,2.3-3.8,3.5c-3,2.8,3-2.5,3-2.3
				c0,0.2-1.9,1.4-2.1,1.5c-3.2,2.2-6.7,4.1-10.3,5.7c2.4-1,4.8-2,7.2-3c-5.4,2.3-11,3.8-16.7,4.5c2.7-0.4,5.3-0.7,8-1.1
				c-5.5,0.6-11,0.6-16.5-0.1c2.7,0.4,5.3,0.7,8,1.1c-5.3-0.8-10.4-2.2-15.4-4.3c2.4,1,4.8,2,7.2,3c-3.4-1.5-6.7-3.2-9.8-5.3
				c-0.7-0.5-1.4-1-2.1-1.5c-2.8-1.7,5.3,4.5,3,2.3c-1.4-1.4-3-2.5-4.3-3.9c-1.2-1.2-2.3-2.5-3.5-3.8c-2.8-3,2.5,3,2.3,3
				c-0.2,0-1.4-1.9-1.5-2.1c-2.2-3.2-4.1-6.7-5.7-10.3c1,2.4,2,4.8,3,7.2c-2.3-5.4-3.8-11-4.5-16.7c0.4,2.7,0.7,5.3,1.1,8
				c-1.1-9.4-0.9-18.8-3.2-28c-2.1-8.2-5.6-16.7-10.6-23.6c-11.5-16.1-26.7-27.1-45.5-33.4c-34.6-11.6-77.2-2.6-101.2,25.9
				c-14.8,17.5-23.3,38.5-23.2,61.7c0,15.7,13.8,30.7,30,30C295.8-314,309.6-326.4,309.6-343.2L309.6-343.2z"/>
		</g>
	</g>
	<polygon class="st2" points="-773.7,-486.9 174.3,-486.9 174.3,-293.6 68.6,-249 -4.1,-384.5 -174.3,-283.7 -280.8,-404.3 
		-405,-279.2 -545.9,-420.8 -652.5,-252 	"/>
</g>
<g id="blue">
	<g>
		<g>
			<path class="st3" d="M1858.8-10.4c0,4.1-0.1,8.2-0.5,12.2c0.5-4.9,0-0.1-0.2,0.8c-0.4,1.9-0.8,3.8-1.2,5.7
				c-0.9,3.7-2.1,7.3-3.4,10.8c1.8-4.8,0.3-0.6-0.2,0.4c-1.2,2.4-2.4,4.7-3.8,7c-0.9,1.5-1.9,2.9-2.9,4.4c0.7-1.1,3.7-4,0-0.1
				c-2.3,2.4-4.6,4.7-7,6.9c4.7-4.1-2.1,0.9-3.8,2c-4.3,2.8-0.5,0.3,0.8-0.2c-2.2,0.7-4.4,1.3-6.7,2c-2.5,0.7-4-0.6,1-0.1
				c-1.5-0.1-3.3,0.1-4.7,0.1c-1.6,0-3.1-0.2-4.7-0.3c1.1,0,6.4,1.4,1.2,0.1c-2.9-0.8-5.8-1.6-8.7-2.5c1.1,0.3,5.5,3,1,0.3
				c-1.6-1-3.2-1.8-4.8-2.8c-0.9-0.5-4.6-3.5-1.5-0.9c3.1,2.6-0.6-0.6-1.2-1.3c-1-1.1-2-2.4-3.2-3.3c-3.1-2.3,2.2,4.1,0.4,0.5
				c-1.3-2.5-3.2-6-4.9-8.4c-2.4-3.3,1.2,4.3,0,0.2c-0.6-2.1-1.4-4.2-2-6.3c-0.3-1.3-2.1-11.6-1.5-5.9c-0.4-4.1-0.4-8.1-0.7-12.2
				c-0.6-10.6-2-21.3-4.9-31.5c-5.1-17.9-14.2-34.8-27-48.3c-25.1-26.6-63.7-34.3-96.5-18c-33.9,16.8-51,54.8-54.4,90.8
				c-0.8,8.1-0.2,16.2-1,24.2c0.6-5.9-1.1,4.2-1.4,5.6c-0.5,1.7-1.1,3.3-1.6,5c-1.5,5.2,1.4-1.5-0.4,0.9c-1.7,2.3-3.5,5.7-4.9,8.2
				c-1.9,3.5,3.5-2.9,0.4-0.6c-1.2,0.8-2.2,2.2-3.2,3.3c-0.7,0.7-4.4,3.9-1.2,1.3c3.2-2.5-0.6,0.4-1.5,0.9c-1.3,0.8-2.6,1.5-3.9,2.2
				c-1,0.5-2,1-3,1.5c3.4-1.4,4.1-1.7,2-1c-2.6,0.3-6.3,1.5-8.8,2.3c-3.9,1.2,5.1,0.3,1.1-0.2c-1.5-0.2-3.2,0.2-4.7,0.2
				c-1.5,0-3.2-0.3-4.7-0.2c-4.1,0.4,5,1.5,1.1,0.2c-3.1-1-6.6-1.9-9.8-2.7c6.6,1.7-0.5-0.4-2.9-1.8c-1.3-0.8-2.5-1.7-3.7-2.5
				c5.3,3.5,1.9,1.6,0.8,0.4c-1.4-1.6-6.6-7.8-2.9-2.6c-2.3-3.3-4.3-6.8-6.2-10.4c2.8,5.6-0.9-3.2-1.4-5c-0.5-1.9-2.1-11.1-1.5-5.9
				c-1.2-10.3-1.1-20.5-2.8-30.8c-2.7-17.1-9.3-34.2-19.4-48.3c-24.8-34.7-67.2-50.3-106.9-30.9c-37.6,18.4-55,63.4-54.9,103
				c0,15.7,13.8,30.7,30,30c17-0.8,29-13.2,30-30c0.3-4.8,0.6-9.6,0.8-14.4c-20,0-40,0-60,0c0,4.1-0.1,8.2-0.6,12.2
				c0.6-4.8-1.1,4.6-1.6,6.5c-0.9,3.6-2.1,7.3-3.5,10.8c1.9-4.9,0.2-0.6-0.3,0.3c-1.3,2.3-2.5,4.7-3.9,6.9c-0.9,1.5-1.9,2.9-2.9,4.3
				c0.8-1.1,3.7-3.8-0.1-0.2c-2.4,2.3-4.5,4.7-7.1,6.8c4.9-4-2.1,0.8-3.8,1.8c-4.6,2.8-0.4,0.1,0.8-0.2c-2.2,0.6-4.5,1.2-6.7,1.8
				c1.2-0.3,6.5-0.2,1-0.2c-1.6,0-3.2,0-4.7,0c-2.5,0.1-4-1.6,1,0.2c-1.3-0.5-3.3-0.9-4.5-1.1c-1.5-0.3-5.1-2.2,0.6,0.6
				c-1.4-0.7-2.8-1.4-4.2-2.1c-1.4-0.8-2.7-1.7-4-2.5c3.4,2.1,1.7,1.6-0.6-0.6c-1.2-1.1-2.4-2.3-3.6-3.5c-0.6-0.6-4.2-4.6-1.8-1.8
				c2.4,2.8-1-1.4-1.5-2.2c-1-1.5-1.9-3-2.8-4.5c-0.9-1.6-1.8-3.1-2.6-4.8c-0.3-0.7-2.5-5.9-1.3-2.7c1.3,3.3-0.7-2.3-0.9-3
				c-0.7-2.3-1.4-4.6-2-6.9c-0.3-1.2-1.8-12-1.4-6.7c-0.3-4.1-0.3-8.2-0.5-12.3c-0.4-10.2-1.7-20.6-4.6-30.4
				c-4.8-16.3-13.8-32.4-26.6-43.8c-24.4-21.5-60.3-29.9-91.3-18.2c-36.3,13.7-56.2,45.8-60.2,83.5c-0.8,8.1-0.3,16.2-1.2,24.2
				c0.6-5.5-1.3,5.4-1.6,6.5c-0.5,1.8-1,3.7-1.6,5.5c-0.2,0.7-2.9,7.5-1.4,4.2c1.4-3.2-1,1.9-1.4,2.6c-0.8,1.6-1.7,3.1-2.6,4.6
				c-0.9,1.5-1.9,2.9-2.8,4.4c-2.5,3.7,3-3.2,0,0c-2.3,2.4-4.8,4.6-7,6.9c-2.6,2.7,3.8-1.3,0.3-0.4c-1.7,0.5-4.7,2.4-6.1,3.5
				c-2.9,2.3,4.3-0.7,0.7-0.4c-1.3,0.1-3.3,0.7-4.5,1.2c-3.4,1.7,4.9,0.3,1.1,0c-1.5-0.1-3.2,0.1-4.7,0.1c-1.2,0-5.9-1-1.8,0
				c4.2,1-0.7-0.3-1.7-0.6c-0.9-0.3-5.7-1.8-1.9-0.4c4,1.5-1.9-1-2.8-1.5c-1.3-0.8-2.7-1.8-4-2.5c4.4,2.2,1.8,1.7,0.3,0.2
				c-2.4-2.3-4.8-4.6-7-7.1c3.9,4.3-1.8-2.7-2.9-4.5c-0.9-1.5-1.8-3.1-2.6-4.7c-0.3-0.6-3.4-8.4-1.4-2.9c-1.3-3.6-2.4-7.2-3.3-10.9
				c-0.5-1.9-0.8-3.8-1.2-5.8c-0.2-0.9-0.6-5.8-0.2-0.9c-0.9-10.3-0.9-20.3-2.5-30.6c-2.8-17.9-10.6-34.5-22.2-48.4
				c-24.9-29.9-68.6-38.8-103.4-22.2c-37.8,18-55.3,62.8-55.6,102.3c-0.1,15,11.5,27.5,26,29.5c13.5,1.8,30.4-6.8,32.9-21.5
				c2-11.6,3.9-23.2,5.9-34.8c-19.6-2.7-39.3-5.3-58.9-8c0.1,4.1,0,8.2-0.3,12.2c-0.4,6.1-0.3,2.2,0,0.9c-0.3,1.9-0.7,3.8-1.1,5.7
				c-0.8,3.7-2,7.3-3.2,10.9c-1.7,5.5-0.7,1.7-0.1,0.4c-1.2,2.4-2.4,4.8-3.7,7.1c-1.1,1.8-6.7,8.8-2.7,4.4c-2.2,2.5-4.5,4.7-6.9,7
				c0.8-0.8,5-3.1,0.4-0.3c-1.3,0.8-2.8,1.6-4,2.5c-4,2.9-0.6,0.5,0.8,0c-2.2,0.9-4.4,1.3-6.6,2.1c-2,0.7-4.9,0,1,0
				c-1.6,0-3.2,0.2-4.7,0.2c-3.1,0-10.2-2.1-3.5,0c-2.8-0.9-5.8-1.5-8.7-2.3c-2.2-0.6-3.4-2.5,1,0.5c-1.5-1-3.3-1.8-4.9-2.7
				c-0.9-0.5-4.8-3.3-1.6-0.9s-0.6-0.5-1.3-1.3c-0.9-0.9-6.6-7.4-4.6-4.7c2,2.7-2.8-5-3.5-6.2c-0.4-0.8-2.4-5.6-1.1-2.2
				c1.4,3.7-0.9-3.1-1.1-3.8c-1-3.6-1.9-7.2-2.4-10.9c0.7,5.1,0.1,0,0.1-0.9c-0.1-2.1-0.2-4.1-0.3-6.2c-0.8-10.5-2.2-21.3-5.3-31.4
				C805.3-68.1,796-85,783-98.3c-25.5-26-64.1-33.7-96.7-16.9c-33.7,17.3-50.3,55.4-53.2,91.5c-0.7,8.1,0,16.2-0.5,24.2
				c-0.1,1.3-1.1,5.7,0,0.4c-0.4,1.8-0.7,3.5-1.1,5.3c-0.4,1.7-1,3.3-1.5,5c-1.3,5.3,1.3-1.6-0.2,1c-1.5,2.4-3.6,5.7-4.8,8.3
				c-1.5,3.6,3.4-3.1,0.5-0.5c-1.1,1-2,2.3-3.1,3.3c-1.1,1-2.3,2-3.3,3c-2.6,2.8,4.3-2,0.7-0.7c-1.3,0.5-2.6,1.6-3.8,2.3
				c-5.4,3.4,0.9,0.3-1,0.7c-2.6,0.6-6.3,1.5-8.7,2.5c-3.7,1.5,5.2,0,1.1-0.1c-1.5,0-3.2,0.2-4.7,0.2c-1.6,0-3.1,0-4.7-0.1
				c-1.2,0-5.9-1.1-1.7-0.1c4.2,1-0.6-0.2-1.6-0.5c-1.8-0.5-3.6-1.1-5.4-1.6c-5.1-1.5,0-0.1,1,0.5c-1.3-0.7-2.7-1.4-3.9-2.1
				c-1.3-0.8-2.5-1.7-3.8-2.4c4.9,2.7,2.2,1.9,0.8,0.5c-2.2-2.2-4.3-4.3-6.3-6.7c4,4.7,1.2,1.6,0.5,0.3c-1.1-2.1-2.5-4.3-3.6-6.4
				c-0.7-1.2-1.8-5.1,0,0.1c-0.6-1.7-1.2-3.3-1.7-5c-1-3.6-1.9-7.2-2.4-10.9c0.8,5.7-0.1-6-0.2-7.1c-0.4-6.2-1.3-12.4-2.3-18.5
				c-2.8-17.1-9.9-34.1-20.1-48c-25.2-34.3-67.8-49.7-107.2-29.7c-37.3,18.9-54.3,64.1-53.4,103.8c0.3,15.7,13.6,30.7,30,30
				c16.8-0.8,29.4-13.2,30-30c0.2-4.8,0.4-9.6,0.6-14.4c-20,0-40,0-60,0c0,4.1-0.1,8.2-0.4,12.2c-0.5,6.3-0.4,2.1-0.1,0.8
				c-0.4,1.9-0.7,3.8-1.2,5.7c-0.9,3.7-2,7.2-3.3,10.8c1.7-4.8,0.4-0.6-0.2,0.4c-1.2,2.4-2.4,4.7-3.8,7c-0.9,1.5-1.9,2.9-2.8,4.4
				c0.7-1,3.8-4,0-0.1c-2.3,2.4-4.5,4.7-7,6.9c4.6-4.2-2,0.9-3.7,2c-4.2,2.8-0.5,0.3,0.8-0.1c-2.2,0.8-4.4,1.3-6.7,2
				c-2.5,0.7-4.1-0.6,1-0.1c-1.4-0.1-3.5,0-4.7,0.1c-2,0.1-5-1.3,1,0.3c-1.5-0.4-3-0.6-4.5-1c-1.5-0.4-3-0.9-4.4-1.5
				c1.4,0.5,5,2.9,0.8,0.1c-1.2-0.8-2.8-1.7-4.1-2.4c-4.6-2.5,1.3,1.9-0.7-0.5c-2-2.5-4.9-4.7-7-7.1c-3-3.3,2.5,3.7-0.1-0.1
				c-1-1.5-2-2.9-2.9-4.5c-0.9-1.5-1.8-3.1-2.6-4.7c-0.4-0.7-2.8-5.8-1.4-2.7c1.4,3.2-0.8-2.2-1-3c-0.8-2.3-1.5-4.6-2.1-6.9
				c-0.3-1-2.3-12-1.6-6.6c-0.5-4.1-0.5-8.2-0.8-12.3c-0.6-10.2-2-20.6-5-30.3c-5.2-16.3-14.2-32.1-27.2-43.4
				c-24.7-21.5-60.6-28.9-91.4-17c-36.1,14-55.7,46.6-59.1,84.2c-0.7,8.1-0.2,16.2-0.8,24.2c-0.1,1-1.1,5.8-0.1,0.9
				c-0.4,1.9-0.7,3.8-1.2,5.7c-0.4,1.9-0.9,3.7-1.5,5.5c-0.2,0.7-2.6,7.7-1.3,4.3c1.3-3.3-0.9,1.9-1.2,2.6c-0.8,1.6-1.6,3.1-2.5,4.7
				c-0.9,1.5-1.9,2.9-2.8,4.4c-2.3,3.9,3-3.3,0.1,0c-2.1,2.4-5,4.6-6.9,7.1c-2.3,3,3.8-1.7,0.4-0.3c-1.6,0.7-4.8,2.4-6.1,3.6
				c-2.5,2.5,4.3-0.8,0.8-0.3c-1.5,0.2-3,0.9-4.4,1.3c-1.2,0.3-5.9,0.5-1.8,0.5c4.3-0.1-0.8-0.2-1.9-0.2c-1.1,0-6.2-0.3-1.9,0.1
				c4.2,0.4-0.7-0.2-1.7-0.5c-1.4-0.4-3-1.1-4.4-1.3c-3-0.6,4.1,2.7-0.3-0.3c-1.6-1.1-8.5-6.2-3.8-2.1c-2.5-2.2-4.8-4.6-7.1-7
				c-3.8-3.8-0.9-1.1-0.1,0c-1-1.4-2-2.9-2.9-4.4c-0.9-1.5-1.9-3.1-2.7-4.6c-0.2-0.5-3.8-8.4-1.6-2.9c-1.4-3.5-2.6-7.2-3.5-10.9
				c-0.5-1.9-0.9-3.8-1.3-5.7c-0.2-0.8-1-5.8-0.3-0.9c-1.3-10.2-1.2-20.4-2.9-30.6c-3-17.8-11.1-34.4-22.8-48.1
				c-25.2-29.5-69.2-38-103.8-21c-37.5,18.5-54.7,63.5-54.2,103.1c0.2,15.7,13.7,30.7,30,30c16.1-0.7,30.2-13.2,30-30
				c0-4.1,0.1-8.2,0.4-12.2c0.5-6.3,0.4-2.1,0.1-0.9c0.4-1.9,0.7-3.8,1.2-5.7c0.9-3.7,2-7.2,3.3-10.8c-1.7,4.8-0.3,0.6,0.2-0.4
				c1.2-2.4,2.4-4.7,3.8-7c0.9-1.5,1.9-2.9,2.8-4.3c-0.7,1-3.8,4,0,0.1c2.3-2.4,4.5-4.7,7-6.9c-4.6,4.2,2-0.9,3.7-2
				c4.2-2.8,0.5-0.3-0.8,0.1c2.2-0.8,4.4-1.3,6.7-2c2.4-0.7,4.1,0.5-1,0.1c1.5,0.1,3.2-0.1,4.7-0.1c1.6,0,3.1,0.2,4.7,0.2
				c-1.1,0-6.4-1.4-1.1-0.1c2.9,0.7,5.8,1.6,8.7,2.5c-1.1-0.3-5.5-3-1-0.3c1.6,1,3.2,1.8,4.9,2.8c0.9,0.5,4.7,3.5,1.5,0.9
				C0.2-46,4-42.8,4.7-42c1,1.1,2,2.5,3.2,3.3c3.1,2.2-2.2-4-0.3-0.6c1.4,2.5,3.2,6.1,5,8.3c2.6,3.2-1.3-4.2,0-0.2
				c0.7,2.1,1.5,4.2,2.1,6.3c0.3,1.2,2.4,11.6,1.6,5.9c0.5,4,0.5,8.1,0.8,12.2c0.6,10.6,2.1,21.3,5.1,31.5
				c5.2,17.9,14.4,34.8,27.3,48.3c25.2,26.4,63.8,34.3,96.6,17.9c33.9-16.9,50.6-54.9,53.8-90.8c0.7-8.1,0.1-16.2,0.8-24.2
				c-0.4,5.9,0.9-4.2,1.3-5.6c0.4-1.7,1.1-3.3,1.5-5c1.4-5.2-1.4,1.5,0.3-0.9c1.6-2.3,3.6-5.7,4.8-8.2c1.8-3.5-3.5,3-0.4,0.6
				c1.1-0.9,2.1-2.2,3.1-3.3c0.7-0.7,4.4-4,1.2-1.3c-3.1,2.6,0.6-0.4,1.5-0.9c1.3-0.8,2.6-1.5,3.8-2.2c1-0.5,2-1,3-1.5
				c-3.4,1.4-4.1,1.7-2,1c2.6-0.4,6.2-1.5,8.8-2.3c3.9-1.3-5.2-0.2-1.1,0.2c1.5,0.2,3.2-0.2,4.7-0.2c1.5,0,3.2,0.3,4.7,0.2
				c4.1-0.5-5-1.4-1.1-0.2c3.1,1,6.6,1.9,9.8,2.7c-6.5-1.6,0.5,0.3,2.9,1.8c1.3,0.8,2.5,1.7,3.7,2.5c-5.2-3.3-1.9-1.6-0.8-0.4
				c1.4,1.5,6.8,7.8,3,2.6c2.4,3.3,4.3,6.8,6.3,10.4c-2.9-5.5,1,3.2,1.5,5c0.5,1.8,2.4,11.1,1.6,5.9c1.4,10.2,1.3,20.5,3,30.7
				c2.8,17.1,9.6,34.2,19.7,48.3c24.9,34.6,67.4,50.3,107.1,30.8c37.5-18.5,54.7-63.5,54.2-103.1c-0.2-15.7-13.7-30.7-30-30
				c-16.8,0.8-29.4,13.2-30,30c-0.2,4.8-0.4,9.6-0.6,14.4c20,0,40,0,60,0c-0.1-4.1,0-8.2,0.3-12.2c0.4-6.1,0.3-2.2,0-0.9
				c0.3-1.9,0.7-3.8,1.1-5.7c0.9-3.7,2-7.3,3.2-10.9c1.7-5.5,0.7-1.7,0.1-0.5c1.2-2.4,2.4-4.8,3.7-7.1c1.1-1.8,6.7-8.8,2.7-4.4
				c2.2-2.5,4.5-4.7,6.9-7c-0.8,0.8-5,3.1-0.4,0.3c1.3-0.8,2.8-1.6,4-2.5c4-2.9,0.6-0.5-0.9,0c2.2-0.8,4.4-1.3,6.6-2.1
				c2-0.7,4.9,0.1-1,0c1.4,0,3.4,0,4.7-0.2c1.6-0.2,5.8,0.8-1-0.5c1.5,0.3,3,0.6,4.5,1c1.5,0.4,3,0.9,4.4,1.4
				c-1.3-0.4-5.2-3-0.8-0.2c1.3,0.8,2.8,1.7,4.1,2.4c4.7,2.4-1.4-2,0.7,0.3c2.2,2.4,4.8,4.7,7.1,7c3.1,3.2-2.5-3.7,0.1,0
				c1,1.5,2,2.9,2.9,4.4c1.9,3.1,3.6,6.3,5.1,9.6c2,4.3-1.3-4,0.1,0.6c0.7,2.3,1.5,4.5,2.1,6.9c1,3.8,2,7.7,2.5,11.6
				c-0.6-4.9-0.1,0.4-0.1,1.1c0.1,2.1,0.2,4.1,0.3,6.2c0.7,10.1,2.1,20.6,5.3,30.3c5.4,16.3,14.3,31.9,27.5,43.1
				c25,21.3,60.7,28.2,91.5,16c36-14.3,55.3-47.1,58.6-84.8c0.7-8.1,0.1-16.2,0.5-24.2c0-1,0.8-5.9,0-0.9c0.3-1.9,0.7-3.8,1.1-5.7
				c0.9-4.1,2.2-8.2,3.7-12.2c1.6-4.5-1.9,3.8,0.2-0.4c0.8-1.6,1.6-3.2,2.5-4.7c0.9-1.5,1.8-3,2.7-4.5c0.5-0.8,3.8-5,1.4-2.1
				c-1.9,2.3,4.6-4.2,5.2-5.2c2.1-3.2-3.8,2-0.5,0.2c1.6-0.8,4.9-2.4,6-3.7c2.2-2.7-4.2,1-0.8,0.2c1.5-0.3,3-0.9,4.4-1.4
				c1-0.3,6-1.1,1.7-0.6c-4.2,0.6,0.8,0.1,1.9,0.1c1,0,6.1-0.3,1.9-0.2c-4,0.1,0.5,0.1,1.7,0.4c1.4,0.4,3,1.1,4.5,1.3
				c3,0.3-4.1-2.6,0.3,0.2c1.6,1,8.8,5.9,3.9,1.9c2.6,2.1,4.8,4.6,7.2,6.8c3.8,3.5,1.1,1.1,0.2-0.1c1,1.4,2,2.9,3,4.3
				c2.4,3.8,4.7,7.8,6.4,12c-2.2-5.3,1.4,5.1,1.7,6.2c1,3.8,1.9,7.7,2.5,11.6c-0.7-5.4,0.2,6.3,0.2,7.3c0.4,6.1,1.2,12.2,2.3,18.2
				c3.1,17.7,11.4,34.3,23.1,47.9c25.3,29.3,69.7,37.2,103.9,19.9c37.3-18.9,54.3-64.1,53.4-103.8c-0.3-15-11.2-27.5-26-29.5
				c-13.5-1.8-30.4,6.8-32.9,21.5c-2,11.6-3.9,23.2-5.9,34.8c19.6,2.7,39.3,5.3,58.9,8c0-4.1,0.1-8.2,0.6-12.2
				c-0.6,4.8,1.1-4.6,1.6-6.5c1-3.6,2.1-7.3,3.5-10.8c-1.9,4.9-0.2,0.6,0.3-0.3c1.3-2.3,2.5-4.7,3.9-7c0.9-1.5,1.9-2.9,2.9-4.3
				c-0.8,1.1-3.7,3.8,0.1,0.2c2.4-2.3,4.5-4.7,7.1-6.8c-4.9,4,2.1-0.8,3.8-1.8c4.5-2.8,0.4-0.1-0.8,0.2c2.2-0.6,4.5-1.2,6.7-1.8
				c-1.1,0.3-6.5,0.2-1,0.2c1.6,0,3.1-0.1,4.7,0c1.6,0,3.1,0.2,4.7,0.3c-1.2-0.1-6.3-1.4-1.2,0c2.9,0.8,5.8,1.6,8.7,2.6
				c-6.7-2.4,1.7,1.8,3.8,2.6c3.6,1.4-3.3-3.5-0.7-0.6c1,1.1,2.3,2,3.3,3.1c1.1,1.1,2,2.4,3.1,3.4c2.9,2.5-2-4.1-0.4-0.5
				c1.2,2.6,3.3,6,4.8,8.4c2.3,3.5-1.1-4.3-0.1-0.1c0.5,2.1,1.4,4.2,2,6.3c0.3,1.3,1.8,11.6,1.4,5.9c0.3,4.1,0.3,8.1,0.5,12.2
				c0.5,10.6,1.8,21.4,4.6,31.6c4.9,18,14,34.9,26.7,48.6c24.8,26.9,63.4,34.9,96.3,19c34.1-16.4,51.3-54.2,55-90.1
				c0.8-8.1,0.2-16.2,1.2-24.2c-0.7,5.9,1.2-4.2,1.6-5.6c0.5-1.7,1.1-3.3,1.6-5c-1.2,3.9-0.9,1.7,0.5-0.9c0.6-1.1,5.4-8.9,3.3-6
				c-2,2.8,3.6-3.7,4.5-4.7c0.7-0.7,4.6-3.7,1.3-1.2c-3.3,2.4,0.7-0.3,1.5-0.8c1.2-0.7,2.8-1.3,3.9-2.2c2-1,1.3-0.7-2.1,0.7
				c1-0.4,2.1-0.8,3.2-1.1c1.4-0.4,2.9-0.8,4.3-1.2c1-0.3,5.8-1.5,1.6-0.5c-4.1,1,0.6,0,1.8-0.1c1.6,0,3.1-0.1,4.7-0.1
				c1.6,0,3.1,0.3,4.7,0.2c4.1-0.1-4.9-1.6-1.1-0.1c3,1.2,6.7,1.8,9.8,2.8c-6.9-2.3,0.8,1,2.8,2c4.4,2.2,0.4,0.1-0.6-0.8
				c1.2,1,2.3,2,3.4,3c1.6,1.6,6.3,7.9,2.9,2.7c2.2,3.4,4.3,6.8,6.1,10.5c-2.7-5.8,0.9,3.4,1.3,5.1c0.5,1.9,1.8,11.1,1.4,5.9
				c0.9,10.3,1,20.5,2.5,30.8c2.6,17.1,9,34.4,19,48.6c24.6,34.9,66.7,51,106.7,32c37.8-18,55.3-62.8,55.6-102.3
				c0.1-15.7-13.9-30.7-30-30c-17,0.8-29,13.2-30,30c-0.3,4.8-0.6,9.6-0.8,14.4c20,0,40,0,60,0c0-4.1,0.1-8.2,0.5-12.2
				c-0.5,4.9,0,0.1,0.2-0.8c0.4-1.9,0.8-3.8,1.2-5.7c0.9-3.7,2.1-7.3,3.4-10.8c-1.8,4.8-0.3,0.6,0.2-0.4c1.2-2.4,2.4-4.7,3.8-7
				c0.9-1.5,1.9-2.9,2.9-4.4c-0.7,1.1-3.7,4,0,0.1c2.3-2.4,4.6-4.7,7-6.9c-4.7,4.1,2.1-0.9,3.8-2c4.3-2.8,0.5-0.3-0.8,0.2
				c2.2-0.7,4.4-1.3,6.7-2c2.5-0.7,4,0.6-1,0.1c1.3,0.1,3.5,0,4.7-0.1c2.1-0.1,4.9,1.3-1-0.3c1.5,0.4,3,0.6,4.5,1s2.9,0.9,4.4,1.5
				c-1.4-0.5-4.9-2.9-0.8-0.1c1.2,0.8,2.8,1.7,4.1,2.5c4.5,2.6-1.2-2,0.6,0.5c1.9,2.5,4.8,4.8,7,7.1c3,3.3-2.4-3.7,0,0.1
				c0.9,1.5,1.9,2.9,2.8,4.5c0.9,1.5,1.8,3.1,2.6,4.7c0.4,0.7,2.7,5.9,1.3,2.7c-1.3-3.2,0.7,2.3,1,3c0.8,2.3,1.4,4.6,2,6.9
				c0.3,1.1,2.1,12,1.5,6.7c0.4,4.1,0.4,8.2,0.7,12.3c0.5,10.1,1.8,20.6,4.8,30.4c5,16.3,14,32.1,26.9,43.5
				c24.6,21.6,60.5,29,91.3,17.1c36.2-13.9,55.9-46.5,59.6-84.1c0.8-8.1,0.3-16.2,1-24.2c-0.5,5.4,1.1-5.4,1.4-6.5
				c0.5-1.8,1-3.7,1.5-5.5c0.2-0.7,2.7-7.6,1.4-4.3c-1.3,3.2,0.9-1.9,1.3-2.6c0.8-1.6,1.7-3.1,2.6-4.7c0.9-1.5,1.9-2.9,2.8-4.4
				c2.4-3.8-3,3.3,0,0c2.2-2.4,4.9-4.6,6.9-7.1c2.4-2.9-3.8,1.6-0.4,0.3c1.7-0.6,4.8-2.4,6.1-3.6c2.6-2.5-4.3,0.8-0.7,0.3
				c1.5-0.2,3-0.9,4.4-1.3c1.2-0.3,5.8-0.5,1.8-0.4c-4.3,0,0.8,0.2,1.9,0.2c1.1,0,6.1,0.4,1.8-0.1c-4.2-0.5,0.7,0.2,1.7,0.5
				c1.4,0.4,3,1.1,4.4,1.4c3,0.6-4.1-2.7,0.3,0.3c1.7,1.1,8.4,6.3,3.8,2.1c2.5,2.2,4.8,4.6,7.1,7c3.8,3.9,0.8,1,0.1,0
				c1,1.5,2,2.9,2.9,4.4c0.9,1.5,1.8,3.1,2.7,4.6c0.3,0.5,3.6,8.4,1.5,2.9c1.4,3.6,2.5,7.2,3.4,10.9c0.5,1.9,0.8,3.8,1.3,5.7
				c0.2,0.9,0.8,5.8,0.2,0.9c1.1,10.2,1.1,20.3,2.7,30.6c2.9,17.8,10.8,34.4,22.5,48.1c25.1,29.6,69,38,103.6,21.1
				c37.6-18.4,55-63.4,54.9-103c0-15.7-13.8-30.7-30-30C1872.6-39.6,1858.8-27.2,1858.8-10.4L1858.8-10.4z"/>
		</g>
	</g>
</g>
<g id="grayblue">
	<g>
		<g>
			<path class="st4" d="M1857.1,41.8c0,4-0.1,8-0.5,12c0.5-5.4-0.1,0.7-0.4,2.1c-0.4,1.9-0.8,3.7-1.2,5.5c-0.9,3.6-2.1,7.1-3.4,10.6
				c-1.7,4.4,2-3.8-0.2,0.2c-1,1.9-2,3.9-3.1,5.8c-1.1,1.8-2.5,3.5-3.5,5.4c-2,3.8,3-3.2,0.1-0.2c-2.2,2.3-4.7,4.5-6.9,6.8
				c-2.5,2.8,3.9-1.4,0.5-0.4c-1.5,0.4-3.6,2.1-4.9,2.9c-1.8,1.1-4.5,1,0.9-0.3c-1.8,0.4-3.6,1.1-5.4,1.6c-1.3,0.4-5.7,0.3-1.6,0.4
				c4.3,0.1-0.7-0.1-1.8-0.2c-1.9-0.1-3.8-0.2-5.7-0.2c1,0,6.6,1.4,1.3,0.1c-2.9-0.7-5.7-1.6-8.5-2.4c1,0.3,5.7,3.1,1.1,0.4
				c-1.6-0.9-3.2-1.8-4.8-2.7c-1.7-1-5.2-4.3-0.2,0.2c-1.1-1-2.2-1.9-3.3-3c-1.9-1.9-5.7-8.2-2.7-2.6c-1.5-2.8-3.3-5.4-4.8-8.2
				c-2.7-4.7-0.4-0.8,0.1,0.3c-0.9-2.5-1.7-4.9-2.4-7.4c-0.5-1.9-2-11.1-1.4-5.6c-0.4-4-0.4-8-0.6-12c-0.5-10.4-1.9-21-4.7-31.1
				c-4.9-17.8-13.9-34.3-26.2-48c-25-27.6-64.7-35.6-98-18.8c-33.7,17.1-50.5,55.1-53.8,91c-0.7,7.9-0.2,15.9-0.9,23.8
				c0.5-5.8-0.8,3.4-1.3,5.4c-0.4,1.7-1,3.3-1.5,4.9c-2.1,7.1,2.8-4.2-0.8,1.9c-1.6,2.7-3.3,5.3-4.8,8.1c3.2-5.7-0.8,0.7-2.6,2.5
				c-1.1,1-2.2,1.9-3.3,2.9c4.6-4.3,2.3-1.6,0.8-0.8c-1.3,0.7-2.5,1.5-3.8,2.2c-3.3,1.8-5.3,1.8-0.8,0.5c-2.9,0.8-5.7,1.7-8.5,2.3
				c-5.3,1.3,0.2-0.1,1.3-0.1c-1.5,0-3.1,0.2-4.6,0.2c-1.5,0-3.1-0.1-4.6-0.1c-7,0.2,4.1,1.4,0.1,0.2c-3-0.9-6.5-1.9-9.6-2.6
				c6.5,1.4,0-0.1-2.7-1.7c-0.3-0.2-6.2-4.3-2.4-1.4c3.3,2.5-0.5-0.5-1.2-1.2c-0.9-0.9-6.5-7.4-4.4-4.5c2.4,3.3-0.5-0.9-1-1.7
				c-1-1.7-1.9-3.5-2.9-5.2c-3.6-6.2,0.3,3.3-0.4-0.9c-0.3-1.7-1.1-3.3-1.6-4.9c-0.5-1.7-0.9-3.4-1.3-5.2c-0.2-0.8-1.1-6.5-0.6-2.9
				c0.5,3.7-0.1-2.4-0.2-3.2c-0.2-2.5-0.2-5-0.3-7.6c-0.3-6.2-1.1-12.3-2.1-18.4c-2.6-16.8-9-33.8-18.7-47.8
				c-24.4-35.1-67.2-51.7-107.2-32.2c-37.9,18.5-55.4,63.5-55.3,103.5c0.1,15.7,13.8,30.7,30,30c17-0.8,29-13.2,30-30
				c0.3-4.8,0.6-9.6,0.8-14.4c-20,0-40,0-60,0c-0.1,14.5-2.2,24.4-9.3,36c0.1-0.1-4.6,6.9-2,3.2c2.2-3-0.9,1.1-1.6,1.8
				c-0.9,0.9-7.4,7.2-4.8,5.1c3-2.5-0.8,0.6-1.7,1.1c-1.7,1-3.3,1.9-5,2.9c-2.2,1.3-3.9,0.4,0.9-0.4c-1.6,0.3-4,0.8-5.4,1.5
				c-3.5,1.7,5.1,0.3,1.2-0.1c-1.5-0.1-3.1,0.1-4.6,0.1c-2.4,0.1-6.5-1.5,0,0.2c-1.5-0.4-2.9-0.7-4.4-1.1c-1.4-0.4-2.9-0.9-4.3-1.5
				c1.4,0.5,5,2.9,0.9,0.1c-1.2-0.8-2.7-1.7-4-2.4c-4.4-2.6,1.1,2.1-0.5-0.4c-1.8-2.8-5.4-5.3-7.6-7.9c4,4.8-1.7-3-2.6-4.4
				c-0.9-1.6-4.8-10-2.8-4.9c-1.7-4.3-3.1-8.8-4.2-13.4c-0.4-1.9-0.8-3.8-1.2-5.7c0.2,1.3,0.4,5.5-0.1-0.8c-0.3-4-0.3-8-0.5-12.1
				c-0.4-10-1.7-20.4-4.5-30c-4.7-16.1-13.4-32.1-25.9-43.6c-24.5-22.6-61.3-30.7-92.7-18.8c-36.1,13.7-55.8,46.3-59.6,83.7
				c-0.8,7.9-0.3,15.9-1.2,23.8c0.6-5.4-1,4.4-1.4,6.2c-0.5,1.8-1,3.6-1.5,5.4c-0.2,0.6-3.4,8.8-0.8,3c-1.4,3.2-3.1,6.3-4.9,9.3
				c-0.9,1.5-1.9,2.8-2.8,4.3c3-4.6,1.1-1.2,0.1-0.2c-2.2,2.3-4.7,4.5-6.8,6.8c3.5-3.8,2.2-1.4,0.5-0.4c-2,1.2-4,2.3-6,3.5
				c-4.6,2.7-0.2-0.1,0.9-0.4c-1.4,0.3-3,0.8-4.3,1.3c-4.9,1.6-0.1,0.2,1.3,0.1c-1.5,0.1-3.1,0.2-4.6,0.2c-1.6,0-3.1-0.1-4.6-0.2
				c7.1,0.4,2.2,0.3,0.1-0.4c-1.4-0.5-2.9-1-4.3-1.4c-3-0.7,4.2,2.8-0.1-0.3c-1.7-1.2-8.2-6.2-3.6-2c-2.7-2.5-5.2-5-7.7-7.8
				c-2.9-3.3,2.5,3.8,0.1,0.1c-0.9-1.4-1.9-2.9-2.8-4.3c-0.8-1.3-5.6-11.3-3.5-6c-1.6-3.9-2.8-7.9-3.8-12c-0.5-1.9-0.8-3.7-1.2-5.6
				c-1.1-4.8,0.3,4.3-0.2-0.7c-1.2-10.6-1-21.1-2.6-31.7c-2.6-16.8-9.5-32.5-19.9-45.9c-24.7-31.6-68.9-42.7-105.3-25.5
				c-38.1,18-55.8,62.9-56.1,102.8c-0.1,15,11.5,27.5,26,29.5c13.8,1.8,30-6.8,32.9-21.5c2.3-11.6,4.6-23.2,6.9-34.8
				c-19.6-2.7-39.3-5.3-58.9-8c0.1,4.1,0,8.2-0.3,12.3c-0.4,6.1-0.2,2.3,0,0.9c-0.3,1.9-0.7,3.8-1.1,5.7c-0.8,3.7-2,7.3-3.2,10.9
				c-1.8,5.5-0.7,1.7-0.1,0.5c-1.2,2.4-2.4,4.8-3.7,7.1c-1.1,1.8-6.7,8.9-2.7,4.4c-2.2,2.5-4.5,4.8-6.9,7.1c-1.5,1.5-4,1.9,0.4-0.3
				c-1.2,0.6-3,1.7-4,2.5c-4,2.9-0.6,0.6,0.8,0c-2.2,0.9-4.4,1.3-6.6,2.1c-2,0.7-4.9,0,1.1,0c-1.6,0-3.2,0.2-4.7,0.2
				c-3.1,0-10.1-2.1-3.5,0c-2.8-0.9-5.9-1.5-8.7-2.3c-2.2-0.7-3.4-2.5,1,0.4c-1.5-1-3.3-1.8-4.9-2.7c-0.9-0.5-4.8-3.3-1.6-0.9
				s-0.6-0.6-1.3-1.3c-0.9-0.9-6.5-7.5-4.6-4.8s-2.8-5-3.5-6.2c-0.4-0.8-2.4-5.7-1.1-2.2c1.4,3.7-0.9-3.2-1.1-3.9
				c-1-3.6-1.9-7.2-2.4-10.9c0.7,5.1,0.1,0,0.1-0.9c-0.1-2-0.2-4.2-0.3-6.2C814.5,22.7,813,12,810,1.8
				c-5.4-17.8-14.6-34.7-27.7-48.1c-25.4-26.1-64.1-33.8-96.7-16.9c-33.7,17.4-50.3,55.6-53.2,91.7c-0.7,8.1,0,16.2-0.5,24.3
				c-0.1,1.2-1.1,5.7,0,0.4c-0.4,1.8-0.7,3.5-1.1,5.3c-0.4,1.7-1,3.3-1.5,5c-1.2,5.3,1.3-1.6-0.2,1c-1.5,2.5-3.6,5.7-4.7,8.4
				c-1.5,3.6,3.4-3.1,0.5-0.5c-1.1,1-2,2.3-3.1,3.3c-1.1,1.1-2.3,2-3.3,3.1c-2.6,2.8,4.3-2.1,0.7-0.7c-1.3,0.5-2.6,1.6-3.8,2.3
				c-5.4,3.4,0.9,0.3-1,0.7c-2.6,0.6-6.3,1.5-8.7,2.5c-3.7,1.5,5.2,0,1.1-0.1c-1.5,0-3.2,0.2-4.7,0.2c-1.6,0-3.1-0.1-4.7-0.1
				c-1.2,0-5.8-1.1-1.7-0.1c4.2,1.1-0.6-0.2-1.6-0.5c-1.8-0.5-3.6-1.1-5.4-1.6c-5.1-1.5,0-0.1,1,0.4c-1.3-0.8-2.7-1.4-3.9-2.1
				c-1.3-0.8-2.5-1.7-3.8-2.4c4.9,2.8,2.1,1.9,0.8,0.5c-2.2-2.2-4.3-4.3-6.4-6.7c4,4.7,1.2,1.5,0.5,0.3c-1.1-2.2-2.5-4.3-3.6-6.4
				c-0.7-1.2-1.8-5.1,0,0.1c-0.6-1.7-1.2-3.3-1.7-5.1c-1-3.6-1.9-7.2-2.4-10.9c0.8,5.7-0.1-6-0.2-7.1c-0.4-6.2-1.3-12.5-2.3-18.6
				c-2.8-17.1-9.9-34.2-20.1-48.2C521.2-59,478.5-74.4,439.1-54.4c-37.3,19-54.3,64.3-53.4,104c0.3,15.7,13.6,30.7,30,30
				c16.8-0.8,29.4-13.2,30-30c0.2-4.8,0.4-9.6,0.6-14.4c-20,0-40,0-60,0c0,4-0.1,8-0.4,12c-0.5,9.2,0.8-3.1-0.3,2.1
				c-0.4,1.9-0.8,3.7-1.2,5.5c-0.9,3.6-2,7.1-3.3,10.6c-1.6,4.4,2-3.9-0.1,0.2c-1,1.9-2,3.9-3,5.8c-1,1.8-2.6,3.5-3.4,5.4
				c-1.7,3.6,3.1-2.7,0.1-0.2c-2.2,1.8-4.9,4.7-6.8,6.8c-2.5,2.8,4-1.5,0.5-0.4c-1.5,0.5-3.6,2.1-4.9,3c-1.7,1.1-4.6,1.2,0.9-0.2
				c-1.8,0.5-3.6,1.1-5.4,1.6c-1.3,0.4-5.7,0.4-1.6,0.4c4.3,0.1-0.7-0.2-1.8-0.2c-2.2,0-6.9-1.1,0,0.4c-1.5-0.3-3-0.6-4.4-1
				s-2.9-0.9-4.3-1.4c1.3,0.4,5.2,3,0.9,0.2c-1.2-0.8-2.7-1.7-4-2.3c-4.6-2.4,1.4,2.1-0.6-0.3c-2.3-2.7-5.4-5.1-7.8-7.8
				c4.1,4.5-1.8-2.8-2.8-4.3c-1.8-3-3.5-6.2-5-9.5c2.2,4.8,0.3,0.5,0-0.5c-0.8-2.7-1.7-5.4-2.5-8.1c-0.5-1.9-2.1-11.3-1.5-6.4
				c-0.5-4-0.5-8-0.7-12.1c-0.6-10-1.9-20.3-4.9-30c-5-16.1-13.8-31.9-26.4-43.2c-26-23.1-63.2-30-95.5-16.5
				c-34.6,14.4-52.8,47.1-56,83.3c-0.7,7.9-0.2,15.9-0.7,23.8c-0.1,1.1-1,5.8-0.1,0.7c-0.4,1.9-0.7,3.7-1.1,5.6
				c-1.1,4.5-2.4,8.9-4.1,13.2c2.2-5.6-2,3.4-2.7,4.7c-0.9,1.6-6.6,9-2.5,4.2c-2.1,2.5-4.4,4.7-6.7,7c-3.7,3.8-0.5,0.4,0.6-0.3
				c-1.9,1.2-3.9,2.4-5.9,3.6c-4.3,2.8-0.3,0.1,0.9-0.2c-1.4,0.4-2.8,1-4.3,1.4c-1.5,0.4-2.9,0.6-4.4,0.9c6.7-1.4,2.9-0.3,1.1-0.4
				c-1.4-0.1-3.1-0.1-4.6-0.1c6.8,0.1,2.4,0.5,0.1-0.2c-1.4-0.4-2.9-1.1-4.4-1.3c-3-0.5,4.3,2.7-0.2-0.2c-1.7-1.1-8.6-5.9-3.7-1.8
				c-2.9-2.4-5.3-5-7.9-7.6c-3.1-3.1,2.6,3.8,0,0.2c-1-1.4-2-2.8-2.9-4.3c-2.1-3.4-4-6.9-5.7-10.6c2.3,5.2-1.7-5.8-2.1-7.2
				c-0.5-1.8-0.9-3.7-1.3-5.6c-0.2-0.7-1.2-6.7-0.7-3.2c0.5,3.5-0.2-2.7-0.3-3.4c-0.2-2.5-0.2-5-0.3-7.6c-0.4-6-1.2-12.1-2.2-18.1
				c-3-17.6-10.8-34-22.2-47.7c-24.9-29.9-69.2-39.2-104-22.1c-37.8,18.6-55.1,63.6-54.6,103.6c0.2,15.7,13.7,30.7,30,30
				c16.1-0.7,30.2-13.2,30-30c0-4,0.1-8,0.4-12c0.5-9.2-0.8,3.1,0.3-2.1c0.4-1.9,0.8-3.7,1.2-5.5c0.9-3.6,2-7.1,3.3-10.6
				c1.6-4.4-2,3.9,0.1-0.2c1-1.9,2-3.9,3-5.8c1-1.8,2.6-3.5,3.4-5.4c1.7-3.6-3.1,2.7-0.1,0.2c2.2-1.8,4.9-4.7,6.8-6.8
				c2.5-2.8-4,1.5-0.5,0.4c1.5-0.5,3.6-2.1,4.9-3C-22.3,3-19.4,3-25,4.4c1.8-0.5,3.6-1.1,5.4-1.6c1.3-0.4,5.7-0.4,1.6-0.4
				c-4.4-0.1,0.7,0.1,1.8,0.2c1.9,0.1,3.8,0.2,5.7,0.2c-1,0-6.6-1.4-1.3-0.1C-8.9,3.3-6.1,4.2-3.2,5c-1-0.3-5.7-3-1.1-0.5
				c1.6,0.9,3.2,1.8,4.8,2.7C2.1,8.1,5.7,11.4,0.6,7c1.1,1,2.2,1.9,3.3,3c1.8,1.7,6.1,8.2,2.7,2.6c1.6,2.7,3.3,5.4,4.9,8.1
				c2.7,4.5,0.5,0.9,0-0.4c0.9,2.4,1.7,4.9,2.4,7.4c0.5,1.8,2.2,11.1,1.5,5.6c0.5,4,0.5,8,0.7,11.9c0.6,10.4,2,21,4.9,31.1
				c5.1,17.8,14.1,34.3,26.5,48c25.1,27.5,64.8,35.6,98.1,18.6c33.6-17.2,50.1-55.2,53.2-91c0.7-7.9,0.2-15.9,0.7-23.8
				c-0.4,5.8,0.7-3.4,1.2-5.4c0.4-1.7,1-3.3,1.4-4.9c1.9-7.1-2.8,4.3,0.7-1.9c1.5-2.7,3.3-5.3,4.8-8.1c-3,5.6,0.6-0.6,2.6-2.5
				c1.1-1,2.2-1.9,3.3-3c-4.3,4.2-2.4,1.7-0.8,0.8c1.3-0.7,2.5-1.5,3.7-2.2c3.3-1.8,5.2-1.8,0.8-0.6c2.9-0.8,5.6-1.7,8.5-2.4
				c5.3-1.3-0.2,0.1-1.3,0.1c1.5,0,3.1-0.2,4.6-0.3c1.5,0,3.1,0.1,4.6,0.1c7-0.2-4.1-1.4-0.1-0.2c3,0.9,6.5,1.9,9.6,2.5
				c-5.2-1.1-3.2-1.6-1.1-0.5c1.3,0.7,2.6,1.3,3.9,2.1c0.3,0.2,6.2,4.2,2.4,1.4c-3.3-2.5,0.5,0.5,1.2,1.2c0.9,0.9,6.7,7.4,4.5,4.5
				c-2.4-3.2,0.5,0.9,1,1.7c1,1.7,2,3.5,3,5.2c3.7,6.2-0.5-3.4,0.5,0.8c0.4,1.7,1.1,3.3,1.6,4.9c0.5,1.7,0.9,3.4,1.3,5.2
				c0.2,0.8,1.3,6.4,0.7,2.9c-0.6-3.6,0.2,2.4,0.2,3.2c0.2,2.5,0.2,5,0.3,7.5c0.4,6.1,1.2,12.3,2.1,18.4
				c2.7,16.8,9.2,33.8,19.1,47.8c24.6,35,67.4,51.7,107.4,32.1c37.8-18.6,55.1-63.6,54.6-103.6c-0.2-15.7-13.7-30.7-30-30
				c-16.8,0.8-29.4,13.2-30,30c-0.2,4.8-0.4,9.6-0.6,14.4c20,0,40,0,60,0c-0.1-4.1,0-8.2,0.3-12.3c0.4-6.1,0.2-2.3,0-0.9
				c0.3-1.9,0.7-3.8,1.1-5.7c0.9-3.7,2-7.3,3.2-10.9c1.8-5.6,0.7-1.7,0.1-0.5c1.2-2.4,2.4-4.8,3.7-7.1c1.1-1.8,6.7-8.9,2.7-4.4
				c2.2-2.5,4.5-4.8,6.9-7.1c1.5-1.5,4-1.9-0.4,0.3c1.2-0.6,3-1.7,4-2.5c4-2.9,0.6-0.5-0.9,0c2.2-0.9,4.4-1.3,6.6-2.1
				c2-0.7,4.9,0.1-1.1,0c1.4,0,3.4,0,4.7-0.2c1.6-0.2,5.8,0.9-1-0.5c1.5,0.3,3,0.6,4.5,1s3,0.9,4.4,1.4c-1.3-0.4-5.2-3-0.8-0.2
				c1.3,0.8,2.8,1.7,4.1,2.4c4.7,2.4-1.4-2,0.7,0.4c2.2,2.4,4.8,4.7,7.1,7c3.1,3.2-2.5-3.7,0.1,0c1,1.4,2,2.9,2.9,4.4
				c1,1.5,1.8,3.1,2.7,4.7c0.4,0.7,2.9,5.8,1.5,2.6c-1.5-3.2,0.8,2.2,1.1,3c0.8,2.3,1.5,4.6,2.2,6.9c1,3.8,2,7.7,2.5,11.6
				c-0.6-4.8-0.1,0.4-0.1,1.2c0.1,2,0.2,4.2,0.3,6.2c0.7,10.2,2.1,20.6,5.3,30.4c5.3,16.3,14.3,31.9,27.5,43.2
				c24.9,21.3,60.7,28.3,91.5,16c36.1-14.4,55.3-47.2,58.6-85c0.7-8.1,0.1-16.2,0.5-24.3c0-0.9,0.8-5.9,0-0.9
				c0.3-1.9,0.7-3.8,1.1-5.7c0.9-4.2,2.2-8.2,3.7-12.2c1.6-4.5-1.9,3.8,0.2-0.4c0.8-1.6,1.6-3.2,2.5-4.7c0.9-1.5,1.8-3,2.7-4.5
				c0.5-0.8,3.8-5.1,1.4-2.2c-2.3,2.9,1.1-1.1,1.7-1.8c1.2-1.2,2.3-2.3,3.5-3.4c0.7-0.7,4.8-3.7,1.6-1.5c-3.4,2.4,3.5-1.6,3.9-2.1
				c2.2-2.7-4.2,1-0.8,0.2c1.5-0.4,3-0.9,4.4-1.4c1-0.3,6-1.1,1.7-0.6c-4.2,0.6,0.8,0.1,1.9,0.1c1,0,6.1-0.3,1.9-0.2
				c-4,0.1,0.5,0.1,1.7,0.4c1.4,0.4,3,1.1,4.5,1.3c3,0.4-4.1-2.6,0.3,0.2c1.6,1,8.8,6,3.9,1.9c2.6,2.1,4.8,4.6,7.2,6.9
				c3.8,3.6,1.1,1.1,0.2-0.1c1,1.4,2,2.9,3,4.3c1,1.5,1.9,3,2.8,4.6c0.2,0.4,4.1,8.3,1.7,2.8c3,7,5.1,14.9,6.1,22.5
				c-0.7-5.3,0.2,6.4,0.2,7.4c0.4,6.1,1.2,12.2,2.3,18.3c3.1,17.8,11.4,34.4,23.1,48c25.3,29.3,69.7,37.3,103.9,19.9
				c37.3-19,54.3-64.3,53.4-104c-0.3-15-11.2-27.5-26-29.5c-13.8-1.9-30,6.8-32.9,21.5c-2.3,11.6-4.6,23.2-6.9,34.8
				c19.6,2.7,39.3,5.3,58.9,8c0.1-14.5,2.2-24.4,9.3-36c0,0.1,4.6-6.9,2-3.2c-2.2,3,0.9-1.1,1.6-1.8c0.9-0.9,7.4-7.2,4.8-5.1
				c-3,2.5,0.8-0.6,1.7-1.1c1.7-1,3.3-1.9,5-2.9c2.2-1.3,3.9-0.4-0.9,0.4c1.6-0.3,4-0.8,5.5-1.5c3.5-1.7-5.1-0.3-1.2,0.1
				c1.5,0.1,3.1-0.1,4.6-0.1c1.9,0,3.8,0.2,5.7,0.3c-1.1-0.1-6.4-1.4-1.3,0c2.8,0.8,5.7,1.6,8.5,2.5c-1.1-0.4-5.5-3-1.2-0.3
				c1.5,1,3.2,1.8,4.7,2.8c1.8,1.1,4.8,4.4,0.1-0.1c1.1,1,2.2,2,3.3,3c1.1,1.1,2,2.2,3.1,3.3c-0.8-0.8-3.3-5.2-0.5-0.6
				c1.7,2.7,3.2,5.4,4.8,8.2c2.6,4.9,0.2,0.8-0.1-0.3c0.8,2.5,1.6,4.9,2.3,7.4c0.5,1.9,1.7,11.1,1.3,5.7c0.3,4,0.3,8,0.5,12
				c0.4,10.4,1.8,21,4.5,31.2c4.8,17.9,13.7,34.4,25.9,48.3c24.7,28,64.4,36.2,97.9,19.8c33.9-16.6,50.9-54.6,54.4-90.3
				c0.8-7.9,0.3-15.9,1.2-23.8c-0.7,5.8,0.9-3.4,1.4-5.4c0.5-1.7,1-3.3,1.5-4.9c2.2-7-2.9,4.2,0.8-1.9c1.6-2.7,3.2-5.3,4.9-8
				c-3.7,5.8,1.3-0.7,2.7-2.4c3.2-3.7,0.1-0.3-1,0.5c1.2-0.9,2.4-1.7,3.6-2.4c1.2-0.8,2.6-1.4,3.8-2.2c5.3-3.4-4.8,1.1,0.8-0.4
				c2.8-0.8,5.8-1.4,8.6-2.2c-6.9,2.1,0.3,0.1,3.3,0.1c1.5,0,3.1,0.2,4.6,0.2c7,0.1-4-1.5-0.1,0c2.9,1.1,6.5,1.8,9.6,2.7
				c-6.8-2,0.4,0.4,2.6,1.8c0.4,0.2,5.9,4.5,2.3,1.5c-3.2-2.6,0.5,0.6,1.2,1.3c1,1,2,2.4,3.1,3.2c3.1,2.3-2.3-4.1-0.4-0.7
				c1.8,3.1,3.7,6,5.4,9.2c3.4,6.2-0.2-3.2,0.3,0.9c0.2,1.6,1.1,3.4,1.5,5c0.5,1.7,0.9,3.5,1.2,5.2c0.2,0.8,0.9,6.5,0.6,2.9
				c-0.4-3.7,0.1,2.4,0.1,3.2c0.1,2.5,0.1,5,0.2,7.6c0.2,5.3,0.9,10.6,1.6,15.9c2.4,17.8,8.5,35.6,18.7,50.6
				c24.1,35.5,66.8,52.3,106.9,33.3c38.1-18.1,55.8-62.9,56.1-102.8c0.1-15.7-13.9-30.7-30-30c-17,0.8-29,13.2-30,30
				c-0.3,4.8-0.6,9.6-0.8,14.4c20,0,40,0,60,0c0-4,0.1-8,0.5-12c-0.5,5.4,0.1-0.7,0.4-2.1c0.4-1.9,0.8-3.7,1.2-5.5
				c0.9-3.6,2.1-7.1,3.4-10.6c1.7-4.4-2,3.8,0.2-0.2c1-1.9,2-3.9,3.1-5.8c1.1-1.8,2.5-3.5,3.5-5.4c2-3.8-3,3.2-0.1,0.2
				c2.2-2.3,4.7-4.5,6.9-6.8c2.5-2.8-3.9,1.4-0.5,0.4c1.5-0.4,3.6-2.1,4.9-2.9c1.8-1.1,4.5-1-0.9,0.3c1.8-0.4,3.6-1.1,5.4-1.6
				c1.3-0.4,5.7-0.3,1.6-0.4c-4.3-0.1,0.7,0.2,1.8,0.2c2.2,0,6.8,1.1,0-0.3c1.5,0.3,2.9,0.6,4.4,1c1.5,0.4,2.9,0.9,4.3,1.4
				c-1.3-0.4-5.2-3-0.9-0.2c1.2,0.8,2.7,1.7,4,2.3c4.6,2.4-1.3-2.1,0.5,0.3c2.1,2.8,5.3,5.1,7.7,7.8c-4.1-4.6,1.8,2.8,2.7,4.3
				c1.8,3,3.5,6.2,4.9,9.5c-2.1-4.9-0.3-0.5,0,0.5c0.8,2.7,1.7,5.4,2.4,8.1c0.5,1.9,1.9,11.3,1.4,6.4c0.4,4,0.4,8,0.6,12.1
				c0.5,10,1.8,20.3,4.7,30c4.8,16.1,13.6,32,26.2,43.3c25.8,23.2,63.2,30,95.4,16.7c34.6-14.4,53.1-47,56.5-83.2
				c0.8-7.9,0.3-15.9,0.9-23.8c-0.4,5.3,0.8-4.4,1.3-6.3c1.1-4.5,2.4-8.9,4.2-13.2c-2.3,5.5,2.1-3.5,2.8-4.7
				c0.9-1.6,6.7-8.9,2.6-4.2c2.2-2.4,4.5-4.6,6.8-6.9c3.8-3.8,0.5-0.3-0.5,0.3c2-1.2,4-2.4,5.9-3.6c4.4-2.8,0.3-0.1-0.9,0.3
				c1.4-0.4,2.9-1,4.3-1.3c1.5-0.4,2.9-0.6,4.4-0.9c-6.8,1.4-2.8,0.3-1.1,0.5c1.4,0.1,3.1,0.1,4.6,0.1c-6.8-0.1-2.4-0.5-0.1,0.2
				c1.4,0.4,2.9,1.1,4.3,1.3c3,0.5-4.3-2.7,0.2,0.2c1.7,1.1,8.4,6,3.6,1.8c2.8,2.4,5.2,5,7.8,7.7c3.1,3.2-2.5-3.8,0-0.1
				c1,1.4,1.9,2.8,2.8,4.3c2.1,3.4,4,6.9,5.6,10.6c-2.2-5.3,1.6,5.8,2,7.2c0.5,1.8,0.9,3.7,1.3,5.6c0.2,0.8,1,6.7,0.6,3.2
				c-0.4-3.5,0.2,2.7,0.2,3.4c0.2,2.5,0.1,5,0.3,7.6c0.3,6.1,1.1,12.1,2.1,18.1c2.8,17.7,10.5,34,21.9,47.8
				c24.8,30,69,39.2,103.8,22.2c37.9-18.5,55.4-63.5,55.3-103.5c-0.1-15.7-13.8-30.7-30-30C1870.8,12.6,1857,25,1857.1,41.8
				L1857.1,41.8z"/>
		</g>
	</g>
</g>
<g id="yellow">
	<g>
		<g>
			<path class="st5" d="M1857.6,94.7c0,3.9,0,7.8-0.6,11.7c0.8-5.9-1.3,4.6-1.7,5.8c-0.5,1.8-1.1,3.5-1.7,5.2
				c-0.1,0.4-1.9,4.4-0.5,1.4c1.5-3.3-1,1.7-1.4,2.4c-1.1,1.9-2.3,3.7-3.4,5.6c-2.8,4.7-0.8,1.1,0.1,0.1c-1.1,1.3-2.2,2.5-3.4,3.7
				c-1.8,1.9-8.5,6-3.4,3.3c-2.4,1.2-5.2,2.7-7.3,4.3c-3.1,2.2,4.2-0.6,0.5-0.3c-1.8,0.1-4,1.1-5.8,1.6c-5.5,1.4-0.4-0.1,0.7-0.1
				c-1.7,0-3.3,0.1-5,0.1c-1.6,0-3.3-0.2-4.9-0.2c1.1,0,6.3,1.3,0.8,0.1c-2.4-0.6-5.5-2.1-7.9-2.1c-3.7,0,4,2.4,0.7,0.4
				c-1.6-1-3.4-1.7-5.1-2.7c-1.3-0.8-2.6-1.6-3.8-2.5c1.1,0.7,4.2,4.1,0.8,0.4c-1.5-1.6-6.6-8.2-3-2.6c-1.5-2.3-3-4.7-4.4-7.1
				c-0.5-0.9-2.3-5.6-1-2c1.4,3.9-0.8-2.9-1-3.7c-0.4-1.6-1.7-11.2-1.3-5.5c-0.2-3.9-0.3-7.8-0.6-11.7c-0.8-9.2-2.1-18.6-5-27.4
				c-5.4-16.5-14.2-32.2-26.8-44.2c-26.3-25.2-64.2-32-97.2-16.1c-32.1,15.4-50,49.9-53.5,84.1c-0.4,3.9-0.5,7.8-0.6,11.7
				c0,1.9-0.1,3.9-0.1,5.8c0,0.3-0.3,5.1,0,1.6c0.3-3.7-0.3,1.8-0.6,2.7c-0.4,1.7-0.9,3.3-1.3,5c-0.2,0.9-2,6-0.6,2.3
				c1.4-3.8-1.2,2.3-1.6,3c-1.4,2.5-6.6,7.6-2,3.5c-1.8,1.6-4.2,3.7-5.7,5.6c-2.3,3,4.1-2,0.6-0.6c-1.3,0.6-2.6,1.6-3.9,2.4
				c-0.8,0.5-5.3,2.8-1.6,1c3.9-1.9-2.6,0.9-2.9,1c-3,0.9-6.1,1.6-9.2,2.1c6.2-1-0.5-0.2-3-0.2c-1.6,0-3.3-0.4-4.9-0.2
				c-4.1,0.5,4.7,1.3,0.8,0.2c-3.3-1-6.8-1.7-10.2-2.7c1.1,0.3,5.5,3,0.8,0.3c-1.3-0.8-2.7-1.4-4-2.2c-1.3-0.8-2.5-1.7-3.8-2.5
				c0.5,0.3,3.5,3.5,1.6,1.1c-0.7-0.8-7.1-7.4-4.8-4.5c2.5,3.1-0.6-0.9-1.1-1.8c-1-1.7-2-3.5-3-5.2c-0.9-1.7-1-4.5,0.1,0.3
				c-0.4-1.6-1.1-3.3-1.5-4.9c-0.3-1.3-0.7-2.6-0.9-3.9c-0.2-0.9-0.9-6.4-0.6-2.8c0.3,3.8,0-2.3,0-3.2c-0.1-2-0.1-3.9-0.2-5.9
				c-0.4-6-1.2-12.1-2.3-18c-3.3-17.6-11.6-33.8-22.8-47.6c-25.3-31.2-67.8-40.8-103.9-23.6c-35.7,16.9-54.1,57.8-54.1,95.8
				c0,15.7,13.8,30.7,30,30c17.1-0.8,28.9-13.2,30-30c0.3-4.4,0.6-8.7,0.8-13.1c-20,0-40,0-60,0c0,1.3-0.9,12.4,0,6.5
				c-0.6,3.7-1.4,7.3-2.5,10.9c-0.5,1.8-1.1,3.5-1.8,5.2c0.2-0.5,1.9-4.1,0.4-1c-1.8,3.6-3.8,6.9-5.9,10.2c-3,4.8-0.8,0.9,0,0
				c-1.1,1.2-2.2,2.5-3.4,3.7c-1.2,1.2-2.4,2.2-3.7,3.4c0.9-0.9,4.8-2.9,0.2-0.3c-1.4,0.8-7.9,4.5-4.9,3.1c3.6-1.7-1.1,0.4-2,0.6
				c-1.9,0.5-3.9,0.9-5.8,1.5c5.3-1.7,2.9-0.1,0.7-0.2c-1.6-0.1-3.4-0.1-5,0c-2.1,0.1-4.7-1.4,0.7,0.2c-1.5-0.5-3.2-0.7-4.7-1.1
				c-1.6-0.4-3.1-1-4.6-1.5c0.8,0.3,3.9,2.4,1.7,0.5c-1.2-1-10-7.1-5.1-2.8c-2.6-2.2-4.8-4.6-7.2-7c-0.9-1-3-4.4-0.1,0
				c-1-1.4-1.9-2.9-2.8-4.4c-0.9-1.5-1.7-3.1-2.6-4.6c-0.2-0.3-2-4.3-0.7-1.3c1.4,3.3-0.7-2-0.9-2.8c-0.7-2.2-1.4-4.4-1.9-6.7
				c-0.4-1.8-0.8-3.7-1.2-5.5c0.2,1.4,0.3,5.4,0-0.6c-0.2-3.9-0.2-7.8-0.5-11.7c-0.7-8.8-1.8-18-4.8-26.4
				c-5.3-15.3-13.9-29.7-26.4-40.2c-25.1-20.8-61.1-27.8-92.1-16.6c-34.5,12.5-54.9,41.9-59.2,77.8c-0.4,3.8-0.6,7.6-0.7,11.4
				c-0.1,2-0.1,3.9-0.2,5.9c0,0.3-0.4,5.1-0.1,1.8c0.4-3.6-0.4,2.2-0.6,3c-0.4,1.8-0.8,3.6-1.3,5.4c-0.5,1.8-1.1,3.5-1.7,5.2
				c-1,3.2,2-3.3-0.7,1.5c-1.7,3.1-3.4,6.1-5.3,9c-0.8,1.2-3.6,3.9,0,0c-0.8,0.9-1.6,1.9-2.6,2.8c-1.2,1.1-2.7,2.2-3.6,3.4
				c-2.3,3.2,3.8-1.9,0.3-0.1c-1.6,0.8-11.1,5.7-4.5,3.2c-3.1,1.1-6.1,1.9-9.3,2.7c5.9-1.4-0.3-0.2-3-0.2c-1.1,0-6.2-0.7-2.1,0
				c4.1,0.7-1-0.3-2-0.6c-1.5-0.5-3.1-1.1-4.6-1.4c-3.2-0.7,4.8,3.2-0.6-0.4c-1.8-1.2-8.4-6.4-4-2.2c-2.1-2-4.3-4-6.3-6.1
				c-0.6-0.6-3.8-4.8-1.7-1.9c2.2,3-0.9-1.6-1.4-2.3c-0.8-1.4-5.6-11.2-3.6-5.9c-1.4-3.4-2.4-7-3.3-10.6c-0.3-1.4-0.6-2.8-0.9-4.2
				c-1-4.8,0.3,4.4-0.1-0.6c-0.8-9.9-0.9-19.6-2.7-29.4c-3.1-16.4-11.2-31.7-22.4-44c-25.6-28.3-69.7-35.3-103.7-19.5
				c-35.9,16.8-54.4,57.1-54.8,95.2c-0.3,33.3,51.4,41.5,58.9,8c2.6-11.7,5.2-23.3,7.9-35c-19.6-2.7-39.3-5.3-58.9-8
				c0.1,3.9,0,7.8-0.3,11.7c0.5-5.9-1.1,4.5-1.4,5.9c-0.5,1.8-1.1,3.5-1.6,5.2c-0.1,0.3-1.7,4.5-0.5,1.4c1.4-3.3-0.9,1.7-1.3,2.4
				c-1,1.9-2.3,3.7-3.3,5.7c-2.4,4.6-0.8,1.4,0.2,0.2c-1,1.3-2.2,2.6-3.3,3.8c-1.5,1.6-8.4,6.8-3.2,3.4c-2.2,1.4-5.3,2.7-7.3,4.4
				c-2.7,2.5,4.2-0.8,0.5-0.2c-1.9,0.3-3.9,1.2-5.8,1.7c-5.2,1.5-0.6,0.1,0.7,0.1c-1.7,0.1-3.3,0.2-5,0.2c-2.7,0-10.8-1.8-4.1,0
				c-2.6-0.7-5.3-1.2-8-1.9c-1-0.3-5.6-2.1-1.8-0.5c4,1.7-1.8-1-2.6-1.5c-1.3-0.8-2.5-1.6-3.9-2.4c1,0.6,4.5,4.2,0.7,0.5
				c-2.2-2.2-4.4-4.2-6.4-6.6c3.8,4.6,0-0.8-1.2-2.8c-0.5-0.8-2.6-5.5-1.1-2c1.6,3.8-0.9-2.8-1.1-3.6c-0.4-1.4-2.2-11.4-1.5-5.4
				c-0.4-3.9-0.4-7.8-0.8-11.7c-0.9-9.2-2.3-18.6-5.3-27.4c-5.7-16.4-14.5-32-27.4-43.9c-26.8-24.7-64.5-31.4-97.4-15
				C654.5,12.2,637,46.8,634,81.1c-0.6,7.2-0.5,14.5-0.6,21.7c0,4.5,1.5-3.9,0,0.1c-0.6,1.6-0.7,3.4-1.2,5.1
				c-0.5,1.6-1.2,3.2-1.5,4.8c-0.7,3.1,2.5-3.8-0.4,0.6c-1.2,1.9-6.4,8.5-1.8,3.6c-1.7,1.7-4.4,3.7-5.6,5.8c-1.9,3.1,4-2.2,0.7-0.4
				c-1.3,0.7-2.5,1.7-3.8,2.5c-1.3,0.8-2.8,1.3-4,2.2c-2.8,1.9,6-1.5-0.3,0c-3.1,0.8-6.1,1.6-9.2,2.3c6-1.3-0.4-0.1-3,0
				c-1.4,0-10.6-0.8-6.9-0.1c4.2,0.7-0.9-0.2-1.8-0.5c-1.9-0.5-3.8-1.1-5.6-1.6c-1.8-0.5-4.3-2.5,0.8,0.5c-1.3-0.8-2.7-1.3-4.1-2.1
				c-1.3-0.7-2.5-1.8-3.9-2.4c0.4,0.2,3.8,3.6,1.5,1.2c-2-2.1-4.3-4.5-6.5-6.5c-2.7-2.5,1.5,4,0.5,0.4c-0.4-1.4-2.3-4-3-5.2
				c-0.8-1.3-1.8-5,0,0.3c-0.5-1.6-1.2-3.2-1.6-4.9c-0.4-1.4-2.1-9.3-1.7-6.6c0.6,3.7-0.1-2.3-0.2-3.1c-0.1-2-0.2-3.9-0.4-5.9
				c-0.5-6-1.3-12.1-2.5-18c-3.5-17.5-12.1-33.6-23.4-47.3C518.7-3.4,475.6-12.5,439.9,5.1c-35.4,17.4-53.5,58.6-52.8,96.5
				c0.3,15.7,13.6,30.7,30,30c16.9-0.8,29.2-13.2,30-30c0.2-4.4,0.4-8.7,0.6-13.1c-20,0-40,0-60,0c0,3.9,0,7.8-0.5,11.7
				c0.7-5.9-1.2,4.5-1.6,5.8c-0.5,1.8-1.1,3.5-1.7,5.2c-0.1,0.4-1.9,4.4-0.5,1.4c1.5-3.3-1,1.7-1.4,2.4c-1,1.9-2.3,3.7-3.3,5.6
				c-2.6,4.7-0.8,1.2,0.1,0.1c-1.1,1.3-2.2,2.5-3.4,3.8c-1.1,1.2-2.4,2.3-3.6,3.4c-1.3,1.3-4.2,2.3,0.3-0.2
				c-2.3,1.3-5.2,2.7-7.3,4.3c-3,2.3,4.2-0.6,0.5-0.3c-1.9,0.2-4,1.1-5.8,1.6c-5.5,1.4-0.5-0.1,0.7-0.1c-1.6,0-3.4,0-5,0.1
				c-1.6,0.1-5.6-0.9,0.7,0.4c-1.6-0.3-3.2-0.6-4.7-1c-1.6-0.4-3.1-1-4.6-1.4c0.6,0.2,4.2,2.5,1.6,0.6c-1.4-1-10.3-6.6-5.2-2.6
				c-2.6-2.1-4.8-4.6-7.3-6.9c-0.8-0.8-3.5-4.4-0.2,0.1c-1-1.4-2-2.9-2.9-4.3c-1.6-2.6-3.1-5.4-4.5-8.2c-2-4.2,1.4,4.1-0.1-0.4
				c-0.7-2.2-1.5-4.4-2-6.6c-0.4-1.4-1.8-11.6-1.4-6.1c-0.3-3.9-0.3-7.8-0.7-11.7c-0.8-8.9-2.1-17.9-5.1-26.3
				c-5.5-15.3-14.2-29.5-27-39.8C266.6-1.5,230.6-8.1,199.7,3.6c-34.2,13-54.7,42.5-58.2,78.5c-0.7,7.2-0.2,14.4-0.8,21.7
				c-0.4,4.9,0.9-4.2-0.1,0.5c-0.4,1.8-0.8,3.6-1.2,5.4c-0.4,1.7-4.6,12-2.1,6.8c-1.6,3.2-3.4,6.1-5.1,9.1c-0.6,1.1-3.5,4.4,0.1,0.1
				c-0.8,1-1.6,1.9-2.5,2.8c-1.2,1.2-2.3,2.4-3.5,3.5c-0.7,0.7-4.8,3.8-1.7,1.6c3.1-2.2-1.2,0.7-2,1.1c-1.8,1-3.5,2-5.3,2.9
				c5.8-2.8-2.2,0.2-4.2,0.8c-2.3,0.6-4.3-0.5,0.7-0.1c-1.2-0.1-2.5,0.1-3.7,0.1c-1,0-6.3-0.1-2.1,0.1c4.1,0.2-0.9-0.2-2-0.5
				c-1.5-0.4-3.1-1.2-4.6-1.3c-3.1-0.3,4.7,3-0.6-0.3c-1.6-1-9.1-6-4.2-2c-2.3-1.8-4.3-3.9-6.4-6c-0.6-0.6-4.1-4.7-1.8-1.8
				c2.3,2.9-1-1.5-1.5-2.2c-2.1-3.4-4.1-6.8-5.7-10.5c2.4,5.4-1.2-4.5-1.6-5.8c-0.4-1.4-0.7-2.8-1-4.1c-0.2-0.8-1-6.6-0.6-3.1
				c0.4,3.6-0.1-2.5-0.1-3.3c-0.1-2-0.1-3.9-0.3-5.9C77,85.8,76.3,79.8,75.1,74c-3.3-16.2-11.7-31.7-23-43.7
				C25.9,2.3-17.9-4.2-51.9,12c-35.6,17-53.8,58-53.5,95.9c0.1,15.7,13.7,30.7,30,30c16.1-0.7,30.1-13.2,30-30c0-3.9,0-7.8,0.5-11.7
				c-0.7,5.9,1.2-4.5,1.6-5.8c0.5-1.8,1.1-3.5,1.7-5.2c0.1-0.4,1.9-4.4,0.5-1.4c-1.5,3.3,1-1.7,1.3-2.4c1-1.9,2.3-3.7,3.3-5.6
				c2.7-4.7,0.8-1.2-0.1-0.1c1.1-1.3,2.2-2.5,3.3-3.8c1.2-1.2,2.4-2.3,3.6-3.4c1.3-1.3,4.2-2.3-0.3,0.2c2.3-1.3,5.2-2.7,7.3-4.3
				c3-2.3-4.2,0.6-0.5,0.3c1.9-0.2,4-1.1,5.8-1.6c5.4-1.4,0.5,0-0.7,0.1c1.7,0,3.3-0.1,5-0.1c1.6,0,3.3,0.2,4.9,0.2
				c-1.1,0-6.3-1.3-0.8-0.1c2.7,0.6,5.3,1.3,7.9,2.1c1,0.3,5.5,2.3,1.8,0.6c-4-1.9,1.8,1.1,2.6,1.6c1.3,0.8,2.5,1.7,3.8,2.5
				c-1.1-0.7-4.3-4.2-0.7-0.4c1.4,1.5,6.9,8.1,3.1,2.5c1.6,2.3,3,4.7,4.4,7.1c0.5,0.8,2.4,5.6,1.1,2c-1.5-3.8,0.8,2.9,1,3.7
				c0.4,1.5,1.9,11.3,1.4,5.5c0.3,3.9,0.3,7.8,0.7,11.7c0.8,9.2,2.2,18.6,5.1,27.4c5.5,16.4,14.4,32.2,27.1,44.2
				c26.5,25,64.3,31.9,97.3,15.9c32-15.5,49.8-50,53-84.2c0.7-7.2,0.4-14.5,0.8-21.7c0.2-4.4-1.6,3.8,0.1-0.1c0.7-1.5,0.9-3.4,1.2-5
				c0.2-0.9,1.8-6.1,0.6-2.3c-1.3,3.8,1.1-2.2,1.6-3c1.3-2.4,6.6-7.9,1.9-3.5c1.8-1.7,4.2-3.7,5.6-5.7c2.1-3-4.1,2-0.7,0.5
				c1.3-0.6,2.6-1.6,3.9-2.4c0.8-0.5,5.2-2.9,1.6-1c-3.9,1.9,2.5-0.9,2.9-1c3-1,6.1-1.6,9.2-2.2c-6.2,1.1,0.5,0.2,3,0.2
				c1.6,0,3.4,0.4,4.9,0.2c4.1-0.6-4.8-1.3-0.8-0.2c3.4,0.9,6.8,1.7,10.2,2.6c2.1,0.6,3.6,2.6-0.8-0.4c1.2,0.8,2.8,1.4,4,2.2
				c1.3,0.8,2.5,1.7,3.8,2.5c-0.5-0.3-3.6-3.5-1.6-1.2c0.7,0.8,7.1,7.3,4.8,4.5c-2.5-3,0.6,0.9,1.1,1.7c1,1.7,2,3.5,3,5.2
				c0.9,1.5,1.3,4.7,0-0.3c0.4,1.7,1.1,3.3,1.6,4.9c0.4,1.5,1.9,9.3,1.6,6.7c-0.4-3.7,0.1,2.3,0.1,3.2c0.1,2,0.1,3.9,0.3,5.9
				c0.5,6,1.3,12.1,2.4,18c3.4,17.6,11.8,33.8,23.1,47.5c25.4,31.1,68,40.6,104.1,23.4c35.6-17,53.8-58,53.5-95.9
				c-0.1-15.7-13.7-30.7-30-30c-16.9,0.8-29.2,13.2-30,30c-0.2,4.4-0.4,8.7-0.6,13.1c20,0,40,0,60,0c-0.1-3.9,0-7.8,0.4-11.7
				c-0.5,5.9,1.1-4.5,1.4-5.9c0.5-1.8,1.1-3.5,1.6-5.2c0.1-0.3,1.7-4.5,0.5-1.4c-1.4,3.3,0.9-1.7,1.3-2.4c1-1.9,2.3-3.7,3.3-5.7
				c2.4-4.6,0.8-1.4-0.2-0.2c1-1.3,2.2-2.6,3.3-3.8c1.5-1.6,8.4-6.8,3.2-3.4c2.2-1.4,5.3-2.7,7.3-4.4c2.7-2.5-4.2,0.8-0.5,0.2
				c1.9-0.3,3.9-1.2,5.8-1.7c5.2-1.5,0.6-0.1-0.7,0c1.7-0.1,3.3-0.2,5-0.2c1.6,0,3.3,0.1,4.9,0.3c-1.4-0.1-5.8-1.5-0.8,0.2
				c1.4,0.5,3.2,1.1,4.6,1.4c-0.5-0.1-4.4-2.4-1.6-0.7c3.2,1.9,6.4,3.5,9.4,5.6c-5.3-3.7,2.1,2.4,3.3,3.6c1.2,1.2,2.3,2.5,3.3,3.9
				c-1-1.2-2.6-4.3-0.1,0.2c1.5,2.7,3.1,5.3,4.5,8.1c2.1,4.1-1.4-4.1,0.2,0.3c0.8,2.2,1.5,4.4,2.1,6.6c0.4,1.3,2.1,11.6,1.5,6.1
				c0.4,3.9,0.4,7.8,0.8,11.7c0.9,8.9,2.2,17.8,5.3,26.3c5.7,15.3,14.4,29.2,27.2,39.5c25.5,20.4,61.6,26.5,92.3,14.5
				c34-13.3,54.4-43,57.7-79c0.7-7.2,0.2-14.5,0.6-21.7c0.3-4.9-0.9,4.2,0-0.5c0.4-1.8,0.7-3.7,1.2-5.5c0.4-1.6,4.4-12.2,1.9-6.9
				c1.5-3.2,3.4-6.1,5-9.2c0.5-1,3.4-4.7-0.2-0.2c0.8-1,1.6-2,2.5-2.9c1-1,7.5-7,5.2-5.2c-3,2.3,1.1-0.7,1.9-1.2
				c1.8-1,3.5-2,5.3-2.9c-5.6,3,2.1-0.3,4.2-1c1.9-0.6,4.9,0-0.7,0c1.2,0,2.5-0.2,3.7-0.2c1.6,0.1,3.3,0.2,4.9,0.2
				c4-0.2-4.2-1.8-0.8,0c1.1,0.6,3.4,1.2,4.7,1.3c3,0.1-4.7-2.8,0.7,0.2c2.8,1.6,5.7,3.2,8.3,5.1c-4.7-3.4,0.9,1.2,2.4,2.7
				c1.2,1.2,2.3,2.5,3.4,3.8c2.9,3.4-2.4-3.7,0,0.1c2.1,3.4,4.1,6.8,5.8,10.4c-2.5-5.3,1.3,4.4,1.7,5.8c0.4,1.4,0.7,2.7,1,4.1
				c0.2,0.8,1.2,6.6,0.7,3.1c-0.5-3.6,0.1,2.5,0.2,3.3c0.1,1.9,0.2,3.9,0.4,5.9c0.5,5.9,1.3,11.9,2.5,17.7
				c3.4,16.1,11.9,31.6,23.3,43.5c26.6,27.6,70.2,33.8,104.1,17.2c35.4-17.4,53.5-58.6,52.8-96.5c-0.3-15-11.2-27.5-26-29.5
				c-14.1-1.9-29.6,6.9-32.9,21.5c-2.6,11.7-5.2,23.3-7.9,35c19.6,2.7,39.3,5.3,58.9,8c0-1.3,0.9-12.4,0-6.5
				c0.5-3.7,1.4-7.3,2.5-10.9c0.5-1.8,1.1-3.5,1.8-5.2c-0.2,0.5-1.9,4.1-0.4,1c1.8-3.6,3.8-6.9,5.9-10.2c3-4.8,0.8-0.9,0,0
				c1.1-1.2,2.2-2.5,3.4-3.7c1.2-1.2,2.4-2.2,3.7-3.4c-1,0.9-4.8,2.9-0.2,0.3c1.4-0.8,7.9-4.5,4.9-3.1c-3.6,1.7,1.1-0.4,2-0.7
				c1.9-0.5,4-0.9,5.8-1.5c-5.2,1.7-2.9,0.1-0.7,0.2c1.7,0,3.3-0.1,5,0c1.6,0.1,3.3,0.2,4.9,0.3c-1.2-0.1-6.1-1.4-0.9,0
				c2.5,0.7,5.4,2,7.9,2.2c3.8,0.4-3.9-2.5-0.8-0.4c1.5,1.1,3.4,1.8,5,2.8c1.3,0.8,2.5,1.7,3.8,2.6c-1.2-0.8-4.1-4.1-0.8-0.3
				c1.6,1.8,6.1,8.2,2.9,2.7c1.3,2.2,2.6,5.3,4.3,7.2c2.5,2.8-1-4.2-0.1-0.3c0.5,2.1,1.4,4.1,1.9,6.1c0.5,1.7,0.8,3.5,1.2,5.2
				c-0.3-1.3-0.3-5.8,0,0.3c0.2,3.9,0.2,7.8,0.5,11.7c0.7,9.2,2,18.7,4.8,27.5c5.2,16.6,14,32.3,26.5,44.5
				c26.1,25.6,63.9,32.4,97.1,17c32.5-15.1,50.1-49.3,54.1-83.5c0.5-3.9,0.6-7.8,0.7-11.7c0-1.9,0.1-3.9,0.2-5.8
				c0-0.4,0.5-5,0.1-1.6c-0.5,3.7,0.4-1.8,0.6-2.7c0.4-1.7,0.9-3.3,1.3-5c0.2-0.9,2.2-5.9,0.7-2.3c-1.6,3.8,1.3-2.3,1.7-3
				c0.8-1.4,1.7-2.7,2.5-4c-0.6,1-4.1,4.3-0.4,0.6c1.9-1.8,4-3.6,5.7-5.6c2.5-2.8-4.1,1.9-0.6,0.6c1.3-0.5,2.7-1.6,3.9-2.3
				c0.9-0.5,5.3-2.6,1.6-0.9c-4.1,1.8,2.7-0.8,2.9-0.9c2.2-0.7,10.9-1.7,3.7-1.2c2.9-0.2,5.7-0.4,8.6-0.4c1.6,0,3.3,0.3,4.9,0.2
				c4.2-0.2-4.7-1.5-0.8-0.1c3.2,1.2,6.9,1.8,10.2,2.8c-6.1-2,1,0.7,3.2,2c1.3,0.8,2.5,1.7,3.8,2.6c-0.6-0.4-3.3-3.5-1.6-1.1
				c0.6,0.8,6.9,7.6,4.7,4.6c-2.4-3.2,0.6,1,1,1.8c1,1.8,2,3.5,2.9,5.3c-2.9-5.6,0.8,2.7,1.3,4.7c0.3,1.3,0.6,2.6,0.9,3.9
				c1.1,4.5-0.1-4.6,0.1,0.2c0.4,10,1,19.9,2.7,29.7c3.1,17.6,11.3,33.9,22.4,47.8c25,31.3,67.4,41.6,103.8,24.7
				c35.9-16.8,54.4-57.1,54.8-95.2c0.2-15.7-13.9-30.7-30-30c-17.1,0.8-28.9,13.2-30,30c-0.3,4.4-0.6,8.7-0.8,13.1c20,0,40,0,60,0
				c0-3.9,0-7.8,0.6-11.7c-0.8,5.9,1.3-4.6,1.7-5.8c0.5-1.8,1.1-3.5,1.7-5.2c0.1-0.4,1.9-4.4,0.5-1.4c-1.5,3.3,1-1.7,1.4-2.4
				c1.1-1.9,2.3-3.7,3.4-5.6c2.8-4.7,0.8-1.1-0.1-0.1c1.1-1.3,2.2-2.5,3.4-3.7c1.8-1.9,8.5-6,3.4-3.3c2.4-1.2,5.2-2.7,7.3-4.3
				c3.1-2.2-4.2,0.6-0.5,0.3c1.8-0.1,4-1.1,5.8-1.6c5.5-1.4,0.4,0.1-0.7,0.1c1.6,0,3.4,0,5-0.1c1.7-0.1,5.4,1-0.7-0.3
				c1.6,0.4,3.2,0.6,4.7,1c1.6,0.4,3.1,1,4.6,1.5c-0.7-0.2-4.1-2.5-1.6-0.6c1.3,1,10.2,6.7,5.2,2.6c2.6,2.1,4.8,4.6,7.2,6.9
				c0.9,0.9,3.3,4.4,0.1-0.1c1,1.4,2,2.9,2.9,4.3c0.9,1.5,1.7,3.1,2.6,4.6c0.2,0.3,2.2,4.3,0.8,1.3c-1.5-3.3,0.7,2,1,2.7
				c0.8,2.2,1.4,4.4,2,6.7c0.5,1.8,0.8,3.7,1.2,5.5c-0.3-1.2-0.4-5.6,0.1,0.6c0.3,3.9,0.3,7.8,0.6,11.7c0.7,8.8,2,18,5,26.3
				c5.4,15.3,14,29.5,26.7,39.9c25.3,20.6,61.3,27.2,92.1,15.6c34.5-13,54.5-42.4,58.6-78.3c0.8-7.2,0.3-14.5,1-21.7
				c0.5-4.9-0.9,4.2,0.2-0.5c0.4-1.8,0.8-3.6,1.3-5.4c0.5-1.8,1-3.5,1.6-5.3c0.8-2.3,2.5-5.4,0.6-1.6c1.6-3.1,3.4-6.1,5.2-9.1
				c0.7-1.1,3.5-4.2-0.1-0.1c0.8-0.9,1.6-1.9,2.5-2.8c1.2-1.2,2.3-2.4,3.6-3.5c0.7-0.7,4.8-3.7,1.7-1.6c-3.1,2.2,1.2-0.7,2-1.1
				c1.8-0.9,3.5-2,5.3-2.8c-5.9,2.7,2.3-0.2,4.3-0.8c2.4-0.7,4.1,0.6-0.7,0.1c1.2,0.1,2.5-0.2,3.7-0.1c1,0,6.3,0.2,2.1-0.1
				c-4.1-0.3,0.9,0.2,2,0.5c1.5,0.4,3.1,1.2,4.6,1.4c3.1,0.4-4.7-3,0.6,0.3c1.7,1.1,8.9,6.1,4.1,2.1c2.2,1.9,4.3,3.9,6.4,6
				c0.6,0.6,4,4.7,1.8,1.8c-2.3-2.9,1,1.5,1.4,2.2c0.8,1.3,5.9,11.1,3.7,5.8c1.4,3.4,2.5,7,3.4,10.5c0.3,1.4,0.6,2.8,0.9,4.1
				c1.1,4.7-0.3-4.4,0.2,0.6c1,9.8,1.1,19.6,2.9,29.4c3.1,16.3,11.5,31.7,22.7,43.8c26.1,28.1,69.9,34.6,103.9,18.4
				c35.7-16.9,54.1-57.8,54.1-95.8c0-15.7-13.8-30.7-30-30C1871.3,65.5,1857.6,77.9,1857.6,94.7L1857.6,94.7z"/>
		</g>
	</g>
</g>
<g id="red">
	<g>
		<g>
			<path class="st6" d="M1859.2,153.1c0,3.9,0,7.8-0.6,11.6c0.8-6-1.3,4.4-1.7,5.7c-0.5,1.8-1.1,3.4-1.7,5.2c0.2-0.4,1.9-4.1,0.4-1
				c-1.7,3.6-3.7,6.9-5.8,10.2c-2.8,4.7-0.8,1,0.1,0c-1.1,1.2-2.2,2.5-3.4,3.7c-1.2,1.2-2.4,2.2-3.6,3.4c0.8-0.8,4.9-3.1,0.2-0.2
				c-2.4,1.4-5.1,2.7-7.3,4.2c-3.1,2.1,4.2-0.6,0.5-0.3c-1.8,0.1-4,1.1-5.8,1.6c-5.5,1.3-0.4-0.1,0.7-0.1c-1.7,0-3.3,0.1-5,0.1
				c-1.6,0-3.3-0.2-4.9-0.2c1.1,0,6.3,1.3,0.8,0.1c-2.7-0.6-5.3-1.3-7.9-2.1c-1-0.3-5.4-2.4-1.8-0.6c4,1.9-1.8-1.1-2.5-1.6
				c-1.3-0.8-2.5-1.6-3.8-2.5c1.1,0.7,4.3,4.2,0.8,0.4c-1.5-1.6-6.8-8.1-3-2.5c-1.6-2.3-3-4.6-4.4-7.1c-0.5-0.9-2.3-5.6-1-2
				c1.4,3.9-0.8-2.9-1-3.6c-0.4-1.6-1.7-11.2-1.3-5.4c-0.2-3.9-0.3-7.8-0.6-11.6c-0.7-9.1-2.1-18.5-5-27.3
				c-5.4-16.4-14.2-32.1-26.8-44c-26.4-25.1-64.2-31.8-97.2-16c-32,15.3-50,49.5-53.5,83.6c-0.4,3.9-0.5,7.7-0.6,11.6
				c0,1.9-0.1,3.9-0.1,5.8c0,0.4-0.3,5.1,0,1.5c0.3-3.7-0.3,1.7-0.6,2.6c-0.4,1.7-0.9,3.3-1.3,5c-0.2,0.9-2,6-0.6,2.3
				c1.5-3.8-1.2,2.2-1.6,3c-0.8,1.4-1.7,2.7-2.5,4c-1.2,1.9-3.3,2.7,0.5-0.6c-1.8,1.6-4.2,3.7-5.7,5.6c-2.3,2.9,4.1-2,0.6-0.6
				c-1.3,0.5-2.7,1.6-3.9,2.4c-0.8,0.5-5.3,2.7-1.6,1c3.9-1.9-2.6,0.9-2.9,0.9c-3,0.9-6.1,1.6-9.2,2.1c6.2-1-0.5-0.2-3-0.2
				c-1.6,0-3.3-0.4-4.9-0.2c-4.1,0.6,4.8,1.3,0.8,0.2c-3.4-1-6.8-1.7-10.2-2.7c-2.2-0.6-3.5-2.6,0.8,0.4c-1.2-0.8-2.8-1.4-4-2.2
				c-1.3-0.8-2.5-1.7-3.8-2.5c0.5,0.3,3.6,3.6,1.6,1.2c-0.7-0.8-7.1-7.3-4.8-4.4c2.5,3.1-0.6-0.8-1.1-1.7c-1-1.7-2-3.5-3-5.2
				c-0.9-1.7-1.1-4.6,0.1,0.4c-0.4-1.6-1.1-3.3-1.5-4.9c-0.4-1.5-1.7-9.2-1.5-6.6c0.3,3.8,0-2.3,0-3.1c-0.1-1.9-0.1-3.9-0.2-5.9
				c-0.4-6-1.2-12-2.3-17.9c-3.2-17.5-11.7-33.6-22.8-47.3c-25.3-31.1-67.9-40.5-103.9-23.5c-35.6,16.8-54.1,57.4-54.1,95.2
				c0,15.7,13.8,30.7,30,30c17.1-0.8,28.9-13.2,30-30c0.3-4.3,0.6-8.6,0.8-13c-20,0-40,0-60,0c0,1.3-0.9,12.4,0,6.4
				c-0.6,3.7-1.4,7.3-2.5,10.8c-0.5,1.7-1.1,3.4-1.8,5.1c0.2-0.5,1.9-4.1,0.4-1c-1.8,3.5-3.7,6.8-5.9,10.1c3.1-4.9-1.9,2.1-3.4,3.6
				c-1.2,1.2-2.4,2.2-3.7,3.4c1-0.9,4.8-2.9,0.2-0.3c-1.4,0.8-7.9,4.4-4.9,3.1c3.6-1.6-1.1,0.4-2,0.6c-1.9,0.5-3.9,0.9-5.8,1.5
				c5.3-1.6,2.8-0.1,0.7-0.2c-1.6-0.1-3.4-0.1-5,0c-2.1,0.1-4.8-1.4,0.7,0.2c-1.5-0.4-3.2-0.7-4.7-1.1c-1.6-0.4-3.1-1-4.6-1.5
				c0.8,0.3,3.9,2.4,1.7,0.6c-1.2-1-10-7-5.1-2.7c-2.6-2.2-4.8-4.6-7.2-7c-0.9-0.9-3.1-4.4-0.1,0.1c-1-1.4-1.9-2.9-2.8-4.3
				c-0.9-1.5-1.7-3.1-2.6-4.6c-0.2-0.3-2.1-4.3-0.7-1.3c1.5,3.3-0.7-1.9-0.9-2.7c-0.7-2.2-1.4-4.4-1.9-6.6c-0.4-1.8-0.8-3.7-1.2-5.5
				c0.2,1.3,0.3,5.5,0-0.6c-0.2-3.9-0.2-7.8-0.5-11.6c-0.7-8.8-1.8-17.9-4.8-26.2c-5.3-15.3-13.9-29.5-26.4-39.9
				c-25.1-20.8-61.1-27.7-92.1-16.5c-34.4,12.4-54.9,41.7-59.2,77.4c-0.4,3.8-0.6,7.5-0.7,11.3c-0.1,1.9-0.1,3.9-0.2,5.9
				c0,0.3-0.4,5.1-0.1,1.7c0.4-3.6-0.4,2.2-0.6,3c-0.4,1.8-0.8,3.6-1.3,5.4c-0.5,1.8-1.1,3.5-1.7,5.2c-1.1,3.2,2.1-3.3-0.7,1.4
				c-1.7,3-3.4,6-5.3,9c3-4.7-1.1,1.2-2.5,2.7c-1.1,1.2-2.6,2.2-3.6,3.4c-2.4,3.1,3.8-1.9,0.3-0.2c-1.6,0.8-11.1,5.6-4.5,3.2
				c-3.1,1.1-6.1,1.9-9.3,2.7c5.9-1.4-0.3-0.2-3-0.2c-1.1,0-6.2-0.6-2.1,0c4.1,0.7-1-0.3-2-0.6c-1.5-0.5-3.1-1.1-4.6-1.4
				c-3.2-0.6,4.8,3.1-0.6-0.4c-1.8-1.2-8.6-6.4-4-2.2c-2.2-2-4.3-3.9-6.3-6.1c-0.6-0.6-3.9-4.8-1.7-1.9c2.2,3-0.9-1.5-1.4-2.2
				c-0.8-1.4-5.7-11.1-3.6-5.9c-1.4-3.4-2.4-6.9-3.3-10.5c-0.3-1.4-0.6-2.7-0.9-4.1c-1-4.7,0.3,4.4-0.1-0.5
				c-0.8-9.8-0.9-19.5-2.7-29.3c-3.1-16.3-11.3-31.6-22.4-43.8c-25.7-28.2-69.7-35.2-103.7-19.3c-35.8,16.7-54.4,56.6-54.8,94.6
				c-0.3,33.6,50.5,41,58.9,8c3-11.7,6-23.4,9-35c-19.6-2.7-39.3-5.3-58.9-8c0.1,3.9,0,7.7-0.4,11.6c0.6-5.9-1.1,4.4-1.4,5.8
				c-0.5,1.8-1.1,3.5-1.6,5.2c-0.1,0.4-1.8,4.5-0.5,1.4c1.4-3.3-0.9,1.7-1.3,2.4c-1,1.9-2.2,3.7-3.3,5.6c-2.5,4.6-0.7,1.3,0.2,0.1
				c-1,1.3-2.2,2.6-3.3,3.8c-1.6,1.7-8.5,6.6-3.2,3.4c-2.2,1.4-5.3,2.6-7.3,4.4c-2.8,2.4,4.2-0.8,0.5-0.2c-1.9,0.3-3.9,1.1-5.8,1.7
				c-5.3,1.5-0.6,0.1,0.7,0c-1.7,0.1-3.3,0.2-5,0.2c-2.6,0-10.9-1.7-4.1,0.1c-2.6-0.7-5.3-1.2-8-1.9c-1-0.3-5.6-2.1-1.8-0.5
				c4,1.7-1.8-1-2.6-1.5c-1.3-0.8-2.6-1.6-3.9-2.4c-2-1.2-2.5-3.3,0.7,0.5c-2-2.3-4.4-4.2-6.4-6.6c3.8,4.6,0-0.7-1.2-2.7
				c-0.5-0.8-2.7-5.5-1.1-1.9c1.7,3.8-0.9-2.8-1.1-3.6c-0.4-1.4-2.2-11.4-1.5-5.3c-0.4-3.9-0.4-7.8-0.8-11.6
				c-0.9-9.2-2.3-18.5-5.3-27.2c-5.7-16.3-14.5-31.9-27.4-43.6c-26.8-24.5-64.5-31.2-97.4-14.9c-31.8,15.8-49.4,50.2-52.4,84.3
				c-0.6,7.1-0.5,14.4-0.6,21.6c-0.1,4.4,1.5-4,0,0c-0.6,1.6-0.7,3.4-1.2,5c-0.5,1.6-1.2,3.2-1.5,4.8c-0.7,3.1,2.5-3.9-0.4,0.6
				c-1.3,2-6.5,8.3-1.8,3.6c-1.7,1.7-4.3,3.7-5.6,5.7c-2,3.1,4-2.1,0.7-0.5c-1.3,0.7-2.5,1.7-3.8,2.4c-1.3,0.8-2.8,1.3-4,2.1
				c-2.8,1.9,6-1.5-0.3,0c-3.1,0.7-6.1,1.6-9.2,2.3c6.1-1.3-0.4-0.1-3,0c-1.4,0-10.7-0.7-6.9-0.1c4.2,0.7-0.8-0.2-1.8-0.5
				c-1.9-0.5-3.8-1.1-5.6-1.6c-1.8-0.4-4.5-2.4,0.8,0.5c-1.3-0.7-2.7-1.3-4.1-2.1c-1.4-0.8-7.1-5.1-4.5-2.8c2.9,2.5-3.6-4.1-4.4-4.8
				c-2.8-2.5,1.5,4,0.5,0.5c-0.5-1.5-2.3-3.9-3-5.1c-0.8-1.3-1.8-5,0,0.4c-0.5-1.6-1.2-3.2-1.6-4.9c-0.4-1.4-2.1-9.3-1.7-6.6
				c0.6,3.7-0.1-2.2-0.2-3.1c-0.1-1.9-0.2-3.9-0.3-5.9c-0.5-6-1.3-12-2.5-17.9c-3.5-17.4-12.2-33.4-23.4-47
				c-25.5-30.8-68.6-39.6-104.3-22.2c-35.3,17.2-53.5,58.2-52.8,95.9c0.3,15.7,13.6,30.7,30,30c16.9-0.8,29.2-13.2,30-30
				c0.2-4.3,0.4-8.6,0.6-13c-20,0-40,0-60,0c0,3.9,0,7.7-0.5,11.6c0.7-6-1.2,4.4-1.6,5.7c-0.5,1.8-1.1,3.4-1.7,5.2
				c-0.1,0.4-1.9,4.4-0.5,1.4c1.5-3.3-1,1.6-1.4,2.4c-1,1.9-2.2,3.7-3.3,5.6c-2.7,4.7-0.8,1.1,0.1,0c-1.1,1.3-2.2,2.5-3.4,3.7
				c-1.8,1.9-8.5,6-3.3,3.2c-2.4,1.2-5.2,2.7-7.3,4.2c-3,2.2,4.2-0.6,0.5-0.3c-1.9,0.2-4,1.1-5.8,1.6c-5.5,1.4-0.4-0.1,0.7-0.1
				c-1.6,0-3.4,0-5,0.1c-1.6,0.1-5.7-0.9,0.7,0.4c-1.6-0.3-3.2-0.6-4.7-1c-1.5-0.4-3.1-1.1-4.6-1.4c0.6,0.1,4.2,2.5,1.6,0.7
				c-3-2.1-6.4-3.4-9.4-5.7c5.3,4.1-2.1-2.7-3.2-3.7c-0.8-0.8-3.6-4.4-0.2,0.1c-1-1.4-2-2.8-2.9-4.3c-1.6-2.6-3.1-5.3-4.5-8.1
				c-2-4.1,1.4,4.1-0.1-0.3c-0.7-2.2-1.5-4.4-2-6.6c-0.4-1.4-1.9-11.6-1.4-6c-0.3-3.9-0.3-7.8-0.7-11.6c-0.8-8.8-2.1-17.8-5.1-26.2
				c-5.5-15.3-14.2-29.3-26.9-39.6c-25.4-20.5-61.4-27-92.2-15.3c-34.1,12.9-54.7,42.2-58.2,78.1c-0.7,7.2-0.2,14.3-0.8,21.5
				c-0.4,4.9,0.9-4.3-0.1,0.4c-0.4,1.8-0.8,3.6-1.2,5.4c-0.5,1.8-4.7,11.9-2.1,6.7c-1.6,3.1-3.4,6-5.1,9.1c-0.7,1.1-3.5,4.3,0.1,0
				c-0.8,0.9-1.6,1.9-2.5,2.8c-1.2,1.2-2.3,2.3-3.5,3.5c-0.7,0.7-4.8,3.7-1.7,1.5c3.1-2.2-1.2,0.6-2,1.1c-1.8,0.9-3.5,2-5.3,2.8
				c5.8-2.8-2.2,0.2-4.2,0.8c-2.3,0.6-4.2-0.5,0.7-0.1c-1.2-0.1-2.5,0.1-3.7,0.1c-1,0-6.3-0.1-2.1,0.1c4.1,0.2-0.9-0.2-2-0.5
				c-1.5-0.4-3.1-1.2-4.6-1.3c-3.1-0.3,4.7,2.9-0.6-0.2c-2.8-1.7-5.7-3.2-8.3-5.2c4.7,3.6-0.8-1.3-2.3-2.7c-0.6-0.6-4.1-4.6-1.8-1.8
				c2.3,2.8-1-1.4-1.5-2.2c-2.1-3.4-4.1-6.8-5.7-10.4c2.5,5.4-1.2-4.4-1.6-5.7c-0.4-1.4-0.7-2.7-1-4.1c-0.2-0.8-1-6.6-0.6-3.1
				c0.4,3.6-0.1-2.5-0.1-3.2c-0.1-1.9-0.1-3.9-0.3-5.8c-0.4-5.9-1.2-11.8-2.4-17.6c-3.3-16.1-11.7-31.6-23-43.5
				c-26.3-27.8-70-34.2-104-18c-35.5,16.9-53.8,57.6-53.5,95.4c0.1,15.7,13.7,30.7,30,30c16.1-0.7,30.1-13.2,30-30
				c0-3.9,0-7.7,0.5-11.6c-0.7,6,1.2-4.4,1.6-5.7c0.5-1.8,1.1-3.4,1.7-5.2c0.1-0.4,1.9-4.4,0.5-1.4c-1.5,3.3,1-1.6,1.3-2.4
				c1-1.9,2.2-3.7,3.3-5.6c2.7-4.7,0.8-1.1-0.1,0c1.1-1.3,2.2-2.5,3.4-3.7c1.8-1.9,8.5-6,3.3-3.2c2.4-1.2,5.2-2.7,7.3-4.2
				c3-2.2-4.2,0.6-0.5,0.3c1.9-0.2,4-1.1,5.8-1.6c5.5-1.4,0.4,0.1-0.7,0.1c1.7,0,3.3-0.1,5-0.1c1.6,0,3.3,0.2,4.9,0.2
				c-1.1,0-6.3-1.3-0.8-0.1c2.7,0.6,5.3,1.3,7.9,2.1c1,0.3,5.5,2.3,1.8,0.6c-4-1.9,1.8,1.1,2.6,1.6c1.3,0.8,2.6,1.6,3.8,2.5
				c-1-0.6-4.3-4.2-0.7-0.4c1.4,1.5,7.1,8,3.1,2.5c1.6,2.3,3,4.6,4.4,7c0.5,0.8,2.5,5.5,1.1,2c-1.5-3.9,0.8,2.8,1,3.6
				c0.4,1.5,1.9,11.3,1.4,5.4c0.3,3.9,0.3,7.8,0.7,11.6c0.8,9.2,2.2,18.5,5.1,27.3c5.5,16.4,14.4,32,27,43.9
				c26.5,24.9,64.3,31.7,97.3,15.8c31.9-15.4,49.8-49.7,53.1-83.8c0.7-7.2,0.4-14.4,0.8-21.6c0.3-4.4-1.6,3.8,0.1,0
				c0.7-1.5,0.9-3.4,1.2-5c0.2-0.9,1.9-6,0.6-2.3c-1.4,3.8,1.1-2.2,1.6-3c1.4-2.5,6.6-7.7,1.9-3.5c1.8-1.6,4.2-3.7,5.6-5.6
				c2.2-3-4.1,2-0.7,0.6c1.3-0.6,2.6-1.6,3.9-2.4c0.8-0.5,5.2-2.8,1.6-1c-3.9,1.9,2.5-0.8,2.9-1c3-0.9,6.1-1.6,9.2-2.2
				c-6.2,1.1,0.5,0.2,3,0.2c1.6,0,3.4,0.4,4.9,0.2c4.1-0.6-4.8-1.3-0.8-0.2c3.4,0.9,6.8,1.7,10.2,2.6c2.1,0.6,3.8,2.6-0.8-0.4
				c1.2,0.8,2.8,1.4,4,2.2c1.3,0.8,2.5,1.7,3.8,2.4c-0.5-0.2-3.6-3.6-1.6-1.2c0.7,0.8,7.2,7.2,4.8,4.4c-2.6-3,0.6,0.8,1.1,1.7
				c1,1.7,2,3.5,3,5.2c0.9,1.5,1.4,4.8-0.1-0.4c0.5,1.6,1.1,3.2,1.6,4.9c0.4,1.5,1.9,9.3,1.6,6.6c-0.4-3.8,0,2.3,0.1,3.1
				c0.1,1.9,0.1,3.9,0.3,5.9c0.5,6,1.3,12,2.4,17.9c3.4,17.5,11.9,33.6,23.1,47.2c25.4,31,68.1,40.3,104.1,23.2
				c35.5-16.9,53.9-57.6,53.5-95.4c-0.1-15.7-13.7-30.7-30-30c-16.9,0.8-29.2,13.2-30,30c-0.2,4.3-0.4,8.6-0.6,13c20,0,40,0,60,0
				c-0.1-3.9,0-7.7,0.4-11.6c-0.6,5.9,1.1-4.4,1.4-5.8c0.5-1.8,1.1-3.5,1.6-5.2c0.1-0.4,1.8-4.5,0.5-1.4c-1.4,3.3,0.9-1.7,1.3-2.4
				c1-1.9,2.2-3.7,3.3-5.6c2.5-4.6,0.7-1.3-0.2-0.1c1-1.3,2.2-2.6,3.3-3.8c1.6-1.7,8.5-6.6,3.2-3.4c2.2-1.4,5.3-2.7,7.3-4.4
				c2.8-2.4-4.2,0.8-0.5,0.2c1.9-0.3,3.9-1.2,5.8-1.7c5.3-1.5,0.6-0.1-0.7,0c1.7-0.1,3.3-0.2,5-0.2c1.6,0,3.3,0.1,4.9,0.3
				c-1.4-0.1-5.8-1.5-0.8,0.2c1.6,0.5,8.4,3.1,5.5,1.7c-3.6-1.7,1,0.7,1.8,1.2c1.7,1.1,3.4,2.2,5.1,3.3c-5.4-3.6,2.1,2.3,3.2,3.5
				c1.2,1.2,2.3,2.5,3.3,3.8c-0.9-1.2-2.6-4.4-0.1,0.2c1.5,2.7,3.1,5.3,4.5,8.1c2.1,4.1-1.4-4.1,0.2,0.3c0.8,2.2,1.5,4.3,2.1,6.6
				c0.4,1.3,2.1,11.6,1.5,6c0.4,3.9,0.4,7.8,0.8,11.6c0.9,8.9,2.2,17.8,5.3,26.1c6.5,17.4,16.7,31.5,31.5,42.6
				c24.3,18.2,59.8,22.1,88,11.1c33.9-13.2,54.4-42.7,57.7-78.6c0.7-7.2,0.2-14.3,0.6-21.5c0.3-4.9-0.9,4.3,0-0.4
				c0.4-1.8,0.7-3.6,1.2-5.4c0.4-1.6,4.4-12.1,1.9-6.8c1.5-3.2,3.4-6.1,5-9.1c0.6-1,3.4-4.6-0.2-0.1c0.8-1,1.6-1.9,2.5-2.8
				c1-1,7.5-7,5.2-5.2c-3,2.3,1.1-0.7,2-1.1c1.8-1,3.5-2,5.3-2.9c-5.6,2.9,2.1-0.3,4.2-0.9c2-0.6,4.9,0.1-0.7,0
				c1.2,0,2.5-0.2,3.7-0.2c1.6,0.1,3.3,0.2,4.9,0.2c4-0.2-4.2-1.8-0.8,0c1.3,0.7,3.2,0.9,4.7,1.3c2.2,0.6,5.2,3.2,0.7,0.1
				c2.7,1.8,5.7,3.2,8.3,5c-4.8-3.4,0.9,1.1,2.4,2.6c1.2,1.2,2.3,2.5,3.4,3.8c2.9,3.3-2.4-3.8,0,0.1c2.1,3.4,4.1,6.7,5.8,10.3
				c-2.6-5.3,1.3,4.2,1.7,5.6c0.4,1.4,0.7,2.7,1,4.1c0.2,0.8,1.2,6.6,0.7,3c-0.5-3.6,0.1,2.4,0.2,3.2c0.1,1.9,0.2,3.9,0.3,5.8
				c0.5,5.9,1.2,11.8,2.5,17.6c3.4,16.1,11.9,31.5,23.3,43.3c26.7,27.4,70.2,33.6,104.1,17.1c35.3-17.2,53.5-58.2,52.8-95.9
				c-0.6-33.2-50.4-41.5-58.9-8c-3,11.7-6,23.3-9,35c19.6,2.7,39.3,5.3,58.9,8c0-1.3,0.9-12.4,0-6.4c0.6-3.7,1.4-7.3,2.5-10.8
				c0.5-1.7,1.1-3.4,1.8-5.1c-0.2,0.5-1.9,4.1-0.4,1c1.8-3.5,3.7-6.8,5.9-10.1c-3.1,4.9,1.9-2.1,3.4-3.6c1.2-1.2,2.4-2.2,3.7-3.4
				c-1,0.9-4.8,2.9-0.2,0.3c1.4-0.8,7.9-4.4,4.9-3.1c-3.6,1.6,1.1-0.4,2-0.6c1.9-0.5,4-0.9,5.8-1.5c-5.3,1.6-2.8,0.2-0.7,0.2
				c1.7,0,3.3-0.1,5,0c1.6,0.1,3.3,0.2,4.9,0.3c-1.2-0.1-6.2-1.4-0.9,0c2.5,0.6,5.4,2,7.9,2.2c3.8,0.3-3.9-2.5-0.8-0.4
				c1.6,1,3.4,1.7,5,2.7c1.3,0.8,2.5,1.6,3.8,2.5c-1.1-0.8-4.1-4.1-0.8-0.4c1.6,1.8,6.2,8.2,2.9,2.6c1.3,2.1,2.6,5.3,4.3,7.1
				c2.6,2.8-1-4.2-0.1-0.4c0.5,2,1.4,4,1.9,6.1c0.5,1.7,0.8,3.4,1.2,5.2c-0.3-1.3-0.3-5.8,0,0.2c0.2,3.9,0.2,7.8,0.5,11.6
				c0.7,9.2,2,18.6,4.8,27.3c5.2,16.5,14,32.2,26.5,44.3c26.2,25.5,63.9,32.2,97.1,16.9c32.4-15,50.1-49,54.1-83
				c0.5-3.9,0.6-7.7,0.7-11.6c0.1-1.9,0.1-3.9,0.2-5.8c0-0.4,0.5-5,0.1-1.5c-0.5,3.7,0.4-1.7,0.6-2.6c0.4-1.7,0.9-3.3,1.3-5
				c0.3-0.9,2.2-5.9,0.7-2.2c-1.7,3.8,1.3-2.2,1.7-2.9c0.8-1.4,1.7-2.6,2.5-4c-0.6,1-4.1,4.3-0.4,0.6c1.1-1,6.4-6.2,3.6-3.9
				c-3.1,2.6,0.6-0.4,1.5-1c1.3-0.8,2.6-1.6,3.9-2.3c0.9-0.5,5.4-2.5,1.6-0.9c-4.1,1.7,2.7-0.8,2.9-0.8c2.3-0.7,10.8-1.6,3.7-1.2
				c2.9-0.2,5.7-0.4,8.6-0.4c1.6,0,3.3,0.3,4.9,0.2c4.2-0.2-4.7-1.5-0.8-0.1c3.2,1.2,6.9,1.8,10.2,2.8c-6.1-1.9,1,0.6,3.2,2
				c1.3,0.8,2.5,1.7,3.8,2.5c-0.6-0.4-3.4-3.5-1.6-1.1c0.6,0.8,6.9,7.5,4.7,4.6c-2.4-3.2,0.5,0.9,1,1.8c1,1.8,1.9,3.5,2.9,5.2
				c-0.6-1-1.9-5.7-0.2-0.3c0.5,1.6,1.1,3.2,1.5,4.9c0.3,1.3,0.6,2.6,0.9,3.9c1.1,4.5-0.1-4.6,0.1,0.1c0.4,9.9,1,19.8,2.7,29.5
				c3.2,17.5,11.3,33.7,22.4,47.5c25.1,31.2,67.5,41.4,103.7,24.5c35.8-16.6,54.4-56.7,54.8-94.6c0.2-15.7-13.9-30.7-30-30
				c-17.1,0.8-28.9,13.2-30,30c-0.3,4.3-0.6,8.6-0.8,13c20,0,40,0,60,0c0-3.9,0-7.8,0.6-11.6c-0.8,6,1.3-4.4,1.7-5.7
				c0.5-1.8,1.1-3.4,1.7-5.2c-0.2,0.4-1.9,4.1-0.4,1c1.7-3.6,3.7-6.9,5.8-10.2c2.8-4.7,0.8-1-0.1,0c1.1-1.2,2.2-2.5,3.4-3.7
				c1.2-1.2,2.4-2.2,3.6-3.4c-0.8,0.8-4.9,3.1-0.2,0.2c2.4-1.4,5.1-2.7,7.3-4.2c3.1-2.2-4.2,0.6-0.5,0.3c1.8-0.1,4-1.1,5.8-1.6
				c5.5-1.3,0.4,0.1-0.7,0.1c1.6,0,3.4,0,5-0.1c1.7-0.1,5.5,1-0.7-0.3c1.6,0.3,3.2,0.6,4.7,1c1.6,0.4,3.1,1,4.6,1.4
				c-0.7-0.2-4.2-2.5-1.6-0.6c1.4,1,10.2,6.6,5.2,2.6c2.6,2.1,4.8,4.6,7.2,6.9c0.9,0.8,3.4,4.4,0.1-0.1c1,1.4,2,2.8,2.9,4.3
				c1.6,2.6,3.1,5.3,4.4,8.1c2,4.2-1.3-4.1,0,0.4c0.7,2.2,1.4,4.4,2,6.6c0.4,1.5,1.6,11.5,1.3,6c0.2,3.9,0.3,7.8,0.6,11.6
				c0.7,8.8,2,17.8,4.9,26.2c5.4,15.3,14.1,29.4,26.7,39.7c25.3,20.6,61.3,27.1,92.1,15.6c34.4-12.9,54.5-42.1,58.6-77.9
				c0.8-7.1,0.3-14.3,1-21.5c0.5-4.9-0.9,4.3,0.2-0.4c0.4-1.8,0.8-3.6,1.3-5.4c0.5-1.8,1.1-3.5,1.6-5.2c1-3.2-2,3.4,0.6-1.5
				c1.6-3.1,3.4-6,5.2-9c0.7-1.2,3.6-4.1-0.1,0c0.8-0.9,1.6-1.9,2.5-2.8c1.1-1.1,2.7-2.2,3.6-3.5c2.2-3.3-3.7,2.1-0.3,0.1
				c3.2-1.9,6.1-3.9,9.4-5.4c-5.9,2.7,2.3-0.2,4.3-0.7c2.4-0.7,4.1,0.6-0.7,0.1c1.2,0.1,2.5-0.2,3.7-0.1c1,0.1,6.3,0.2,2.1-0.1
				c-4.1-0.3,0.9,0.2,2,0.5c1.5,0.4,3.1,1.2,4.6,1.3c3.1,0.4-4.7-3,0.6,0.3c1.7,1,9.1,6.1,4.1,2c2.3,1.8,4.3,3.9,6.4,6
				c0.6,0.6,4.1,4.7,1.8,1.8c-2.3-2.9,1,1.4,1.4,2.2c2.1,3.4,4.1,6.8,5.7,10.4c-2.4-5.5,1.1,4.4,1.4,5.7c0.3,1.4,0.7,2.7,0.9,4.1
				c0.2,0.8,0.8,6.6,0.6,3.1c-0.3-3.6,0,2.5,0,3.2c0.1,1.9,0.1,3.9,0.2,5.8c0.4,5.9,1.2,11.8,2.3,17.6c3.1,16.2,11.5,31.6,22.7,43.6
				c26.2,28,69.9,34.3,103.9,18.3c35.6-16.8,54.1-57.4,54.1-95.2c0-15.7-13.8-30.7-30-30C1873,123.9,1859.2,136.3,1859.2,153.1
				L1859.2,153.1z"/>
		</g>
	</g>
</g>
</svg>
