<?xml version="1.0" encoding="utf-8"?>
<!-- Generator: Adobe Illustrator 23.0.1, SVG Export Plug-In . SVG Version: 6.00 Build 0)  -->
<svg version="1.1" xmlns="http://www.w3.org/2000/svg" xmlns:xlink="http://www.w3.org/1999/xlink" x="0px" y="0px"
	 viewBox="0 0 1700 900" style="enable-background:new 0 0 1700 900;" xml:space="preserve">
<style type="text/css">
	.st0{display:none;}
	.st1{display:inline;}
	.st2{fill:#69A1A5;}
	.st3{fill:#566D79;}
	.st4{fill:#DBB647;}
	.st5{fill:#C46A6A;}
</style>
<g id="Layer_1" class="st0">
	<g id="xpwEmh_1_" class="st1">
		
			<image style="overflow:visible;" width="3360" height="1826" id="xpwEmh" xlink:href="7B3626B60A93E5A7.png"  transform="matrix(0.5 0 0 0.5 10 0)">
		</image>
	</g>
	<g id="pGWTZZ_1_" class="st1">
		
			<image style="overflow:visible;" width="2564" height="272" id="pGWTZZ_2_" xlink:href="7B3626B60A93E5A5.png"  transform="matrix(0.5 0 0 0.5 266.1125 -238.4422)">
		</image>
	</g>
</g>
<g id="Four">
	<path class="st2" d="M303.11-31.74l-319.92,12.7v919.19H89.2L62.6,841.4c0,0,51.39-42.42,60.22-100.75
		c8.84-58.33,0-102.51-35.35-125.49c-35.35-22.98-70.7-56.56-37.12-113.12s53.02-104.28,22.98-178.52S28.89,102.59,62.6,77.85
		s109.71-68.93,226.37-65.4L303.11-31.74"/>
	<polyline class="st2" points="1700,288.84 1700,0 1437.84,0 1429.91,123.8 1564.95,129.1 1637.56,168.79 1634.03,309.39 
		1700,288.84 	"/>
</g>
<g id="Three">
	<path class="st3" d="M303.11-31.74c0,0-49.49,38.88-109.58,38.88S34.45,21.29,25.61,102.59S41.26,318.22,62.6,362.41
		s-18.55,84.44-37.06,121.73C10.43,514.55,11.21,599.26,62.6,629.3s51.39,155.54,10.73,176.75C32.68,827.26,6.21,858.15,0,900.15
		c-6.21,42,157.17,19.02,157.17,19.02l-5.7-83.07l34.98-120.19l-29.28-79.54l-20.21-155.54l-3.54-201.49l-1.77-141.4l86.61-67.16
		l164.38-33.58l93.68-37.27L303.11-31.74z"/>
	<path class="st3" d="M1440.35-53.57c0,0,56.56,45.95,45.95,81.3s11.7,60.89,59.42,55.59c47.72-5.3,85.51-14.93,126.17,27.49
		c40.65,42.42-23.35,130.39,0,152c28.11,26.03,61.05,7.07,61.05,7.07l-13.43,58.33c0,0-51.16-7.07-88.27,10.6
		c-37.12,17.67-35.35,10.6-31.81-42.42c3.53-53.02,17.67-136.1-42.42-141.4c-60.09-5.3-143.17,24.74-144.93-44.19
		c-1.77-68.93-53.56-148.47-53.56-148.47L1440.35-53.57z"/>
</g>
<g id="Two">
	<path class="st4" d="M211.9,900.15H89.2C72.72,877.37,138.65,759.93,157.17,694S59.9,600.6,62.65,543.83
		c2.75-56.77,81.5-152,43.04-197.79S45.25,205.03,80.05,113.46S211.9,25.55,250.36,29.22S411.52,0,411.52,0L576.3-0.07
		l-76.96,112.01l-209.28,6.75l-90.46,103.97l49.96,124.22c0,0,1.35,113.42-18.9,159.32s16.2,187.68,16.2,187.68L269.8,900
		L211.9,900.15z"/>
	<path class="st4" d="M1373.66-40.85c0.19-0.03,0.39,0.01,0.55,0.12c3.98,2.56,53.76,35.43,53.76,79.5
		c0,45.91-8.85,76.22,14.93,91.67c22.98,14.94,121.45-30.91,175.45,27.15c54.01,58.06-40.51,194.43-9.45,174.18
		c29.02-18.93,106.38-31.96,116.39-33.58c0.54-0.09,1,0.37,0.94,0.91L1713.1,403.3c-0.08,0.62-0.78,0.93-1.29,0.56
		c-6.21-4.5-36.68-26.19-47.57-26.19c-11.5,0-103.43,13.3-113.25,14.73c-0.46,0.07-0.88-0.27-0.93-0.73l-10.04-105.77
		c0-0.03-0.01-0.05-0.01-0.08c-0.35-1.85-13.92-71.72-45.9-86.38c-31.06-14.24-104.3-49.56-110.32-52.47
		c-0.25-0.12-0.42-0.35-0.45-0.63l-9.37-68.3c-0.01-0.08-0.03-0.16-0.07-0.24c-1.71-3.6-44.12-91.78-90.41-95.75
		C1237.52-21.88,1366.63-39.88,1373.66-40.85z"/>
</g>
<g id="One">
	<path class="st5" d="M697.22,0c0,0-89.74,5.41-108.05,34.71s-14.65,102.56-84.24,113.55c-69.59,10.99-166.65-31.13-216.1,14.65
		s-67.76,84.24-49.45,122.7s89.74,101.87,45.78,170.89s-64.1,136.78-27.47,171.57s58.6,54.94,20.15,115.38S327.28,904.55,510.42,900
		l-298.51,0.15c0,0-47.62-43.15-32.96-98.09c14.65-54.94,56.77-113.55,16.48-162.99c-40.29-49.45-18.31-139.87,18.31-182.56
		s9.16-119.61-23.81-147.08c-32.96-27.47-62.27-126.36,23.81-205.11s146.72-12.82,213.46-16.48C493.94,84.16,503.09,0,503.09,0
		H697.22z"/>
	<path class="st5" d="M1700,524.64c0,0,9.97-91.57-30.32-111.71c-40.29-20.15-133.69,25.64-162.99-25.64s18.31-98.89-18.31-148.34
		s-139.44-36.11-151.21-84.25c-12.12-49.62-4.46-135.52-90.54-146.5c-48.62-6.21-70.36-16.5-80.07-24.29
		c-4.35-3.48-1.82-10.51,3.75-10.51h117.65c0.55,0,1.09,0.08,1.62,0.22c7.83,2.21,69.83,20.89,85.26,62.04
		c16.48,43.95,5.22,97.58,34.74,119.03c29.88,21.71,106.28,7.33,144.74,76.92s-31.13,142.85,9.16,144.68
		c39.53,1.8,93.7-63.39,135.24-33c1.52,1.11,2.38,2.9,2.37,4.78L1700,524.64z"/>
</g>
</svg>
